<svg xmlns="http://www.w3.org/2000/svg" xmlns:xlink="http://www.w3.org/1999/xlink" xmlns:lucid="lucid" width="1602.24" height="689"><g transform="translate(1.2353515625 -3.552713678800501e-15)" lucid:page-tab-id="0_0"><path d="M1341 572.5h240v80h-240z" stroke="#000" stroke-width="2" fill="#c1e4f7"/><use xlink:href="#a" transform="matrix(1,0,0,1,1346,577.5) translate(21.62939453125 25.44921875)"/><use xlink:href="#b" transform="matrix(1,0,0,1,1346,577.5) translate(84.79638671875 25.44921875)"/><use xlink:href="#c" transform="matrix(1,0,0,1,1346,577.5) translate(60.84619140625 57.08984375)"/><path d="M1341 242.5h240v80h-240z" stroke="#000" stroke-width="2" fill="#c1e4f7"/><use xlink:href="#d" transform="matrix(1,0,0,1,1346,247.5) translate(21.77880859375 25.44921875)"/><use xlink:href="#e" transform="matrix(1,0,0,1,1346,247.5) translate(90.61474609375 25.44921875)"/><use xlink:href="#f" transform="matrix(1,0,0,1,1346,247.5) translate(143.05029296875 25.44921875)"/><use xlink:href="#g" transform="matrix(1,0,0,1,1346,247.5) translate(56.32861328125 57.08984375)"/><path d="M1341 462.5h240v80h-240z" stroke="#000" stroke-width="2" fill="#c1e4f7"/><use xlink:href="#h" transform="matrix(1,0,0,1,1346,467.5) translate(71.3447265625 25.44921875)"/><use xlink:href="#i" transform="matrix(1,0,0,1,1346,467.5) translate(30.33935546875 57.08984375)"/><path d="M1161 422.5h100v40c-16.7-6.68-27.1-6.68-33.4-6.68-10 0-23.3 6.68-33.3 6.68-6.2 0-16.7 0-33.3-6.68z" stroke="#000" stroke-width="2" fill="#ffbbb1"/><use xlink:href="#j" transform="matrix(1,0,0,1,1166,427.5000000000001) translate(2.79052734375 18.19921875)"/><path d="M1161 282.5h100v40c-16.7-6.68-27.1-6.68-33.4-6.68-10 0-23.3 6.68-33.3 6.68-6.2 0-16.7 0-33.3-6.68z" stroke="#000" stroke-width="2" fill="#ffbbb1"/><use xlink:href="#k" transform="matrix(1,0,0,1,1166,287.5) translate(22.09130859375 18.19921875)"/><path d="M848 105.54h200v111.18H848z" stroke="#000" stroke-width="2" fill="#ffbbb1"/><path d="M854 110.96h200v111.17H854z" stroke="#000" stroke-width="2" fill="#ffbbb1"/><use xlink:href="#l" transform="matrix(1,0,0,1,859,115.95656250000006) translate(0 16.69921875)"/><use xlink:href="#m" transform="matrix(1,0,0,1,859,115.95656250000006) translate(35.7099609375 16.69921875)"/><use xlink:href="#n" transform="matrix(1,0,0,1,859,115.95656250000006) translate(0 35.49375)"/><use xlink:href="#o" transform="matrix(1,0,0,1,859,115.95656250000006) translate(0 57.45375)"/><use xlink:href="#p" transform="matrix(1,0,0,1,859,115.95656250000006) translate(0 77.07375)"/><use xlink:href="#q" transform="matrix(1,0,0,1,859,115.95656250000006) translate(18 77.07375)"/><use xlink:href="#r" transform="matrix(1,0,0,1,859,115.95656250000006) translate(63 77.07375)"/><use xlink:href="#s" transform="matrix(1,0,0,1,859,115.95656250000006) translate(126 77.07375)"/><use xlink:href="#t" transform="matrix(1,0,0,1,859,115.95656250000006) translate(0 96.69375000000001)"/><path d="M1263 302.5h33c2.76 0 5-2.24 5-5v-10c0-2.76 2.24-5 5-5h15.5" stroke="#000" stroke-width="2" fill="none"/><path d="M1263.03 303.5H1262v-2h1.03z"/><path d="M1336.76 282.5l-14.26 4.64v-9.28z" stroke="#000" stroke-width="2"/><path d="M810.5 260h281v240h-281z" stroke="#000" stroke-width="2" fill="#ffeca9"/><use xlink:href="#u" transform="matrix(1,0,0,1,815.5,265) translate(22.09722222222223 26.493055555555557)"/><use xlink:href="#v" transform="matrix(1,0,0,1,815.5,265) translate(117.98263888888889 26.493055555555557)"/><use xlink:href="#w" transform="matrix(1,0,0,1,815.5,265) translate(185.96875 26.493055555555557)"/><path d="M841 321.6h220v37.5H841z" stroke="#000" stroke-width="2" fill="#ffeca9"/><use xlink:href="#x" transform="matrix(1,0,0,1,846,326.58687499999996) translate(7.7841796875 19.646484375)"/><use xlink:href="#y" transform="matrix(1,0,0,1,846,326.58687499999996) translate(61.79296875 19.646484375)"/><path d="M841 382.5h220V420H841z" stroke="#000" stroke-width="2" fill="#ffeca9"/><use xlink:href="#x" transform="matrix(1,0,0,1,846,387.5) translate(29.3876953125 19.646484375)"/><use xlink:href="#z" transform="matrix(1,0,0,1,846,387.5) translate(83.396484375 19.646484375)"/><path d="M844 443.4h220v37.5H844z" fill="#ffeca9"/><path d="M855.8 443.4h7.84m7.86 0h7.86m7.85 0h7.87m7.86 0h7.86m7.84 0h7.86m7.86 0h7.85m7.87 0h7.86m7.86 0h7.84m7.86 0h7.86m7.85 0h7.87m7.86 0h7.86m7.84 0h7.86m7.86 0h7.85m7.87 0h3.93v4.7m0 9.38v9.37m0 9.38v4.68h-3.93m-7.86 0h-7.84m-7.86 0h-7.86m-7.85 0h-7.87m-7.86 0h-7.86m-7.84 0h-7.86m-7.86 0h-7.85m-7.87 0h-7.86m-7.86 0h-7.84m-7.86 0h-7.86m-7.85 0h-7.87m-7.86 0h-7.86m-7.84 0h-7.86m-7.86 0h-7.85m-7.87 0H844v-4.67m0-9.38v-9.37m0-9.38v-4.7h3.93" stroke="#000" stroke-width="2" fill="none"/><use xlink:href="#x" transform="matrix(1,0,0,1,849,448.41312500000004) translate(56.39208984375 19.646484375)"/><use xlink:href="#A" transform="matrix(1,0,0,1,849,448.41312500000004) translate(110.40087890625 19.646484375)"/><path d="M1141.5 302.62H1116c-2.76 0-5 2.24-5 5v27.72c0 2.76-2.24 5-5 5h-43" stroke="#000" stroke-width="2" fill="none"/><path d="M1156.76 302.62l-14.26 4.64V298z" stroke="#000" stroke-width="2"/><path d="M1063.03 341.34H1062v-2h1.03z"/><path d="M1141.5 442.62H1116c-2.76 0-5-2.23-5-5v-31.37c0-2.76-2.24-5-5-5h-43" stroke="#000" stroke-width="2" fill="none"/><path d="M1156.76 442.62l-14.26 4.64V438z" stroke="#000" stroke-width="2"/><path d="M1063.03 402.25H1062v-2h1.03z"/><path d="M1161 352.5h100v40c-16.7-6.68-27.1-6.68-33.4-6.68-10 0-23.3 6.68-33.3 6.68-6.2 0-16.7 0-33.3-6.68z" stroke="#000" stroke-width="2" fill="#ffbbb1"/><use xlink:href="#j" transform="matrix(1,0,0,1,1166,357.5) translate(2.79052734375 18.19921875)"/><path d="M1141.5 372.6H1116c-2.76 0-5-2.23-5-5v-22.15c0-2.76-2.24-5-5-5h-43" stroke="#000" stroke-width="2" fill="none"/><path d="M1156.76 372.6l-14.26 4.65v-9.28z" stroke="#000" stroke-width="2"/><path d="M1063.03 341.45H1062v-2h1.03z"/><path d="M1341 352.5h240v80h-240z" stroke="#000" stroke-width="2" fill="#c1e4f7"/><use xlink:href="#B" transform="matrix(1,0,0,1,1346,357.5) translate(66.29541015625 25.44921875)"/><use xlink:href="#C" transform="matrix(1,0,0,1,1346,357.5) translate(99.35107421875 25.44921875)"/><use xlink:href="#D" transform="matrix(1,0,0,1,1346,357.5) translate(31.46435546875 57.08984375)"/><path d="M1263 372.6h33c2.76 0 5 2.25 5 5v9.9c0 2.76 2.24 5 5 5h15.5" stroke="#000" stroke-width="2" fill="none"/><path d="M1263.03 373.6H1262v-2h1.03z"/><path d="M1336.76 392.5l-14.26 4.64v-9.28z" stroke="#000" stroke-width="2"/><path d="M1263 442.6h33c2.76 0 5 2.25 5 5v49.9c0 2.76 2.24 5 5 5h15.5" stroke="#000" stroke-width="2" fill="none"/><path d="M1263.03 443.6H1262v-2h1.03z"/><path d="M1336.76 502.5l-14.26 4.64v-9.28z" stroke="#000" stroke-width="2"/><path d="M951 258v-21.78" stroke="#000" stroke-width="2" fill="none"/><path d="M952 259h-2v-1.03h2z"/><path d="M951 220.95l4.64 14.27h-9.28z" stroke="#000" stroke-width="2"/><path d="M341 572.5h240v80H341z" stroke="#000" stroke-width="2" fill="#c7e8ac"/><use xlink:href="#B" transform="matrix(1,0,0,1,346,577.5) translate(66.29541015625 25.44921875)"/><use xlink:href="#C" transform="matrix(1,0,0,1,346,577.5) translate(99.35107421875 25.44921875)"/><use xlink:href="#E" transform="matrix(1,0,0,1,346,577.5) translate(69.89892578125 57.08984375)"/><use xlink:href="#F" transform="matrix(1,0,0,1,346,577.5) translate(115.12744140625 57.08984375)"/><path d="M341 361.25h240v80H341z" stroke="#000" stroke-width="2" fill="#c7e8ac"/><use xlink:href="#B" transform="matrix(1,0,0,1,346,366.25) translate(9.478515625 25.44921875)"/><use xlink:href="#G" transform="matrix(1,0,0,1,346,366.25) translate(42.5341796875 25.44921875)"/><use xlink:href="#H" transform="matrix(1,0,0,1,346,366.25) translate(111.3701171875 25.44921875)"/><use xlink:href="#I" transform="matrix(1,0,0,1,346,366.25) translate(31.7763671875 57.08984375)"/><use xlink:href="#J" transform="matrix(1,0,0,1,346,366.25) translate(92.236328125 57.08984375)"/><path d="M341 241.6h240v80H341z" stroke="#000" stroke-width="2" fill="#c7e8ac"/><use xlink:href="#B" transform="matrix(1,0,0,1,346,246.58687499999996) translate(66.29541015625 25.44921875)"/><use xlink:href="#K" transform="matrix(1,0,0,1,346,246.58687499999996) translate(99.35107421875 25.44921875)"/><use xlink:href="#L" transform="matrix(1,0,0,1,346,246.58687499999996) translate(32.59375 57.08984375)"/><use xlink:href="#M" transform="matrix(1,0,0,1,346,246.58687499999996) translate(100.181640625 57.08984375)"/><use xlink:href="#F" transform="matrix(1,0,0,1,346,246.58687499999996) translate(152.4326171875 57.08984375)"/><path d="M583 612.5h738.5" stroke="#000" stroke-width="2" fill="none"/><path d="M583.03 613.5H582v-2h1.03z"/><path d="M1336.76 612.5l-14.26 4.64v-9.28z" stroke="#000" stroke-width="2"/><path d="M583 281.6h113c2.76 0 5 2.23 5 5v48.74c0 2.76 2.24 5 5 5h115.5" stroke="#000" stroke-width="2" fill="none"/><path d="M583.03 282.6H582v-2h1.03z"/><path d="M836.76 340.34l-14.26 4.63v-9.27z" stroke="#000" stroke-width="2"/><path d="M701 367.77l40 33.48-40 33.48-40-33.48z" stroke="#000" stroke-width="2" fill="#e5e5e5"/><use xlink:href="#N" transform="matrix(1,0,0,1,666,372.77171874832834) translate(10.06603515625 32.709218750000005)"/><path d="M583 401.25h57.94" stroke="#000" stroke-width="2" fill="none"/><path d="M583.03 402.25H582v-2h1.03z"/><path d="M656.2 401.25l-14.26 4.64v-9.3z" stroke="#000" stroke-width="2"/><path d="M743.56 401.25h77.94" stroke="#000" stroke-width="2" fill="none"/><path d="M743.58 402.25h-2.22l1.2-1-1.2-1h2.22z"/><path d="M836.76 401.25l-14.26 4.64v-9.3z" stroke="#000" stroke-width="2"/><path d="M321.5 612.5H181" stroke="#000" stroke-width="2" fill="none"/><path d="M336.76 612.5l-14.26 4.64v-9.28z" stroke="#000" stroke-width="2"/><path d="M181.03 612.5H180" stroke="#000" stroke-width="2" fill="none"/><path d="M341 20h240v43H341z" stroke="#000" stroke-width="2" fill="#c7e8ac"/><g><use xlink:href="#O" transform="matrix(1,0,0,1,346,25.000000000000004) translate(54.26866319444445 24.741319444444443)"/></g><path d="M701 20h240v43H701z" stroke="#000" stroke-width="2" fill="#ffeca9"/><g><use xlink:href="#P" transform="matrix(1,0,0,1,706,25.000000000000004) translate(88.03059895833333 24.741319444444443)"/></g><path d="M981 20h240v43H981z" stroke="#000" stroke-width="2" fill="#ffbbb1"/><g><use xlink:href="#Q" transform="matrix(1,0,0,1,986,25.000000000000004) translate(92.11046006944444 24.741319444444443)"/></g><path d="M1341 20h240v43h-240z" stroke="#000" stroke-width="2" fill="#b2d6ef"/><g><use xlink:href="#R" transform="matrix(1,0,0,1,1346,25.000000000000004) translate(57.903645833333336 24.741319444444443)"/></g><path d="M321.5 281.6H181" stroke="#000" stroke-width="2" fill="none"/><path d="M336.76 281.6l-14.26 4.62v-9.27z" stroke="#000" stroke-width="2"/><path d="M181.03 281.6H180" stroke="#000" stroke-width="2" fill="none"/><path d="M182 625.26h-4V51.52h4z"/><path/><path d="M180 641.53l-4.64-14.27h9.28z"/><path d="M180 648l-7.4-22.74h14.8zm-1.88-18.74l1.88 5.8 1.88-5.8z"/><g><use xlink:href="#S" transform="matrix(1,0,0,1,74.86328125,568.2994791666666) translate(45.361562500000005 16.69921875)"/><use xlink:href="#T" transform="matrix(1,0,0,1,74.86328125,568.2994791666666) translate(49.817617187500005 16.69921875)"/><use xlink:href="#U" transform="matrix(1,0,0,1,74.86328125,568.2994791666666) translate(0.010000000000005116 48.33984375)"/><use xlink:href="#V" transform="matrix(1,0,0,1,74.86328125,568.2994791666666) translate(39.174062500000005 48.33984375)"/></g><g><use xlink:href="#W" transform="matrix(1,0,0,1,30.548828124999986,260.2994791666667) translate(60.56664062499999 16.69921875)"/><use xlink:href="#X" transform="matrix(1,0,0,1,30.548828124999986,260.2994791666667) translate(0.009999999999990905 48.33984375)"/><use xlink:href="#Y" transform="matrix(1,0,0,1,30.548828124999986,260.2994791666667) translate(62.43871093749999 48.33984375)"/></g><g><use xlink:href="#Z" transform="matrix(1,0,0,1,19.7646484375,102.652614480198) translate(0.009999999999990905 16.69921875)"/><use xlink:href="#aa" transform="matrix(1,0,0,1,19.7646484375,102.652614480198) translate(63.74828124999999 48.33984375)"/></g><g><use xlink:href="#ab" transform="matrix(1,0,0,1,109.98589409722221,25.479166666666668) translate(0.009999999999990905 20.616319444444443)"/><use xlink:href="#ac" transform="matrix(1,0,0,1,109.98589409722221,25.479166666666668) translate(84.99263888888889 20.616319444444443)"/></g><g><use xlink:href="#ad" transform="matrix(1,0,0,1,31.770507812499986,376.29947916666663) translate(94.50121093749999 16.69921875)"/><use xlink:href="#ae" transform="matrix(1,0,0,1,31.770507812499986,376.29947916666663) translate(0.009999999999990905 48.33984375)"/><use xlink:href="#af" transform="matrix(1,0,0,1,31.770507812499986,376.29947916666663) translate(32.70531249999999 48.33984375)"/><use xlink:href="#V" transform="matrix(1,0,0,1,31.770507812499986,376.29947916666663) translate(82.26683593749999 48.33984375)"/></g><path d="M321.5 401.25H181" stroke="#000" stroke-width="2" fill="none"/><path d="M336.76 401.25l-14.26 4.64v-9.3z" stroke="#000" stroke-width="2"/><path d="M181.03 401.25H180M181 580h74c2.76 0 5-2.24 5-5V133c0-2.76-2.24-5-5-5h-74M181.03 580H180M181.03 128H180" stroke="#000" stroke-width="2" fill="none"/><defs><path d="M1248-1138c106 220 104 603 2 820-91 195-274 338-542 338C281 20 86-300 86-759c0-291 115-515 296-629 182-114 467-115 648 0 94 60 166 141 218 250zM940-344c111-153 110-617 0-765-57-77-133-119-234-119s-177 41-233 118c-64 88-83 240-83 415 0 149 27 264 82 346s133 123 236 123c101 0 176-40 232-118" id="ag"/><path d="M190-1174c-11-296 244-440 544-363l-3 224c-24-6-53-9-88-9-109 0-163 51-163 153v87h215v212H480V0H190v-870H29v-212h161v-92" id="ah"/><path d="M416 0H126v-1082h290V0zM271-1212c-92 0-162-61-162-150s68-149 162-149c93 0 162 60 162 149s-70 150-162 150" id="ai"/><path d="M355-556c-2 203 30 338 206 343 102 3 181-63 182-161h271C1001-128 821 17 566 20 242 24 66-212 66-554c0-320 184-548 498-548 262 0 451 167 450 423H743c-1-108-75-193-184-189-162 6-202 123-204 312" id="aj"/><path d="M552-1102c254-4 435 134 435 383v469c1 103 15 180 43 233V0H738c-13-26-23-58-29-97C639-19 548 20 436 20 238 20 64-113 68-304c5-258 212-357 496-357h133c11-137-29-227-160-227-90 0-156 45-156 131H92c15-231 213-342 460-345zM357-325c0 76 61 124 142 124 88 0 168-45 198-105v-186H589c-152 2-232 51-232 167" id="ak"/><path d="M416 0H126v-1536h290V0" id="al"/><g id="a"><use transform="matrix(0.0087890625,0,0,0.0087890625,0,0)" xlink:href="#ag"/><use transform="matrix(0.0087890625,0,0,0.0087890625,12.427734375,0)" xlink:href="#ah"/><use transform="matrix(0.0087890625,0,0,0.0087890625,18.87890625,0)" xlink:href="#ah"/><use transform="matrix(0.0087890625,0,0,0.0087890625,25.330078125,0)" xlink:href="#ai"/><use transform="matrix(0.0087890625,0,0,0.0087890625,30.1025390625,0)" xlink:href="#aj"/><use transform="matrix(0.0087890625,0,0,0.0087890625,39.4892578125,0)" xlink:href="#ai"/><use transform="matrix(0.0087890625,0,0,0.0087890625,44.26171875,0)" xlink:href="#ak"/><use transform="matrix(0.0087890625,0,0,0.0087890625,53.912109375,0)" xlink:href="#al"/></g><path d="M130 0v-1456h448c435 14 673 299 665 762-5 285-130 500-319 606C822-31 708 0 581 0H130zm809-685c9-311-79-526-361-528H430v972h145c252-2 356-181 364-444" id="am"/><path d="M579 20C257 20 58-214 66-551c8-331 182-551 511-551 324 0 514 231 514 572 0 319-198 550-512 550zm-2-888c-169 0-222 141-222 338 0 181 61 317 224 317 170 0 223-137 223-338 0-178-64-317-225-317" id="an"/><path d="M463 20c-241-1-359-147-359-393v-709h289v699c0 113 51 169 154 169 98 0 165-34 202-102v-766h290V0H767l-8-110C688-23 589 20 463 20" id="ao"/><path d="M741-689c-2-124-40-177-163-178-82 0-141 34-178 102V0H111v-1082h271l9 121c77-94 180-141 311-141 139 0 235 55 287 165 76-110 184-165 325-165 249 0 348 151 348 411V0h-290v-690c-2-123-39-176-163-177-87 0-147 41-180 124l1 743H741v-689" id="ap"/><path d="M1031-175C952-60 797 20 609 20 287 20 60-206 72-543c12-330 180-559 505-559 309 0 482 214 477 537v118H365c15 134 115 234 263 234 111 0 198-40 261-121zM770-644c5-139-62-226-194-224-130 1-191 97-208 224h402" id="aq"/><path d="M750-692c-1-124-48-174-173-175-81 0-142 35-183 104V0H105v-1082h272l9 125c77-97 181-145 311-145 244 0 342 151 342 403V0H750v-692" id="ar"/><path d="M457-330c2 83 25 111 111 112 32 0 60-2 85-7V-6c-57 17-115 26-175 26-203 0-310-102-310-307v-583H10v-212h158v-266h289v266h185v212H457v540" id="as"/><g id="b"><use transform="matrix(0.0087890625,0,0,0.0087890625,0,0)" xlink:href="#am"/><use transform="matrix(0.0087890625,0,0,0.0087890625,11.6982421875,0)" xlink:href="#an"/><use transform="matrix(0.0087890625,0,0,0.0087890625,21.8759765625,0)" xlink:href="#aj"/><use transform="matrix(0.0087890625,0,0,0.0087890625,31.2626953125,0)" xlink:href="#ao"/><use transform="matrix(0.0087890625,0,0,0.0087890625,41.3349609375,0)" xlink:href="#ap"/><use transform="matrix(0.0087890625,0,0,0.0087890625,56.91796875,0)" xlink:href="#aq"/><use transform="matrix(0.0087890625,0,0,0.0087890625,66.6474609375,0)" xlink:href="#ar"/><use transform="matrix(0.0087890625,0,0,0.0087890625,76.728515625,0)" xlink:href="#as"/><use transform="matrix(0.0087890625,0,0,0.0087890625,82.810546875,0)" xlink:href="#ak"/><use transform="matrix(0.0087890625,0,0,0.0087890625,92.4609375,0)" xlink:href="#as"/><use transform="matrix(0.0087890625,0,0,0.0087890625,98.54296875,0)" xlink:href="#ai"/><use transform="matrix(0.0087890625,0,0,0.0087890625,103.3154296875,0)" xlink:href="#an"/><use transform="matrix(0.0087890625,0,0,0.0087890625,113.4931640625,0)" xlink:href="#ar"/></g><path d="M442-501L326-380V0H141v-1536h185v929c135-169 291-317 436-475h225L566-630 1036 0H819" id="at"/><path d="M491 20c-241-1-355-148-355-398v-704h185v699c0 164 67 246 200 246 141 0 235-53 282-158v-787h185V0H812l-4-107C736-22 630 20 491 20" id="au"/><path d="M634-1102c292 0 422 254 422 573 0 298-143 547-420 549-137 0-242-48-317-145L310 0H140v-1536h185v573c75-93 178-139 309-139zm-44 965c207 0 281-175 281-413 0-224-79-395-283-395-122 0-210 57-263 170v468c57 113 145 170 265 170" id="av"/><path d="M599-131c141 0 220-65 285-146l113 88C906-50 770 20 589 20 281 21 93-214 93-545c0-223 93-397 233-485 74-48 154-72 240-72 300 2 449 218 445 537v77H278c0 197 129 357 321 357zm227-509c-3-180-88-310-260-310-170 0-264 140-282 310h542" id="aw"/><path d="M663-916c-163-27-288 18-338 148V0H140v-1082h180l3 125c61-97 147-145 258-145 36 0 63 5 82 14v172" id="ax"/><path d="M589-945c-131 0-219 81-264 174V0H140v-1082h175l6 136c83-104 191-156 324-156 229 0 346 129 346 387V0H806v-716c-2-153-65-229-217-229" id="ay"/><path d="M456 20C285 20 205-92 206-268v-671H9v-143h197v-262h185v262h202v143H391v671c-9 125 92 149 207 118V0c-49 13-96 20-142 20" id="az"/><path d="M538-131c121 0 232-49 232-156 0-50-20-88-56-117-73-60-334-92-420-143-92-55-162-110-162-238 0-190 192-317 400-317 223 0 414 129 413 338H759c0-108-110-186-227-186-119 0-215 53-215 159 0 45 18 78 53 101 76 52 331 90 416 139 98 57 169 115 169 251C955-92 760 20 538 20c-176 0-314-68-386-174-38-55-57-115-57-179h185c6 129 116 202 258 202" id="aA"/><path d="M258 11c-71 0-114-43-114-108 0-67 42-112 114-112s116 45 116 112c-1 65-45 108-116 108" id="aB"/><path d="M341 0H156v-1082h185V0zm-91-1264c-68 0-108-42-109-105 0-62 41-107 109-107s110 44 110 107-42 105-110 105" id="aC"/><path d="M584 20C278 26 81-227 91-551c10-320 175-545 491-551 308-5 503 247 494 573-9 322-175 543-492 549zm-2-970c-208 0-305 185-305 421 0 216 106 398 307 398 211 0 307-186 307-420 0-214-109-399-309-399" id="aD"/><g id="c"><use transform="matrix(0.0087890625,0,0,0.0087890625,0,0)" xlink:href="#at"/><use transform="matrix(0.0087890625,0,0,0.0087890625,9.123046875,0)" xlink:href="#au"/><use transform="matrix(0.0087890625,0,0,0.0087890625,19.0458984375,0)" xlink:href="#av"/><use transform="matrix(0.0087890625,0,0,0.0087890625,29.14453125,0)" xlink:href="#aw"/><use transform="matrix(0.0087890625,0,0,0.0087890625,38.6806640625,0)" xlink:href="#ax"/><use transform="matrix(0.0087890625,0,0,0.0087890625,44.771484375,0)" xlink:href="#ay"/><use transform="matrix(0.0087890625,0,0,0.0087890625,54.703125,0)" xlink:href="#aw"/><use transform="matrix(0.0087890625,0,0,0.0087890625,64.2392578125,0)" xlink:href="#az"/><use transform="matrix(0.0087890625,0,0,0.0087890625,70.119140625,0)" xlink:href="#aw"/><use transform="matrix(0.0087890625,0,0,0.0087890625,79.6552734375,0)" xlink:href="#aA"/><use transform="matrix(0.0087890625,0,0,0.0087890625,88.9365234375,0)" xlink:href="#aB"/><use transform="matrix(0.0087890625,0,0,0.0087890625,93.673828125,0)" xlink:href="#aC"/><use transform="matrix(0.0087890625,0,0,0.0087890625,98.0419921875,0)" xlink:href="#aD"/></g><path d="M1209-1016c0 219-100 334-260 407l315 595V0H942L669-533H430V0H130v-1456h541c318-3 538 141 538 440zm-300 24c-1-144-85-221-238-221H430v437h242c144 2 238-77 237-216" id="aE"/><path d="M529-185c94 0 168-33 168-114 0-35-18-63-53-83s-91-39-168-55C219-491 90-600 90-765c0-208 203-337 432-337 246 0 451 124 453 349H686c-2-91-62-143-165-143-86 0-151 41-153 117 0 32 16 57 46 77 63 43 257 69 335 100 151 60 229 153 229 291C978-13 554 93 282-28 162-81 60-190 56-344h274c5 106 86 159 199 159" id="aF"/><g id="d"><use transform="matrix(0.0087890625,0,0,0.0087890625,0,0)" xlink:href="#aE"/><use transform="matrix(0.0087890625,0,0,0.0087890625,11.4873046875,0)" xlink:href="#aq"/><use transform="matrix(0.0087890625,0,0,0.0087890625,21.216796875,0)" xlink:href="#al"/><use transform="matrix(0.0087890625,0,0,0.0087890625,25.9892578125,0)" xlink:href="#aq"/><use transform="matrix(0.0087890625,0,0,0.0087890625,35.71875,0)" xlink:href="#ak"/><use transform="matrix(0.0087890625,0,0,0.0087890625,45.369140625,0)" xlink:href="#aF"/><use transform="matrix(0.0087890625,0,0,0.0087890625,54.6240234375,0)" xlink:href="#aq"/></g><path d="M1314 0h-300L430-958V0H130v-1456h300l585 960v-960h299V0" id="aG"/><g id="e"><use transform="matrix(0.0087890625,0,0,0.0087890625,0,0)" xlink:href="#aG"/><use transform="matrix(0.0087890625,0,0,0.0087890625,12.708984375,0)" xlink:href="#an"/><use transform="matrix(0.0087890625,0,0,0.0087890625,22.88671875,0)" xlink:href="#as"/><use transform="matrix(0.0087890625,0,0,0.0087890625,28.96875,0)" xlink:href="#aq"/><use transform="matrix(0.0087890625,0,0,0.0087890625,38.6982421875,0)" xlink:href="#aF"/></g><path d="M1264-420l196-1036h299L1436 0h-302L897-974 660 0H358L35-1456h299L531-422l240-1034h254" id="aH"/><path d="M663-1102c295 0 423 246 423 571 0 313-131 551-421 551-117 0-211-45-281-135L371 0H111v-1536h289v551c67-78 154-117 263-117zm-71 889c164 0 209-139 205-339-3-189-44-315-207-315-92 0-155 38-190 113v427c35 76 99 114 192 114" id="aI"/><g id="f"><use transform="matrix(0.0087890625,0,0,0.0087890625,0,0)" xlink:href="#aH"/><use transform="matrix(0.0087890625,0,0,0.0087890625,15.46875,0)" xlink:href="#aq"/><use transform="matrix(0.0087890625,0,0,0.0087890625,25.1982421875,0)" xlink:href="#aI"/><use transform="matrix(0.0087890625,0,0,0.0087890625,35.33203125,0)" xlink:href="#aF"/><use transform="matrix(0.0087890625,0,0,0.0087890625,44.5869140625,0)" xlink:href="#ai"/><use transform="matrix(0.0087890625,0,0,0.0087890625,49.359375,0)" xlink:href="#as"/><use transform="matrix(0.0087890625,0,0,0.0087890625,55.44140625,0)" xlink:href="#aq"/></g><path d="M341 0H156v-1536h185V0" id="aJ"/><path d="M575-1476c247 0 432 154 429 400-2 161-97 271-213 327 135 56 245 179 247 356 3 257-200 413-463 413-265 0-466-156-463-413 2-176 108-302 243-357-115-56-207-166-209-326-4-246 181-400 429-400zm0 1345c168 0 278-101 278-266 0-161-118-276-280-276-163 0-276 113-276 276 0 167 108 266 278 266zm244-942c0-143-104-251-244-251-146 0-244 102-244 251 0 145 98 248 244 248s244-103 244-248" id="aK"/><g id="g"><use transform="matrix(0.0087890625,0,0,0.0087890625,0,0)" xlink:href="#ax"/><use transform="matrix(0.0087890625,0,0,0.0087890625,5.923828125,0)" xlink:href="#aw"/><use transform="matrix(0.0087890625,0,0,0.0087890625,15.4599609375,0)" xlink:href="#aJ"/><use transform="matrix(0.0087890625,0,0,0.0087890625,19.828125,0)" xlink:href="#ay"/><use transform="matrix(0.0087890625,0,0,0.0087890625,29.759765625,0)" xlink:href="#aD"/><use transform="matrix(0.0087890625,0,0,0.0087890625,40.025390625,0)" xlink:href="#az"/><use transform="matrix(0.0087890625,0,0,0.0087890625,45.9052734375,0)" xlink:href="#aw"/><use transform="matrix(0.0087890625,0,0,0.0087890625,55.44140625,0)" xlink:href="#aA"/><use transform="matrix(0.0087890625,0,0,0.0087890625,64.72265625,0)" xlink:href="#aB"/><use transform="matrix(0.0087890625,0,0,0.0087890625,69.4599609375,0)" xlink:href="#at"/><use transform="matrix(0.0087890625,0,0,0.0087890625,78.5830078125,0)" xlink:href="#aK"/><use transform="matrix(0.0087890625,0,0,0.0087890625,88.6904296875,0)" xlink:href="#aA"/><use transform="matrix(0.0087890625,0,0,0.0087890625,97.9716796875,0)" xlink:href="#aB"/><use transform="matrix(0.0087890625,0,0,0.0087890625,102.708984375,0)" xlink:href="#aC"/><use transform="matrix(0.0087890625,0,0,0.0087890625,107.0771484375,0)" xlink:href="#aD"/></g><path d="M663-1102c295 0 422 250 422 571 0 300-141 549-420 551-109 0-198-38-265-114v510H111v-1498h268l10 106c70-84 161-126 274-126zm133 550c0-175-53-315-209-315-91 0-153 35-187 104v443c35 71 98 107 189 107 138 0 207-113 207-339" id="aL"/><path d="M719-811c-143-24-279 1-319 103V0H111v-1082h273l8 129c74-124 180-175 331-136" id="aM"/><path d="M515-409l200-673h310L590 168c-66 202-236 321-472 250V199c127 7 198-15 230-107l34-89L3-1082h311" id="aN"/><g id="h"><use transform="matrix(0.0087890625,0,0,0.0087890625,0,0)" xlink:href="#aE"/><use transform="matrix(0.0087890625,0,0,0.0087890625,11.4873046875,0)" xlink:href="#aq"/><use transform="matrix(0.0087890625,0,0,0.0087890625,21.216796875,0)" xlink:href="#aL"/><use transform="matrix(0.0087890625,0,0,0.0087890625,31.3505859375,0)" xlink:href="#an"/><use transform="matrix(0.0087890625,0,0,0.0087890625,41.5283203125,0)" xlink:href="#aF"/><use transform="matrix(0.0087890625,0,0,0.0087890625,50.783203125,0)" xlink:href="#ai"/><use transform="matrix(0.0087890625,0,0,0.0087890625,55.5556640625,0)" xlink:href="#as"/><use transform="matrix(0.0087890625,0,0,0.0087890625,61.3740234375,0)" xlink:href="#an"/><use transform="matrix(0.0087890625,0,0,0.0087890625,71.5517578125,0)" xlink:href="#aM"/><use transform="matrix(0.0087890625,0,0,0.0087890625,78.275390625,0)" xlink:href="#aN"/></g><path d="M521 20C240 20 96-239 96-550c0-303 147-552 427-552 132 0 235 47 309 140l9-120h169V-26c4 277-183 454-459 452-165-1-334-81-400-187l96-111c79 98 176 147 291 147 180 1 288-109 286-290v-93C750-23 649 20 521 20zm48-965c-209 0-287 178-287 416 0 217 86 392 285 392 117 0 202-53 257-159v-494c-57-103-142-155-255-155" id="aO"/><path d="M177 125H18l608-1581h158" id="aP"/><g id="i"><use transform="matrix(0.0087890625,0,0,0.0087890625,0,0)" xlink:href="#aO"/><use transform="matrix(0.0087890625,0,0,0.0087890625,10.0986328125,0)" xlink:href="#aC"/><use transform="matrix(0.0087890625,0,0,0.0087890625,14.466796875,0)" xlink:href="#az"/><use transform="matrix(0.0087890625,0,0,0.0087890625,20.3466796875,0)" xlink:href="#aB"/><use transform="matrix(0.0087890625,0,0,0.0087890625,25.083984375,0)" xlink:href="#at"/><use transform="matrix(0.0087890625,0,0,0.0087890625,34.20703125,0)" xlink:href="#aK"/><use transform="matrix(0.0087890625,0,0,0.0087890625,44.314453125,0)" xlink:href="#aA"/><use transform="matrix(0.0087890625,0,0,0.0087890625,53.595703125,0)" xlink:href="#aB"/><use transform="matrix(0.0087890625,0,0,0.0087890625,58.3330078125,0)" xlink:href="#aC"/><use transform="matrix(0.0087890625,0,0,0.0087890625,62.701171875,0)" xlink:href="#aD"/><use transform="matrix(0.0087890625,0,0,0.0087890625,72.966796875,0)" xlink:href="#aP"/><use transform="matrix(0.0087890625,0,0,0.0087890625,80.384765625,0)" xlink:href="#at"/><use transform="matrix(0.0087890625,0,0,0.0087890625,89.5078125,0)" xlink:href="#au"/><use transform="matrix(0.0087890625,0,0,0.0087890625,99.4306640625,0)" xlink:href="#av"/><use transform="matrix(0.0087890625,0,0,0.0087890625,109.529296875,0)" xlink:href="#aw"/><use transform="matrix(0.0087890625,0,0,0.0087890625,119.0654296875,0)" xlink:href="#ax"/><use transform="matrix(0.0087890625,0,0,0.0087890625,125.15625,0)" xlink:href="#ay"/><use transform="matrix(0.0087890625,0,0,0.0087890625,135.087890625,0)" xlink:href="#aw"/><use transform="matrix(0.0087890625,0,0,0.0087890625,144.6240234375,0)" xlink:href="#az"/><use transform="matrix(0.0087890625,0,0,0.0087890625,150.50390625,0)" xlink:href="#aw"/><use transform="matrix(0.0087890625,0,0,0.0087890625,160.0400390625,0)" xlink:href="#aA"/></g><path d="M417-1456L893-268l476-1188h249V0h-192c-4-403 4-794 18-1179L966 0H819L342-1176c15 384 23 773 19 1176H169v-1456h248" id="aQ"/><path d="M561-1102c238-4 403 126 403 351v498c0 99 13 178 38 237V0H808c-11-21-19-59-26-114C696-25 593 20 474 20c-199 0-368-130-365-320 4-251 214-359 490-356h180v-85c-1-135-86-212-229-212-115 0-232 67-233 171H131c20-205 206-316 430-320zM294-326c0 117 90 185 207 185 122 0 239-75 278-162v-222H634c-227 0-340 66-340 199" id="aR"/><path d="M520 20C244 20 95-247 95-550c0-298 151-550 427-552 127 0 227 43 301 130v-564h185V0H838l-9-116C755-25 652 20 520 20zm48-965c-210 0-288 177-288 416 0 218 87 392 286 392 117 0 203-53 257-158v-497c-55-102-140-153-255-153" id="aS"/><path d="M1098-255l208-827h185L1176 0h-150L763-820 507 0H357L43-1082h184l213 810 252-810h149" id="aT"/><g id="j"><use transform="matrix(0.0087890625,0,0,0.0087890625,0,0)" xlink:href="#aQ"/><use transform="matrix(0.0087890625,0,0,0.0087890625,15.71484375,0)" xlink:href="#aR"/><use transform="matrix(0.0087890625,0,0,0.0087890625,25.505859375,0)" xlink:href="#ax"/><use transform="matrix(0.0087890625,0,0,0.0087890625,31.5966796875,0)" xlink:href="#at"/><use transform="matrix(0.0087890625,0,0,0.0087890625,40.5439453125,0)" xlink:href="#aS"/><use transform="matrix(0.0087890625,0,0,0.0087890625,50.6953125,0)" xlink:href="#aD"/><use transform="matrix(0.0087890625,0,0,0.0087890625,60.9609375,0)" xlink:href="#aT"/><use transform="matrix(0.0087890625,0,0,0.0087890625,74.4873046875,0)" xlink:href="#ay"/></g><path d="M512-137c164 0 267-115 267-285v-1034h193v1031c4 276-186 445-460 445C234 20 52-130 53-402h192c0 167 97 265 267 265" id="aU"/><path d="M631-137c179 0 314-70 314-231 0-71-25-127-75-166s-141-77-272-115c-165-47-285-106-360-175s-112-154-112-255c0-245 231-397 495-397 206 0 369 89 449 218 43 68 65 142 65 223H942c0-184-129-283-321-283-172 0-299 76-301 236 0 59 26 109 76 150s135 78 256 113c205 59 345 116 436 256 35 53 50 119 50 193-2 256-231 398-507 390C333 12 90-129 80-422h193c0 187 160 285 358 285" id="aV"/><path d="M703-1476c426 0 599 333 586 795-11 408-187 701-584 701-422 0-587-333-587-793 0-282 106-507 280-617 89-56 190-86 305-86zm2 1333c312 0 393-279 393-632 0-308-116-536-395-536-269 0-394 232-394 523v107c-4 298 123 538 396 538" id="aW"/><path d="M1288 0h-193L362-1122V0H169v-1456h193l735 1127v-1127h191V0" id="aX"/><g id="k"><use transform="matrix(0.0087890625,0,0,0.0087890625,0,0)" xlink:href="#aU"/><use transform="matrix(0.0087890625,0,0,0.0087890625,9.931640625,0)" xlink:href="#aV"/><use transform="matrix(0.0087890625,0,0,0.0087890625,20.6103515625,0)" xlink:href="#aW"/><use transform="matrix(0.0087890625,0,0,0.0087890625,32.9853515625,0)" xlink:href="#aX"/></g><path d="M1245-974c0 302-233 466-552 461H430V0H130v-1456h568c323 5 547 167 547 482zm-303 2c1-143-93-241-237-241H430v457h268c151 1 244-71 244-216" id="aY"/><g id="l"><use transform="matrix(0.0087890625,0,0,0.0087890625,0,0)" xlink:href="#aY"/><use transform="matrix(0.0087890625,0,0,0.0087890625,11.6103515625,0)" xlink:href="#ao"/><use transform="matrix(0.0087890625,0,0,0.0087890625,21.6826171875,0)" xlink:href="#al"/><use transform="matrix(0.0087890625,0,0,0.0087890625,26.455078125,0)" xlink:href="#al"/></g><path d="M489 20C202 20 66-232 66-551c0-308 139-551 425-551 116 0 208 44 277 133l19-113h254V416H751V-93C684-18 597 20 489 20zM355-530c-1 177 53 317 208 317 89 0 151-35 188-106v-447c-51-122-269-140-341-21-34 56-55 140-55 257" id="aZ"/><g id="m"><use transform="matrix(0.0087890625,0,0,0.0087890625,0,0)" xlink:href="#aE"/><use transform="matrix(0.0087890625,0,0,0.0087890625,11.4873046875,0)" xlink:href="#aq"/><use transform="matrix(0.0087890625,0,0,0.0087890625,21.216796875,0)" xlink:href="#aZ"/><use transform="matrix(0.0087890625,0,0,0.0087890625,31.3857421875,0)" xlink:href="#ao"/><use transform="matrix(0.0087890625,0,0,0.0087890625,41.4580078125,0)" xlink:href="#aq"/><use transform="matrix(0.0087890625,0,0,0.0087890625,51.1875,0)" xlink:href="#aF"/><use transform="matrix(0.0087890625,0,0,0.0087890625,60.4423828125,0)" xlink:href="#as"/></g><path d="M219-461c-21-16-60-130-80-185l52-25c18 40 27 81 54 114 14 17 33 28 46 45 47 64-21 110-72 51" id="ba"/><path d="M425-349c-21-29-38-57-93-57-32 0-86 11-128 77-31 49-32 79-32 107V1H99v-458h75l-2 88c45-108 209-131 286-49" id="bb"/><path d="M259-468c75 0 160 39 181 162 4 27 6 57 3 88H118c5 137 95 170 156 170 45 0 88-18 118-51l40 39c-39 47-99 70-164 70C144 10 49-71 49-223c0-167 101-245 210-245zM121-274h251c9-74-44-139-118-139-49 0-119 31-133 139" id="bc"/><path d="M85-665h202v607h134V0H79v-58h135v-549H85v-58" id="bd"/><path d="M366-269c2-83-14-137-109-139-42 0-94 12-131 51l-35-46c43-44 101-64 163-64 110 0 181 69 181 184V0h-68v-50C317-9 259 11 203 11 23 8-5-195 154-249c63-21 138-20 212-20zm3 55c-54 1-120-4-167 7-57 14-81 51-81 84 0 41 35 79 96 79 60 0 104-36 120-54 39-46 31-65 32-116" id="be"/><path d="M432-396l-42 63c-7 0-3-13-7-18-17-22-62-62-127-62-88-1-140 75-51 117 43 21 116 31 168 60 54 30 67 72 67 104 0 69-65 142-190 142-69 0-139-22-193-72l41-72c9 7 1 12 8 20 14 16 65 64 143 64 102 0 167-82 71-131-33-17-83-27-122-41-25-9-112-38-112-118 0-68 70-128 176-128 68 0 128 25 170 72" id="bf"/><path d="M71-348h360v67H71v-67" id="bg"/><path d="M274-405c-78 10-132 62-132 142V0H68v-457h74v81c34-51 89-92 151-92 88 0 139 91 139 191V0h-71v-275c9-55-27-138-87-130" id="bh"/><path d="M460-226c0 151-97 238-205 238C140 12 40-86 40-225c0-141 101-242 217-242 104 0 203 83 203 241zm-72 3c1-245-271-238-272-8-5 228 272 366 272 8" id="bi"/><path d="M298 9c-94 0-131-85-131-173 0-78 4-156 10-234H70l1-59h109l8-122 79-13c4 10-4 16-6 27-5 25-12 108-12 108h150v59H249c-9 66-12 213-6 267 6 55 43 73 77 73 28 0 63-12 102-41l22 57C405-14 352 9 298 9" id="bj"/><g id="o"><use transform="matrix(0.018,0,0,0.018,0,0)" xlink:href="#ba"/><use transform="matrix(0.018,0,0,0.018,9,0)" xlink:href="#ba"/><use transform="matrix(0.018,0,0,0.018,18,0)" xlink:href="#ba"/><use transform="matrix(0.018,0,0,0.018,26.999999999999996,0)" xlink:href="#bb"/><use transform="matrix(0.018,0,0,0.018,36,0)" xlink:href="#bc"/><use transform="matrix(0.018,0,0,0.018,45,0)" xlink:href="#bd"/><use transform="matrix(0.018,0,0,0.018,53.99999999999999,0)" xlink:href="#bc"/><use transform="matrix(0.018,0,0,0.018,63,0)" xlink:href="#be"/><use transform="matrix(0.018,0,0,0.018,72,0)" xlink:href="#bf"/><use transform="matrix(0.018,0,0,0.018,81,0)" xlink:href="#bc"/><use transform="matrix(0.018,0,0,0.018,90,0)" xlink:href="#bg"/><use transform="matrix(0.018,0,0,0.018,98.99999999999999,0)" xlink:href="#bh"/><use transform="matrix(0.018,0,0,0.018,107.99999999999999,0)" xlink:href="#bi"/><use transform="matrix(0.018,0,0,0.018,117.00000000000001,0)" xlink:href="#bj"/><use transform="matrix(0.018,0,0,0.018,126,0)" xlink:href="#bc"/></g><use transform="matrix(0.018,0,0,0.018,0,0)" xlink:href="#bg" id="p"/><path d="M252 11C136 11 50-82 50-215v-408h79c5 13-10 20-10 32v377c-10 92 55 166 134 166s134-75 134-169v-406h67v405c0 46-1 89-25 132-35 65-105 97-177 97" id="bk"/><g id="q"><use transform="matrix(0.018,0,0,0.018,0,0)" xlink:href="#bk"/><use transform="matrix(0.018,0,0,0.018,9,0)" xlink:href="#bf"/><use transform="matrix(0.018,0,0,0.018,18,0)" xlink:href="#bc"/><use transform="matrix(0.018,0,0,0.018,26.999999999999996,0)" xlink:href="#bb"/></g><path d="M162-475c-12-115 77-196 181-196 57 0 107 24 140 63l-33 66c-10 1-6-13-10-20-19-29-56-52-100-52-73 0-120 71-109 149v35h150v57H231V0h-69v-373H63v-57h99v-45" id="bl"/><path d="M457-381l-51 59c-8-6-3-15-7-23-3-5-40-60-118-60-84 0-151 65-151 169 0 107 68 182 157 182 46 0 90-21 121-56l42 49c-44 47-105 72-169 72C152 11 56-90 56-228c0-137 96-238 230-238 73 0 135 32 171 85" id="bm"/><path d="M106-457h183v399h107V0H100v-58h117v-341H106v-58zm149-199c29 0 51 23 51 51s-22 52-51 52-52-24-52-52 23-51 52-51" id="bn"/><path d="M126-314c0 55 45 100 101 100s100-45 100-100-44-101-100-101-101 46-101 101zm11 199c9 36 35 35 92 35 52 0 107-6 155 13 49 20 71 59 71 99 0 61-55 140-210 140C85 172 38 114 38 64c0-36 26-70 75-101-29-15-37-42-37-61 0-29 19-60 52-88-42-27-68-74-68-124 0-133 184-217 279-118 35-30 81-45 127-41l9 59c-41-6-74 2-106 20 77 121-53 276-200 223-4 4-32 28-32 52zm107 233c53 0 145-29 145-81 0-20-11-48-54-53s-135-1-174-8c-52 25-92 93-12 127 35 14 74 15 95 15" id="bo"/><g id="r"><use transform="matrix(0.018,0,0,0.018,0,0)" xlink:href="#bl"/><use transform="matrix(0.018,0,0,0.018,9,0)" xlink:href="#be"/><use transform="matrix(0.018,0,0,0.018,18,0)" xlink:href="#bm"/><use transform="matrix(0.018,0,0,0.018,26.999999999999996,0)" xlink:href="#bn"/><use transform="matrix(0.018,0,0,0.018,36,0)" xlink:href="#bh"/><use transform="matrix(0.018,0,0,0.018,45,0)" xlink:href="#bo"/></g><path d="M276-405c-78 10-133 62-133 142V0H70v-665h83c3 11-10 14-10 24v265c34-51 90-92 152-92 88 0 138 91 138 191V0h-71v-275c9-55-26-138-86-130" id="bp"/><g id="s"><use transform="matrix(0.018,0,0,0.018,0,0)" xlink:href="#bm"/><use transform="matrix(0.018,0,0,0.018,9,0)" xlink:href="#bp"/><use transform="matrix(0.018,0,0,0.018,18,0)" xlink:href="#be"/><use transform="matrix(0.018,0,0,0.018,26.999999999999996,0)" xlink:href="#bh"/><use transform="matrix(0.018,0,0,0.018,36,0)" xlink:href="#bo"/><use transform="matrix(0.018,0,0,0.018,45,0)" xlink:href="#bc"/></g><g id="t"><use transform="matrix(0.018,0,0,0.018,0,0)" xlink:href="#ba"/><use transform="matrix(0.018,0,0,0.018,9,0)" xlink:href="#ba"/><use transform="matrix(0.018,0,0,0.018,18,0)" xlink:href="#ba"/></g><path d="M586-584L430-416V0H130v-1456h300v660c161-226 335-440 503-660h369L785-809 1317 0H960" id="bq"/><g id="u"><use transform="matrix(0.008680555555555556,0,0,0.008680555555555556,0,0)" xlink:href="#bq"/><use transform="matrix(0.008680555555555556,0,0,0.008680555555555556,11.085069444444445,0)" xlink:href="#ao"/><use transform="matrix(0.008680555555555556,0,0,0.008680555555555556,21.032986111111114,0)" xlink:href="#aI"/><use transform="matrix(0.008680555555555556,0,0,0.008680555555555556,31.04166666666667,0)" xlink:href="#aq"/><use transform="matrix(0.008680555555555556,0,0,0.008680555555555556,40.65104166666667,0)" xlink:href="#aM"/><use transform="matrix(0.008680555555555556,0,0,0.008680555555555556,47.13541666666667,0)" xlink:href="#ar"/><use transform="matrix(0.008680555555555556,0,0,0.008680555555555556,57.09201388888889,0)" xlink:href="#aq"/><use transform="matrix(0.008680555555555556,0,0,0.008680555555555556,66.70138888888889,0)" xlink:href="#as"/><use transform="matrix(0.008680555555555556,0,0,0.008680555555555556,72.70833333333331,0)" xlink:href="#aq"/><use transform="matrix(0.008680555555555556,0,0,0.008680555555555556,82.31770833333331,0)" xlink:href="#aF"/></g><g id="v"><use transform="matrix(0.008680555555555556,0,0,0.008680555555555556,0,0)" xlink:href="#aE"/><use transform="matrix(0.008680555555555556,0,0,0.008680555555555556,11.345486111111112,0)" xlink:href="#aq"/><use transform="matrix(0.008680555555555556,0,0,0.008680555555555556,20.954861111111114,0)" xlink:href="#al"/><use transform="matrix(0.008680555555555556,0,0,0.008680555555555556,25.668402777777782,0)" xlink:href="#aq"/><use transform="matrix(0.008680555555555556,0,0,0.008680555555555556,35.277777777777786,0)" xlink:href="#ak"/><use transform="matrix(0.008680555555555556,0,0,0.008680555555555556,44.809027777777786,0)" xlink:href="#aF"/><use transform="matrix(0.008680555555555556,0,0,0.008680555555555556,53.949652777777786,0)" xlink:href="#aq"/></g><path d="M1226-1213H780V0H480v-1213H40v-243h1186v243" id="br"/><path d="M523-759l182-323h309L706-552 1027 0H717L524-340 332 0H21l321-552-307-530h310" id="bs"/><g id="w"><use transform="matrix(0.008680555555555556,0,0,0.008680555555555556,0,0)" xlink:href="#br"/><use transform="matrix(0.008680555555555556,0,0,0.008680555555555556,9.192708333333334,0)" xlink:href="#an"/><use transform="matrix(0.008680555555555556,0,0,0.008680555555555556,19.244791666666668,0)" xlink:href="#an"/><use transform="matrix(0.008680555555555556,0,0,0.008680555555555556,29.296875,0)" xlink:href="#al"/><use transform="matrix(0.008680555555555556,0,0,0.008680555555555556,34.010416666666664,0)" xlink:href="#aI"/><use transform="matrix(0.008680555555555556,0,0,0.008680555555555556,44.01909722222222,0)" xlink:href="#an"/><use transform="matrix(0.008680555555555556,0,0,0.008680555555555556,53.88888888888889,0)" xlink:href="#bs"/></g><path d="M914 0L548-499l-132 98V0H236v-1484h180v927l475-525h211L663-617 1125 0H914" id="bt"/><path d="M839-1102c70 0 148 7 206 17v167c-112-18-268-36-363 15-129 69-208 203-208 395V0H294c-10-367 32-789-52-1082h171c21 75 41 161 48 250h5c67-152 152-270 373-270" id="bu"/><path d="M617-1102c355 0 481 238 477 599H322c5 222 84 388 301 388 144 0 244-59 284-166l158 45C1002-72 854 20 623 20c-342 0-490-220-490-568 0-346 151-554 484-554zm291 461c-18-192-90-328-289-328-194 0-287 128-295 328h584" id="bv"/><path d="M736-142h380V0H134v-142h422v-1200H267v-142h469v1342" id="bw"/><g id="x"><use transform="matrix(0.0087890625,0,0,0.0087890625,0,0)" xlink:href="#bt"/><use transform="matrix(0.0087890625,0,0,0.0087890625,10.8017578125,0)" xlink:href="#bu"/><use transform="matrix(0.0087890625,0,0,0.0087890625,21.603515625,0)" xlink:href="#bv"/><use transform="matrix(0.0087890625,0,0,0.0087890625,32.4052734375,0)" xlink:href="#bw"/></g><path d="M1000-272c3 95 12 159 101 161 21 0 41-3 59-7V-6c-44 10-86 16-139 16-141 2-191-84-197-217h-6C748-76 648 20 446 20c-207 0-318-120-318-322 0-266 194-348 454-354l236-4c12-191-40-305-222-305-140 0-220 47-232 172l-188-17c33-204 181-292 423-292 255 0 401 118 401 364v466zm-683-27c0 109 63 184 175 182 166-3 259-96 306-217 24-65 20-120 20-200-232 7-501-28-501 235" id="bx"/><path d="M873-819c-18-114-119-146-250-146-163 0-245 50-245 151 0 151 170 148 294 185 182 54 388 94 388 320 0 240-189 325-439 329-245 4-410-69-454-268l159-31c24 133 136 168 295 165 144-2 270-31 270-171 0-164-195-160-331-202-167-52-350-87-350-299 0-218 173-315 413-313 220 2 373 77 412 260" id="by"/><path d="M334-464v-160h560v160H334" id="bz"/><path d="M706-1102c241 0 344 136 343 381V0H868v-695c1-168-57-273-220-268-190 6-283 138-283 336V0H185c-3-360 6-732-6-1082h170c4 54 7 126 8 185h3c63-121 164-204 346-205" id="bA"/><path d="M615-1102c343 0 484 203 482 560-1 347-147 562-488 562-336 0-475-219-479-562-4-349 156-560 485-560zm-8 989c240 0 301-180 301-429 0-245-55-427-290-427-236 0-299 181-299 427 0 243 61 429 288 429" id="bB"/><path d="M682 16c-209 0-323-80-324-285v-671H190v-142h170l58-282h120v282h432v142H538v652c2 114 60 155 182 155 106 0 209-16 297-34v137C921-4 806 16 682 16" id="bC"/><g id="y"><use transform="matrix(0.0087890625,0,0,0.0087890625,0,0)" xlink:href="#bu"/><use transform="matrix(0.0087890625,0,0,0.0087890625,10.8017578125,0)" xlink:href="#bv"/><use transform="matrix(0.0087890625,0,0,0.0087890625,21.603515625,0)" xlink:href="#bw"/><use transform="matrix(0.0087890625,0,0,0.0087890625,32.4052734375,0)" xlink:href="#bv"/><use transform="matrix(0.0087890625,0,0,0.0087890625,43.20703125,0)" xlink:href="#bx"/><use transform="matrix(0.0087890625,0,0,0.0087890625,54.0087890625,0)" xlink:href="#by"/><use transform="matrix(0.0087890625,0,0,0.0087890625,64.810546875,0)" xlink:href="#bv"/><use transform="matrix(0.0087890625,0,0,0.0087890625,75.6123046875,0)" xlink:href="#bz"/><use transform="matrix(0.0087890625,0,0,0.0087890625,86.4140625,0)" xlink:href="#bA"/><use transform="matrix(0.0087890625,0,0,0.0087890625,97.2158203125,0)" xlink:href="#bB"/><use transform="matrix(0.0087890625,0,0,0.0087890625,108.017578125,0)" xlink:href="#bC"/><use transform="matrix(0.0087890625,0,0,0.0087890625,118.8193359375,0)" xlink:href="#bv"/><use transform="matrix(0.0087890625,0,0,0.0087890625,129.62109375,0)" xlink:href="#by"/></g><path d="M631 20c-350 0-501-215-501-562 0-355 162-560 502-560 250 0 399 118 446 323l-192 14c-23-124-109-196-262-196-242 0-305 171-305 415 1 245 61 427 304 427 151 0 248-77 267-215l190 12C1039-107 883 20 631 20" id="bD"/><path d="M648-963c-190 6-283 138-283 336V0H185v-1484h181c-2 197 6 404-9 587h3c62-120 159-205 339-205 242 0 351 135 350 381V0H868v-695c1-168-57-273-220-268" id="bE"/><path d="M1048-32c-2 300-135 456-433 456-222-1-358-88-400-267l184-25c22 99 100 157 222 156 184-2 248-125 248-315 0-64 3-133-2-194C807-100 706-13 524-12c-306 0-381-228-381-537 0-318 85-550 400-550 164 0 271 83 325 202h3c1-60 3-134 12-185h171c-13 339-4 702-6 1050zM585-145c210-8 284-178 284-406 0-192-52-331-177-392-33-16-69-22-104-22-223 2-259 184-259 414 0 229 31 415 256 406" id="bF"/><g id="z"><use transform="matrix(0.0087890625,0,0,0.0087890625,0,0)" xlink:href="#bD"/><use transform="matrix(0.0087890625,0,0,0.0087890625,10.8017578125,0)" xlink:href="#bE"/><use transform="matrix(0.0087890625,0,0,0.0087890625,21.603515625,0)" xlink:href="#bx"/><use transform="matrix(0.0087890625,0,0,0.0087890625,32.4052734375,0)" xlink:href="#bA"/><use transform="matrix(0.0087890625,0,0,0.0087890625,43.20703125,0)" xlink:href="#bF"/><use transform="matrix(0.0087890625,0,0,0.0087890625,54.0087890625,0)" xlink:href="#bv"/><use transform="matrix(0.0087890625,0,0,0.0087890625,64.810546875,0)" xlink:href="#bw"/><use transform="matrix(0.0087890625,0,0,0.0087890625,75.6123046875,0)" xlink:href="#bB"/><use transform="matrix(0.0087890625,0,0,0.0087890625,86.4140625,0)" xlink:href="#bF"/></g><path d="M865-914c-3-187-2-380-2-570h180v1261c0 76 1 155 6 223H877c-8-49-9-116-10-174h-5C801-44 708 26 530 26c-135 0-234-46-297-139s-95-232-95-419c0-377 131-566 392-566 176 0 271 63 335 184zm-286-51c-222 0-255 197-255 427 0 229 31 425 253 425 237 0 286-195 286-441 0-238-52-411-284-411" id="bG"/><g id="A"><use transform="matrix(0.0087890625,0,0,0.0087890625,0,0)" xlink:href="#bG"/><use transform="matrix(0.0087890625,0,0,0.0087890625,10.8017578125,0)" xlink:href="#bB"/><use transform="matrix(0.0087890625,0,0,0.0087890625,21.603515625,0)" xlink:href="#bD"/><use transform="matrix(0.0087890625,0,0,0.0087890625,32.4052734375,0)" xlink:href="#by"/></g><path d="M658-217c127 0 227-49 227-165 0-57-21-98-60-130-79-64-370-142-463-196-162-95-248-210-248-361 0-280 246-403 537-407 213-3 383 84 467 216 45 69 68 147 68 234H886c0-139-96-211-240-211-129 0-232 55-232 169 0 47 24 87 72 119s117 62 210 90c171 51 295 115 373 191s117 171 117 284c-2 272-237 411-528 404C331 13 78-135 69-458h301c0 161 96 241 288 241" id="bH"/><path d="M449 0H149v-1456h300V0" id="bI"/><path d="M399-777c-11 316 60 556 342 556 113 0 193-24 241-72v-251H709v-221h573v581C1177-55 960 24 725 20 280 12 81-292 94-770c11-421 200-700 610-706 347-5 543 171 578 483H990c-25-157-105-241-277-241-102 0-180 38-233 115s-76 191-81 342" id="bJ"/><g id="B"><use transform="matrix(0.0087890625,0,0,0.0087890625,0,0)" xlink:href="#bH"/><use transform="matrix(0.0087890625,0,0,0.0087890625,11.0654296875,0)" xlink:href="#bI"/><use transform="matrix(0.0087890625,0,0,0.0087890625,16.3125,0)" xlink:href="#bJ"/></g><g id="C"><use transform="matrix(0.0087890625,0,0,0.0087890625,0,0)" xlink:href="#aE"/><use transform="matrix(0.0087890625,0,0,0.0087890625,11.4873046875,0)" xlink:href="#aq"/><use transform="matrix(0.0087890625,0,0,0.0087890625,21.216796875,0)" xlink:href="#al"/><use transform="matrix(0.0087890625,0,0,0.0087890625,25.9892578125,0)" xlink:href="#aq"/><use transform="matrix(0.0087890625,0,0,0.0087890625,35.71875,0)" xlink:href="#ak"/><use transform="matrix(0.0087890625,0,0,0.0087890625,45.369140625,0)" xlink:href="#aF"/><use transform="matrix(0.0087890625,0,0,0.0087890625,54.6240234375,0)" xlink:href="#aq"/></g><path d="M525-543H37v-151h488v151" id="bK"/><g id="D"><use transform="matrix(0.0087890625,0,0,0.0087890625,0,0)" xlink:href="#aO"/><use transform="matrix(0.0087890625,0,0,0.0087890625,10.0986328125,0)" xlink:href="#aC"/><use transform="matrix(0.0087890625,0,0,0.0087890625,14.466796875,0)" xlink:href="#az"/><use transform="matrix(0.0087890625,0,0,0.0087890625,20.3466796875,0)" xlink:href="#aB"/><use transform="matrix(0.0087890625,0,0,0.0087890625,25.083984375,0)" xlink:href="#at"/><use transform="matrix(0.0087890625,0,0,0.0087890625,34.20703125,0)" xlink:href="#aK"/><use transform="matrix(0.0087890625,0,0,0.0087890625,44.314453125,0)" xlink:href="#aA"/><use transform="matrix(0.0087890625,0,0,0.0087890625,53.595703125,0)" xlink:href="#aB"/><use transform="matrix(0.0087890625,0,0,0.0087890625,58.3330078125,0)" xlink:href="#aC"/><use transform="matrix(0.0087890625,0,0,0.0087890625,62.701171875,0)" xlink:href="#aD"/><use transform="matrix(0.0087890625,0,0,0.0087890625,72.966796875,0)" xlink:href="#aP"/><use transform="matrix(0.0087890625,0,0,0.0087890625,80.384765625,0)" xlink:href="#aA"/><use transform="matrix(0.0087890625,0,0,0.0087890625,89.666015625,0)" xlink:href="#aC"/><use transform="matrix(0.0087890625,0,0,0.0087890625,94.0341796875,0)" xlink:href="#aO"/><use transform="matrix(0.0087890625,0,0,0.0087890625,104.1328125,0)" xlink:href="#bK"/><use transform="matrix(0.0087890625,0,0,0.0087890625,109.0986328125,0)" xlink:href="#ax"/><use transform="matrix(0.0087890625,0,0,0.0087890625,115.0224609375,0)" xlink:href="#aw"/><use transform="matrix(0.0087890625,0,0,0.0087890625,124.55859375,0)" xlink:href="#aJ"/><use transform="matrix(0.0087890625,0,0,0.0087890625,128.9267578125,0)" xlink:href="#aw"/><use transform="matrix(0.0087890625,0,0,0.0087890625,138.462890625,0)" xlink:href="#aR"/><use transform="matrix(0.0087890625,0,0,0.0087890625,148.25390625,0)" xlink:href="#aA"/><use transform="matrix(0.0087890625,0,0,0.0087890625,157.53515625,0)" xlink:href="#aw"/></g><path d="M1222-777c17 480-206 763-650 777H169v-1456h411c408 9 627 269 642 679zm-190 4c3-312-149-522-447-525H361v1141h202c308 0 473-209 469-531v-85" id="bL"/><path d="M277-555c0 244 77 420 297 424 127 2 249-93 255-210h175C980-127 805 20 574 20 258 20 81-222 92-562c11-319 164-533 481-540 237-5 426 165 431 392H829c-7-133-115-242-256-240-209 4-296 166-296 395" id="bM"/><g id="E"><use transform="matrix(0.0087890625,0,0,0.0087890625,0,0)" xlink:href="#bL"/><use transform="matrix(0.0087890625,0,0,0.0087890625,11.8037109375,0)" xlink:href="#aD"/><use transform="matrix(0.0087890625,0,0,0.0087890625,22.0693359375,0)" xlink:href="#bM"/><use transform="matrix(0.0087890625,0,0,0.0087890625,31.4912109375,0)" xlink:href="#aA"/></g><path d="M1175-1298H707V0H516v-1298H49v-158h1126v158" id="bN"/><path d="M1240-945c-141 0-250 95-250 227V0H804v-709c0-157-77-236-231-236-121 0-204 52-249 155V0H139v-1082h175l5 120c79-93 186-140 321-140 151 0 254 58 309 174 69-98 181-174 345-174 237 0 362 126 362 377V0h-185v-714c-2-159-67-231-231-231" id="bO"/><g id="F"><use transform="matrix(0.0087890625,0,0,0.0087890625,0,0)" xlink:href="#bN"/><use transform="matrix(0.0087890625,0,0,0.0087890625,9.8701171875,0)" xlink:href="#aw"/><use transform="matrix(0.0087890625,0,0,0.0087890625,19.40625,0)" xlink:href="#aR"/><use transform="matrix(0.0087890625,0,0,0.0087890625,29.197265625,0)" xlink:href="#bO"/></g><g id="G"><use transform="matrix(0.0087890625,0,0,0.0087890625,0,0)" xlink:href="#aE"/><use transform="matrix(0.0087890625,0,0,0.0087890625,11.4873046875,0)" xlink:href="#aq"/><use transform="matrix(0.0087890625,0,0,0.0087890625,21.216796875,0)" xlink:href="#al"/><use transform="matrix(0.0087890625,0,0,0.0087890625,25.9892578125,0)" xlink:href="#aq"/><use transform="matrix(0.0087890625,0,0,0.0087890625,35.71875,0)" xlink:href="#ak"/><use transform="matrix(0.0087890625,0,0,0.0087890625,45.369140625,0)" xlink:href="#aF"/><use transform="matrix(0.0087890625,0,0,0.0087890625,54.6240234375,0)" xlink:href="#aq"/></g><path d="M369-598c0 393 97 738 310 900l-56 153c-200-92-361-334-433-572-84-277-87-628-5-911 71-244 234-495 438-588l56 156c-205 153-310 488-310 862" id="bP"/><path d="M1006-631H430v390h676V0H130v-1456h974v243H430v347h576v235" id="bQ"/><path d="M505 20C221 18 69-239 69-549c0-302 153-553 438-553 119 0 211 41 277 122l12-102h262V-36c-8 305-208 458-520 462-160 1-335-76-403-170L263 80c72 81 159 121 262 121 172 1 260-107 243-294C701-18 614 20 505 20zm76-887c-165 0-223 147-223 339 0 172 66 314 221 314 88 0 151-33 189-99v-455c-39-66-101-99-187-99" id="bR"/><path d="M349-541c6-400-96-755-309-922l56-153c203 91 368 336 444 575 89 280 91 621 4 907-74 244-242 497-448 589L40 302c199-150 304-484 309-843" id="bS"/><g id="H"><use transform="matrix(0.0087890625,0,0,0.0087890625,0,0)" xlink:href="#bP"/><use transform="matrix(0.0087890625,0,0,0.0087890625,6.3193359375,0)" xlink:href="#bQ"/><use transform="matrix(0.0087890625,0,0,0.0087890625,16.4443359375,0)" xlink:href="#ar"/><use transform="matrix(0.0087890625,0,0,0.0087890625,26.525390625,0)" xlink:href="#bR"/><use transform="matrix(0.0087890625,0,0,0.0087890625,36.7998046875,0)" xlink:href="#ai"/><use transform="matrix(0.0087890625,0,0,0.0087890625,41.572265625,0)" xlink:href="#ar"/><use transform="matrix(0.0087890625,0,0,0.0087890625,51.6533203125,0)" xlink:href="#aq"/><use transform="matrix(0.0087890625,0,0,0.0087890625,61.3828125,0)" xlink:href="#aq"/><use transform="matrix(0.0087890625,0,0,0.0087890625,71.1123046875,0)" xlink:href="#aM"/><use transform="matrix(0.0087890625,0,0,0.0087890625,77.677734375,0)" xlink:href="#ai"/><use transform="matrix(0.0087890625,0,0,0.0087890625,82.4501953125,0)" xlink:href="#ar"/><use transform="matrix(0.0087890625,0,0,0.0087890625,92.53125,0)" xlink:href="#bR"/><use transform="matrix(0.0087890625,0,0,0.0087890625,102.8056640625,0)" xlink:href="#bS"/></g><path d="M1160-420C1159-145 963 0 674 0H169v-1456h476c294-1 476 112 476 388 0 153-99 253-216 302 146 38 255 167 255 346zM678-157c171 2 289-95 289-261 0-175-95-263-286-263H361v524h317zm250-912c-2-172-104-229-283-229H361v463h290c157 3 278-84 277-234" id="bT"/><path d="M589-945c-131 0-219 81-264 174V0H140v-1536h185v585c82-101 189-151 320-151 229 0 346 129 346 387V0H806v-716c-2-153-65-229-217-229" id="bU"/><g id="I"><use transform="matrix(0.0087890625,0,0,0.0087890625,0,0)" xlink:href="#bT"/><use transform="matrix(0.0087890625,0,0,0.0087890625,11.2060546875,0)" xlink:href="#ax"/><use transform="matrix(0.0087890625,0,0,0.0087890625,16.9453125,0)" xlink:href="#aR"/><use transform="matrix(0.0087890625,0,0,0.0087890625,26.736328125,0)" xlink:href="#ay"/><use transform="matrix(0.0087890625,0,0,0.0087890625,36.66796875,0)" xlink:href="#bM"/><use transform="matrix(0.0087890625,0,0,0.0087890625,46.08984375,0)" xlink:href="#bU"/></g><g id="J"><use transform="matrix(0.0087890625,0,0,0.0087890625,0,0)" xlink:href="#aQ"/><use transform="matrix(0.0087890625,0,0,0.0087890625,15.71484375,0)" xlink:href="#aR"/><use transform="matrix(0.0087890625,0,0,0.0087890625,25.505859375,0)" xlink:href="#ay"/><use transform="matrix(0.0087890625,0,0,0.0087890625,35.4375,0)" xlink:href="#aR"/><use transform="matrix(0.0087890625,0,0,0.0087890625,45.228515625,0)" xlink:href="#aO"/><use transform="matrix(0.0087890625,0,0,0.0087890625,55.3271484375,0)" xlink:href="#aw"/><use transform="matrix(0.0087890625,0,0,0.0087890625,64.86328125,0)" xlink:href="#bO"/><use transform="matrix(0.0087890625,0,0,0.0087890625,80.6396484375,0)" xlink:href="#aw"/><use transform="matrix(0.0087890625,0,0,0.0087890625,90.17578125,0)" xlink:href="#ay"/><use transform="matrix(0.0087890625,0,0,0.0087890625,100.107421875,0)" xlink:href="#az"/></g><g id="K"><use transform="matrix(0.0087890625,0,0,0.0087890625,0,0)" xlink:href="#aE"/><use transform="matrix(0.0087890625,0,0,0.0087890625,11.4873046875,0)" xlink:href="#aq"/><use transform="matrix(0.0087890625,0,0,0.0087890625,21.216796875,0)" xlink:href="#al"/><use transform="matrix(0.0087890625,0,0,0.0087890625,25.9892578125,0)" xlink:href="#aq"/><use transform="matrix(0.0087890625,0,0,0.0087890625,35.71875,0)" xlink:href="#ak"/><use transform="matrix(0.0087890625,0,0,0.0087890625,45.369140625,0)" xlink:href="#aF"/><use transform="matrix(0.0087890625,0,0,0.0087890625,54.6240234375,0)" xlink:href="#aq"/></g><path d="M1161-1018c0 201-122 330-278 388l342 618V0h-206L703-589H361V0H168v-1456h482c310-2 511 139 511 438zm-193 0c0-187-120-280-313-280H361v552h295c179 3 313-101 312-272" id="bV"/><g id="L"><use transform="matrix(0.0087890625,0,0,0.0087890625,0,0)" xlink:href="#bV"/><use transform="matrix(0.0087890625,0,0,0.0087890625,11.0830078125,0)" xlink:href="#aw"/><use transform="matrix(0.0087890625,0,0,0.0087890625,20.619140625,0)" xlink:href="#aJ"/><use transform="matrix(0.0087890625,0,0,0.0087890625,24.9873046875,0)" xlink:href="#aw"/><use transform="matrix(0.0087890625,0,0,0.0087890625,34.5234375,0)" xlink:href="#aR"/><use transform="matrix(0.0087890625,0,0,0.0087890625,44.314453125,0)" xlink:href="#aA"/><use transform="matrix(0.0087890625,0,0,0.0087890625,53.595703125,0)" xlink:href="#aw"/></g><g id="M"><use transform="matrix(0.0087890625,0,0,0.0087890625,0,0)" xlink:href="#aX"/><use transform="matrix(0.0087890625,0,0,0.0087890625,12.83203125,0)" xlink:href="#aD"/><use transform="matrix(0.0087890625,0,0,0.0087890625,23.09765625,0)" xlink:href="#az"/><use transform="matrix(0.0087890625,0,0,0.0087890625,28.9775390625,0)" xlink:href="#aw"/><use transform="matrix(0.0087890625,0,0,0.0087890625,38.513671875,0)" xlink:href="#aA"/></g><g id="N"><use transform="matrix(0.0087890625,0,0,0.0087890625,0,0)" xlink:href="#aR"/><use transform="matrix(0.0087890625,0,0,0.0087890625,9.791015625,0)" xlink:href="#ay"/><use transform="matrix(0.0087890625,0,0,0.0087890625,19.72265625,0)" xlink:href="#aR"/><use transform="matrix(0.0087890625,0,0,0.0087890625,29.513671875,0)" xlink:href="#aO"/><use transform="matrix(0.0087890625,0,0,0.0087890625,39.6123046875,0)" xlink:href="#aD"/></g><g id="O"><use transform="matrix(0.010850694444444444,0,0,0.010850694444444444,0,0)" xlink:href="#aY"/><use transform="matrix(0.010850694444444444,0,0,0.010850694444444444,14.214409722222221,0)" xlink:href="#ak"/><use transform="matrix(0.010850694444444444,0,0,0.010850694444444444,26.12847222222222,0)" xlink:href="#aM"/><use transform="matrix(0.010850694444444444,0,0,0.010850694444444444,34.77647569444444,0)" xlink:href="#as"/><use transform="matrix(0.010850694444444444,0,0,0.010850694444444444,42.28515625,0)" xlink:href="#ai"/><use transform="matrix(0.010850694444444444,0,0,0.010850694444444444,48.17708333333333,0)" xlink:href="#aj"/><use transform="matrix(0.010850694444444444,0,0,0.010850694444444444,59.765625,0)" xlink:href="#ai"/><use transform="matrix(0.010850694444444444,0,0,0.010850694444444444,65.65755208333333,0)" xlink:href="#aL"/><use transform="matrix(0.010850694444444444,0,0,0.010850694444444444,78.16840277777777,0)" xlink:href="#ak"/><use transform="matrix(0.010850694444444444,0,0,0.010850694444444444,90.08246527777777,0)" xlink:href="#ar"/><use transform="matrix(0.010850694444444444,0,0,0.010850694444444444,102.52821180555556,0)" xlink:href="#as"/><use transform="matrix(0.010850694444444444,0,0,0.010850694444444444,110.03689236111111,0)" xlink:href="#aF"/></g><g id="P"><use transform="matrix(0.010850694444444444,0,0,0.010850694444444444,0,0)" xlink:href="#br"/><use transform="matrix(0.010850694444444444,0,0,0.010850694444444444,11.490885416666666,0)" xlink:href="#an"/><use transform="matrix(0.010850694444444444,0,0,0.010850694444444444,24.055989583333332,0)" xlink:href="#an"/><use transform="matrix(0.010850694444444444,0,0,0.010850694444444444,36.62109375,0)" xlink:href="#al"/><use transform="matrix(0.010850694444444444,0,0,0.010850694444444444,42.513020833333336,0)" xlink:href="#aF"/></g><g id="Q"><use transform="matrix(0.010850694444444444,0,0,0.010850694444444444,0,0)" xlink:href="#am"/><use transform="matrix(0.010850694444444444,0,0,0.010850694444444444,14.442274305555555,0)" xlink:href="#ak"/><use transform="matrix(0.010850694444444444,0,0,0.010850694444444444,26.35633680555556,0)" xlink:href="#as"/><use transform="matrix(0.010850694444444444,0,0,0.010850694444444444,33.865017361111114,0)" xlink:href="#ak"/></g><path d="M687-225c189-1 272-84 286-260h300c-19 311-251 505-586 505C296 20 86-277 86-686c0-466 174-782 605-790 340-6 557 198 584 514H975c-15-183-92-268-284-268-100 0-173 38-225 108-63 84-76 264-76 443 0 157 24 272 72 345s122 109 225 109" id="bW"/><g id="R"><use transform="matrix(0.010850694444444444,0,0,0.010850694444444444,0,0)" xlink:href="#bW"/><use transform="matrix(0.010850694444444444,0,0,0.010850694444444444,14.539930555555555,0)" xlink:href="#an"/><use transform="matrix(0.010850694444444444,0,0,0.010850694444444444,27.10503472222222,0)" xlink:href="#ar"/><use transform="matrix(0.010850694444444444,0,0,0.010850694444444444,39.55078125,0)" xlink:href="#aF"/><use transform="matrix(0.010850694444444444,0,0,0.010850694444444444,50.9765625,0)" xlink:href="#ao"/><use transform="matrix(0.010850694444444444,0,0,0.010850694444444444,63.41145833333333,0)" xlink:href="#ap"/><use transform="matrix(0.010850694444444444,0,0,0.010850694444444444,82.64973958333333,0)" xlink:href="#aq"/><use transform="matrix(0.010850694444444444,0,0,0.010850694444444444,94.66145833333333,0)" xlink:href="#aM"/><use transform="matrix(0.010850694444444444,0,0,0.010850694444444444,102.76692708333333,0)" xlink:href="#aF"/></g><path d="M497-251l268-831h189L566 0H425L33-1082h189" id="bX"/><path d="M729 0H543v-1233l-373 137v-168l530-199h29V0" id="bY"/><path d="M503-687l240-395h216L605-547 970 0H756L506-405 256 0H41l365-547-354-535h214" id="bZ"/><path d="M574-1476c351 0 454 237 460 615v240c0 217-37 378-111 483S733 20 576 20c-346 0-454-246-461-616v-247c0-214 37-373 111-477s190-156 348-156zm275 905c0-337 59-752-275-753-95 0-160 38-207 107-80 118-66 409-67 625 0 157 22 273 68 348s115 113 208 113c91 0 160-35 204-106s69-182 69-334" id="ca"/><g id="T"><use transform="matrix(0.0087890625,0,0,0.0087890625,0,0)" xlink:href="#bX"/><use transform="matrix(0.0087890625,0,0,0.0087890625,8.71875,0)" xlink:href="#bY"/><use transform="matrix(0.0087890625,0,0,0.0087890625,18.826171875,0)" xlink:href="#aB"/><use transform="matrix(0.0087890625,0,0,0.0087890625,23.5634765625,0)" xlink:href="#bZ"/><use transform="matrix(0.0087890625,0,0,0.0087890625,32.484375,0)" xlink:href="#aB"/><use transform="matrix(0.0087890625,0,0,0.0087890625,37.2216796875,0)" xlink:href="#ca"/></g><path d="M704-1390c-164-38-297 28-288 194v114h231v143H416V0H231v-939H60v-143h171v-111c-12-274 208-416 483-347" id="cb"/><g id="U"><use transform="matrix(0.0087890625,0,0,0.0087890625,0,0)" xlink:href="#cb"/><use transform="matrix(0.0087890625,0,0,0.0087890625,6.2490234375,0)" xlink:href="#aC"/><use transform="matrix(0.0087890625,0,0,0.0087890625,10.6171875,0)" xlink:href="#ay"/><use transform="matrix(0.0087890625,0,0,0.0087890625,20.548828125,0)" xlink:href="#aR"/><use transform="matrix(0.0087890625,0,0,0.0087890625,30.33984375,0)" xlink:href="#aJ"/></g><g id="V"><use transform="matrix(0.0087890625,0,0,0.0087890625,0,0)" xlink:href="#ax"/><use transform="matrix(0.0087890625,0,0,0.0087890625,5.923828125,0)" xlink:href="#aw"/><use transform="matrix(0.0087890625,0,0,0.0087890625,15.4599609375,0)" xlink:href="#aJ"/><use transform="matrix(0.0087890625,0,0,0.0087890625,19.828125,0)" xlink:href="#aw"/><use transform="matrix(0.0087890625,0,0,0.0087890625,29.3642578125,0)" xlink:href="#aR"/><use transform="matrix(0.0087890625,0,0,0.0087890625,39.1552734375,0)" xlink:href="#aA"/><use transform="matrix(0.0087890625,0,0,0.0087890625,48.4365234375,0)" xlink:href="#aw"/></g><path d="M494-271l252-811h198L509 167C425 381 299 474 84 421V271c167 16 242-37 283-173l41-110L22-1082h202" id="cc"/><g id="W"><use transform="matrix(0.0087890625,0,0,0.0087890625,0,0)" xlink:href="#bX"/><use transform="matrix(0.0087890625,0,0,0.0087890625,8.71875,0)" xlink:href="#bY"/><use transform="matrix(0.0087890625,0,0,0.0087890625,18.826171875,0)" xlink:href="#aB"/><use transform="matrix(0.0087890625,0,0,0.0087890625,23.5634765625,0)" xlink:href="#bZ"/><use transform="matrix(0.0087890625,0,0,0.0087890625,32.484375,0)" xlink:href="#aB"/><use transform="matrix(0.0087890625,0,0,0.0087890625,37.2216796875,0)" xlink:href="#ca"/><use transform="matrix(0.0087890625,0,0,0.0087890625,47.3291015625,0)" xlink:href="#bK"/><use transform="matrix(0.0087890625,0,0,0.0087890625,52.294921875,0)" xlink:href="#ax"/><use transform="matrix(0.0087890625,0,0,0.0087890625,58.21875,0)" xlink:href="#bM"/><use transform="matrix(0.0087890625,0,0,0.0087890625,67.640625,0)" xlink:href="#aB"/><use transform="matrix(0.0087890625,0,0,0.0087890625,72.3779296875,0)" xlink:href="#cc"/></g><g id="X"><use transform="matrix(0.0087890625,0,0,0.0087890625,0,0)" xlink:href="#ax"/><use transform="matrix(0.0087890625,0,0,0.0087890625,5.923828125,0)" xlink:href="#aw"/><use transform="matrix(0.0087890625,0,0,0.0087890625,15.4599609375,0)" xlink:href="#aJ"/><use transform="matrix(0.0087890625,0,0,0.0087890625,19.828125,0)" xlink:href="#aw"/><use transform="matrix(0.0087890625,0,0,0.0087890625,29.3642578125,0)" xlink:href="#aR"/><use transform="matrix(0.0087890625,0,0,0.0087890625,39.1552734375,0)" xlink:href="#aA"/><use transform="matrix(0.0087890625,0,0,0.0087890625,48.4365234375,0)" xlink:href="#aw"/></g><g id="Y"><use transform="matrix(0.0087890625,0,0,0.0087890625,0,0)" xlink:href="#bM"/><use transform="matrix(0.0087890625,0,0,0.0087890625,9.421875,0)" xlink:href="#aR"/><use transform="matrix(0.0087890625,0,0,0.0087890625,19.212890625,0)" xlink:href="#ay"/><use transform="matrix(0.0087890625,0,0,0.0087890625,29.14453125,0)" xlink:href="#aS"/><use transform="matrix(0.0087890625,0,0,0.0087890625,39.2958984375,0)" xlink:href="#aC"/><use transform="matrix(0.0087890625,0,0,0.0087890625,43.6640625,0)" xlink:href="#aS"/><use transform="matrix(0.0087890625,0,0,0.0087890625,53.8154296875,0)" xlink:href="#aR"/><use transform="matrix(0.0087890625,0,0,0.0087890625,63.6064453125,0)" xlink:href="#az"/><use transform="matrix(0.0087890625,0,0,0.0087890625,69.486328125,0)" xlink:href="#aw"/></g><path d="M632-1102c291 0 422 251 422 573 0 297-141 548-419 549-131 0-235-42-310-125v521H140v-1498h169l9 120c75-93 180-140 314-140zm-53 971c207 0 290-180 290-419 0-218-92-395-292-395-112 0-196 50-252 149v517c55 99 140 148 254 148" id="cd"/><g id="Z"><use transform="matrix(0.0087890625,0,0,0.0087890625,0,0)" xlink:href="#bX"/><use transform="matrix(0.0087890625,0,0,0.0087890625,8.71875,0)" xlink:href="#bY"/><use transform="matrix(0.0087890625,0,0,0.0087890625,18.826171875,0)" xlink:href="#aB"/><use transform="matrix(0.0087890625,0,0,0.0087890625,23.5634765625,0)" xlink:href="#bZ"/><use transform="matrix(0.0087890625,0,0,0.0087890625,32.484375,0)" xlink:href="#aB"/><use transform="matrix(0.0087890625,0,0,0.0087890625,37.2216796875,0)" xlink:href="#ca"/><use transform="matrix(0.0087890625,0,0,0.0087890625,47.3291015625,0)" xlink:href="#bK"/><use transform="matrix(0.0087890625,0,0,0.0087890625,52.294921875,0)" xlink:href="#aR"/><use transform="matrix(0.0087890625,0,0,0.0087890625,62.0859375,0)" xlink:href="#aJ"/><use transform="matrix(0.0087890625,0,0,0.0087890625,66.4541015625,0)" xlink:href="#cd"/><use transform="matrix(0.0087890625,0,0,0.0087890625,76.552734375,0)" xlink:href="#bU"/><use transform="matrix(0.0087890625,0,0,0.0087890625,86.466796875,0)" xlink:href="#aR"/><use transform="matrix(0.0087890625,0,0,0.0087890625,96.2578125,0)" xlink:href="#aP"/><use transform="matrix(0.0087890625,0,0,0.0087890625,103.67578125,0)" xlink:href="#av"/><use transform="matrix(0.0087890625,0,0,0.0087890625,113.7744140625,0)" xlink:href="#aw"/><use transform="matrix(0.0087890625,0,0,0.0087890625,123.310546875,0)" xlink:href="#az"/><use transform="matrix(0.0087890625,0,0,0.0087890625,129.1904296875,0)" xlink:href="#aR"/><use transform="matrix(0.0087890625,0,0,0.0087890625,138.9814453125,0)" xlink:href="#aB"/><use transform="matrix(0.0087890625,0,0,0.0087890625,143.71875,0)" xlink:href="#cc"/></g><g id="aa"><use transform="matrix(0.0087890625,0,0,0.0087890625,0,0)" xlink:href="#cd"/><use transform="matrix(0.0087890625,0,0,0.0087890625,10.0986328125,0)" xlink:href="#ax"/><use transform="matrix(0.0087890625,0,0,0.0087890625,16.0224609375,0)" xlink:href="#aw"/><use transform="matrix(0.0087890625,0,0,0.0087890625,25.55859375,0)" xlink:href="#bK"/><use transform="matrix(0.0087890625,0,0,0.0087890625,30.5244140625,0)" xlink:href="#ax"/><use transform="matrix(0.0087890625,0,0,0.0087890625,36.4482421875,0)" xlink:href="#aw"/><use transform="matrix(0.0087890625,0,0,0.0087890625,45.984375,0)" xlink:href="#aJ"/><use transform="matrix(0.0087890625,0,0,0.0087890625,50.3525390625,0)" xlink:href="#aw"/><use transform="matrix(0.0087890625,0,0,0.0087890625,59.888671875,0)" xlink:href="#aR"/><use transform="matrix(0.0087890625,0,0,0.0087890625,69.6796875,0)" xlink:href="#aA"/><use transform="matrix(0.0087890625,0,0,0.0087890625,78.9609375,0)" xlink:href="#aw"/></g><g id="ab"><use transform="matrix(0.010850694444444444,0,0,0.010850694444444444,0,0)" xlink:href="#aE"/><use transform="matrix(0.010850694444444444,0,0,0.010850694444444444,14.181857638888888,0)" xlink:href="#aq"/><use transform="matrix(0.010850694444444444,0,0,0.010850694444444444,26.19357638888889,0)" xlink:href="#al"/><use transform="matrix(0.010850694444444444,0,0,0.010850694444444444,32.08550347222222,0)" xlink:href="#aq"/><use transform="matrix(0.010850694444444444,0,0,0.010850694444444444,44.09722222222222,0)" xlink:href="#ak"/><use transform="matrix(0.010850694444444444,0,0,0.010850694444444444,56.01128472222222,0)" xlink:href="#aF"/><use transform="matrix(0.010850694444444444,0,0,0.010850694444444444,67.43706597222223,0)" xlink:href="#aq"/></g><g id="ac"><use transform="matrix(0.010850694444444444,0,0,0.010850694444444444,0,0)" xlink:href="#bW"/><use transform="matrix(0.010850694444444444,0,0,0.010850694444444444,14.539930555555555,0)" xlink:href="#aN"/><use transform="matrix(0.010850694444444444,0,0,0.010850694444444444,25.553385416666664,0)" xlink:href="#aj"/><use transform="matrix(0.010850694444444444,0,0,0.010850694444444444,37.14192708333333,0)" xlink:href="#al"/><use transform="matrix(0.010850694444444444,0,0,0.010850694444444444,43.033854166666664,0)" xlink:href="#aq"/></g><path d="M314-151h633V0H88v-136l597-793H97v-153h820v131" id="ce"/><g id="ad"><use transform="matrix(0.0087890625,0,0,0.0087890625,0,0)" xlink:href="#bX"/><use transform="matrix(0.0087890625,0,0,0.0087890625,8.71875,0)" xlink:href="#bY"/><use transform="matrix(0.0087890625,0,0,0.0087890625,18.826171875,0)" xlink:href="#aB"/><use transform="matrix(0.0087890625,0,0,0.0087890625,23.5634765625,0)" xlink:href="#ce"/><use transform="matrix(0.0087890625,0,0,0.0087890625,32.484375,0)" xlink:href="#aB"/><use transform="matrix(0.0087890625,0,0,0.0087890625,37.2216796875,0)" xlink:href="#cc"/></g><g id="ae"><use transform="matrix(0.0087890625,0,0,0.0087890625,0,0)" xlink:href="#aR"/><use transform="matrix(0.0087890625,0,0,0.0087890625,9.791015625,0)" xlink:href="#ay"/><use transform="matrix(0.0087890625,0,0,0.0087890625,19.72265625,0)" xlink:href="#cc"/></g><g id="af"><use transform="matrix(0.0087890625,0,0,0.0087890625,0,0)" xlink:href="#cd"/><use transform="matrix(0.0087890625,0,0,0.0087890625,10.0986328125,0)" xlink:href="#aR"/><use transform="matrix(0.0087890625,0,0,0.0087890625,19.8896484375,0)" xlink:href="#az"/><use transform="matrix(0.0087890625,0,0,0.0087890625,25.76953125,0)" xlink:href="#bM"/><use transform="matrix(0.0087890625,0,0,0.0087890625,35.19140625,0)" xlink:href="#bU"/></g></defs></g></svg>