<svg xmlns="http://www.w3.org/2000/svg" xmlns:xlink="http://www.w3.org/1999/xlink" xmlns:lucid="lucid" width="1601.24" height="689"><g transform="translate(1.2353515625 -3.552713678800501e-15)" lucid:page-tab-id="0_0"><path d="M1340 222.84h240v80h-240z" stroke="#000" stroke-width="2" fill="#c1e4f7"/><use xlink:href="#a" transform="matrix(1,0,0,1,1345,227.83687499999985) translate(52.4833984375 25.44921875)"/><use xlink:href="#b" transform="matrix(1,0,0,1,1345,227.83687499999985) translate(121.3193359375 25.44921875)"/><use xlink:href="#c" transform="matrix(1,0,0,1,1345,227.83687499999985) translate(81.43017578125 57.08984375)"/><path d="M1160 242.73h100v40c-16.7-6.68-27.1-6.68-33.4-6.68-10 0-23.3 6.68-33.3 6.68-6.2 0-16.7 0-33.3-6.68z" stroke="#000" stroke-width="2" fill="#ffbbb1"/><use xlink:href="#d" transform="matrix(1,0,0,1,1165,247.7269385122728) translate(10.42822265625 18.19921875)"/><path d="M680 182.5h281V360H680z" stroke="#000" stroke-width="2" fill="#ffeca9"/><use xlink:href="#e" transform="matrix(1,0,0,1,685,187.49999999999994) translate(22.09722222222223 26.493055555555557)"/><use xlink:href="#f" transform="matrix(1,0,0,1,685,187.49999999999994) translate(117.98263888888889 26.493055555555557)"/><use xlink:href="#g" transform="matrix(1,0,0,1,685,187.49999999999994) translate(185.96875 26.493055555555557)"/><path d="M710.5 244.1h220v37.5h-220z" stroke="#000" stroke-width="2" fill="#ffeca9"/><use xlink:href="#h" transform="matrix(1,0,0,1,715.5,249.08687499999985) translate(45.59033203125 19.646484375)"/><use xlink:href="#i" transform="matrix(1,0,0,1,715.5,249.08687499999985) translate(99.59912109375 19.646484375)"/><path d="M711 302.84h220v37.5H711z" stroke="#000" stroke-width="2" fill="#ffeca9"/><use xlink:href="#h" transform="matrix(1,0,0,1,716,307.83687499999985) translate(29.3876953125 19.646484375)"/><use xlink:href="#j" transform="matrix(1,0,0,1,716,307.83687499999985) translate(83.396484375 19.646484375)"/><path d="M1262 262.84h58.5" stroke="#000" stroke-width="2" fill="none"/><path d="M1262.03 263.84H1261v-2h1.03z"/><path d="M1335.76 262.84l-14.26 4.63v-9.27z" stroke="#000" stroke-width="2"/><path d="M341 222.84h240v80H341z" stroke="#000" stroke-width="2" fill="#c7e8ac"/><use xlink:href="#k" transform="matrix(1,0,0,1,346,227.83687499999985) translate(9.478515625 25.44921875)"/><use xlink:href="#l" transform="matrix(1,0,0,1,346,227.83687499999985) translate(42.5341796875 25.44921875)"/><use xlink:href="#m" transform="matrix(1,0,0,1,346,227.83687499999985) translate(111.3701171875 25.44921875)"/><use xlink:href="#n" transform="matrix(1,0,0,1,346,227.83687499999985) translate(31.7763671875 57.08984375)"/><use xlink:href="#o" transform="matrix(1,0,0,1,346,227.83687499999985) translate(92.236328125 57.08984375)"/><path d="M1040 229.36l40 33.48-40 33.48-40-33.48z" stroke="#000" stroke-width="2" fill="#e5e5e5"/><use xlink:href="#p" transform="matrix(1,0,0,1,1005,234.35859374832822) translate(10.06603515625 32.709218750000005)"/><path d="M341 20h240v43H341z" stroke="#000" stroke-width="2" fill="#c7e8ac"/><use xlink:href="#q" transform="matrix(1,0,0,1,346,25.000000000000004) translate(54.26866319444445 24.741319444444443)"/><path d="M701 20h240v43H701z" stroke="#000" stroke-width="2" fill="#ffeca9"/><use xlink:href="#r" transform="matrix(1,0,0,1,706,25.000000000000004) translate(88.03059895833333 24.741319444444443)"/><path d="M980 20h240v43H980z" stroke="#000" stroke-width="2" fill="#ffbbb1"/><use xlink:href="#s" transform="matrix(1,0,0,1,985,25.000000000000004) translate(92.11046006944444 24.741319444444443)"/><path d="M1340 20h240v43h-240z" stroke="#000" stroke-width="2" fill="#b2d6ef"/><use xlink:href="#t" transform="matrix(1,0,0,1,1345,25.000000000000004) translate(57.903645833333336 24.741319444444443)"/><path d="M182 625.26h-4V51.52h4z"/><path/><path d="M180 641.53l-4.64-14.27h9.28z"/><path d="M180 648l-7.4-22.74h14.8zm-1.88-18.74l1.88 5.8 1.88-5.8z"/><use xlink:href="#u" transform="matrix(1,0,0,1,74.86328125,372.29947916666674) translate(45.361562500000005 16.69921875)"/><use xlink:href="#v" transform="matrix(1,0,0,1,74.86328125,372.29947916666674) translate(49.817617187500005 16.69921875)"/><use xlink:href="#w" transform="matrix(1,0,0,1,74.86328125,372.29947916666674) translate(0.010000000000005116 48.33984375)"/><use xlink:href="#x" transform="matrix(1,0,0,1,74.86328125,372.29947916666674) translate(39.174062500000005 48.33984375)"/><use xlink:href="#y" transform="matrix(1,0,0,1,30.548828124999986,234.96614583333331) translate(60.56664062499999 16.69921875)"/><use xlink:href="#z" transform="matrix(1,0,0,1,30.548828124999986,234.96614583333331) translate(0.009999999999990905 48.33984375)"/><use xlink:href="#A" transform="matrix(1,0,0,1,30.548828124999986,234.96614583333331) translate(62.43871093749999 48.33984375)"/><use xlink:href="#B" transform="matrix(1,0,0,1,19.7646484375,113.63281250000003) translate(0.009999999999990905 16.69921875)"/><use xlink:href="#C" transform="matrix(1,0,0,1,19.7646484375,113.63281250000003) translate(63.74828124999999 48.33984375)"/><use xlink:href="#D" transform="matrix(1,0,0,1,109.98589409722221,25.479166666666668) translate(0.009999999999990905 20.616319444444443)"/><use xlink:href="#E" transform="matrix(1,0,0,1,109.98589409722221,25.479166666666668) translate(84.99263888888889 20.616319444444443)"/><use xlink:href="#F" transform="matrix(1,0,0,1,31.770507812499986,493.6328125) translate(94.50121093749999 16.69921875)"/><use xlink:href="#G" transform="matrix(1,0,0,1,31.770507812499986,493.6328125) translate(0.009999999999990905 48.33984375)"/><use xlink:href="#H" transform="matrix(1,0,0,1,31.770507812499986,493.6328125) translate(32.70531249999999 48.33984375)"/><use xlink:href="#x" transform="matrix(1,0,0,1,31.770507812499986,493.6328125) translate(82.26683593749999 48.33984375)"/><path d="M979.94 262.84H932.5" stroke="#000" stroke-width="2" fill="none"/><path d="M995.2 262.84l-14.26 4.63v-9.27z" stroke="#000" stroke-width="2"/><path d="M932.53 263.84h-1.03v-2h1.03z"/><path d="M583 262.84h108" stroke="#000" stroke-width="2" fill="none"/><path d="M583.03 263.84H582v-2h1.03z"/><path d="M706.26 262.84L692 267.47v-9.27z" stroke="#000" stroke-width="2"/><path d="M1082.56 262.84h57.94" stroke="#000" stroke-width="2" fill="none"/><path d="M1082.58 263.84h-2.22l1.2-1-1.2-1h2.22z"/><path d="M1155.76 262.84l-14.26 4.63v-9.27z" stroke="#000" stroke-width="2"/><path d="M1340 340h240v80h-240z" stroke="#000" stroke-width="2" fill="#c1e4f7"/><use xlink:href="#I" transform="matrix(1,0,0,1,1345,345) translate(71.3447265625 25.44921875)"/><use xlink:href="#J" transform="matrix(1,0,0,1,1345,345) translate(30.33935546875 57.08984375)"/><path d="M1040 298.62v22.97h-89.5" stroke="#000" stroke-width="2" fill="none"/><path d="M1041 298.64h-2v-1.86l1 .84 1-.84z"/><path d="M935.24 321.6l14.26-4.65v9.27z" stroke="#000" stroke-width="2"/><path d="M1160 320h100v40c-16.7-6.68-27.1-6.68-33.4-6.68-10 0-23.3 6.68-33.3 6.68-6.2 0-16.7 0-33.3-6.68z" stroke="#000" stroke-width="2" fill="#ffbbb1"/><use xlink:href="#K" transform="matrix(1,0,0,1,1165,325) translate(2.79052734375 18.19921875)"/><path d="M1262 340.1h33c2.76 0 5 2.25 5 5v30c0 2.77 2.24 5 5 5h15.5" stroke="#000" stroke-width="2" fill="none"/><path d="M1262.03 341.1H1261v-2h1.03z"/><path d="M1335.76 380.1l-14.26 4.65v-9.28z" stroke="#000" stroke-width="2"/><path d="M1040 346.52l40 33.48-40 33.48-40-33.48z" stroke="#000" stroke-width="2" fill="#e5e5e5"/><use xlink:href="#p" transform="matrix(1,0,0,1,1005,351.52171874832834) translate(10.06603515625 32.709218750000005)"/><path d="M979.94 380H826c-2.76 0-5-2.24-5-5v-32.66" stroke="#000" stroke-width="2" fill="none"/><path d="M995.2 380l-14.26 4.64v-9.28z" stroke="#000" stroke-width="2"/><path d="M822 342.36h-2v-1.02h2z"/><path d="M1082.56 380h32.72c2.76 0 5-2.24 5-5v-30c0-2.76 2.24-5 5-5h15.22" stroke="#000" stroke-width="2" fill="none"/><path d="M1082.58 381h-2.22l1.2-1-1.2-1h2.22z"/><path d="M1155.76 340l-14.26 4.64v-9.28z" stroke="#000" stroke-width="2"/><path d="M341 486.67h240v80H341z" stroke="#000" stroke-width="2" fill="#c7e8ac"/><use xlink:href="#k" transform="matrix(1,0,0,1,346,491.66666666666663) translate(9.478515625 25.44921875)"/><use xlink:href="#l" transform="matrix(1,0,0,1,346,491.66666666666663) translate(42.5341796875 25.44921875)"/><use xlink:href="#m" transform="matrix(1,0,0,1,346,491.66666666666663) translate(111.3701171875 25.44921875)"/><use xlink:href="#L" transform="matrix(1,0,0,1,346,491.66666666666663) translate(33.3583984375 57.08984375)"/><use xlink:href="#M" transform="matrix(1,0,0,1,346,491.66666666666663) translate(84.080078125 57.08984375)"/><use xlink:href="#N" transform="matrix(1,0,0,1,346,491.66666666666663) translate(151.66796875 57.08984375)"/><path d="M583 526.67h57.75c2.76 0 5-2.24 5-5V267.84c0-2.76 2.24-5 5-5H691" stroke="#000" stroke-width="2" fill="none"/><path d="M583.03 527.67H582v-2h1.03z"/><path d="M706.26 262.84L692 267.47v-9.27z" stroke="#000" stroke-width="2"/><path d="M262.67 263.84V400H181M262.67 263.86v-1.02M181.03 400H180M321.5 262.84H181" stroke="#000" stroke-width="2" fill="none"/><path d="M336.76 262.84l-14.26 4.63v-9.27z" stroke="#000" stroke-width="2"/><path d="M181.03 262.84H180M181 140h76.67c2.76 0 5 2.24 5 5v116.84M181.03 140H180M262.67 261.8v1.04M321.5 526.67H181" stroke="#000" stroke-width="2" fill="none"/><path d="M336.76 526.67l-14.26 4.63v-9.27z" stroke="#000" stroke-width="2"/><path d="M181.03 526.67H180" stroke="#000" stroke-width="2" fill="none"/><path d="M1160 397.27h100v40c-16.7-6.68-27.1-6.68-33.4-6.68-10 0-23.3 6.67-33.3 6.67-6.2 0-16.7 0-33.3-6.68z" fill="#ffbbb1"/><path d="M1172.5 397.27h8.33m8.34 0h8.33m8.33 0h8.34m8.33 0h8.33m8.34 0h8.33m8.33 0h4.17v3.34m0 6.67v6.67m0 6.67v6.67m0 6.67v3.33l-4.08-1.3m-8.16-2.63l-2.28-.73-6.1-.96m-8.5-.9l-4.28-.15-4.24.34m-8.3 1.8l-8.3 1.8m-8.3 1.82l-4.16.9-4.26-.26m-8.53-.58l-8.3-1.94m-8.18-2.45l-4.02-1.44v-4.17m0-8.33v-8.33m0-8.33v-4.17h4.17" stroke="#000" stroke-width="2" fill="none"/><g><use xlink:href="#O" transform="matrix(1,0,0,1,1165,402.2730614877272) translate(16.998046875 18.19921875)"/></g><path d="M1140.5 417.38h-3.8m-7.62 0h-3.8l-2.95-.96-1.8-2.46-.25-1.58v-3.42m0-6.85v-6.83m0-6.85V385l-.97-2.95-2.44-1.8-1.58-.25h-4.1m-8.17 0h-8.17m-8.18 0h-4.1" stroke="#000" stroke-width="2" fill="none"/><path d="M1155.76 417.38l-14.26 4.64v-9.27z" stroke="#000" stroke-width="2"/><path d="M1082.58 381h-2.22l1.2-1-1.2-1h2.22z"/><path d="M1262 417.38h4.13m8.24 0h8.26m8.24 0h4.13l2.95-.96 1.8-2.46.25-1.58v-3.42m0-6.85v-6.83m0-6.85V385l.96-2.95 2.46-1.8 1.58-.25h3.87m7.75 0h3.88" stroke="#000" stroke-width="2" fill="none"/><path d="M1262.03 418.38H1261v-2h1.03z"/><path d="M1335.76 380l-14.26 4.64v-9.28z" stroke="#000" stroke-width="2"/><defs><path d="M1209-1016c0 219-100 334-260 407l315 595V0H942L669-533H430V0H130v-1456h541c318-3 538 141 538 440zm-300 24c-1-144-85-221-238-221H430v437h242c144 2 238-77 237-216" id="P"/><path d="M1031-175C952-60 797 20 609 20 287 20 60-206 72-543c12-330 180-559 505-559 309 0 482 214 477 537v118H365c15 134 115 234 263 234 111 0 198-40 261-121zM770-644c5-139-62-226-194-224-130 1-191 97-208 224h402" id="Q"/><path d="M416 0H126v-1536h290V0" id="R"/><path d="M552-1102c254-4 435 134 435 383v469c1 103 15 180 43 233V0H738c-13-26-23-58-29-97C639-19 548 20 436 20 238 20 64-113 68-304c5-258 212-357 496-357h133c11-137-29-227-160-227-90 0-156 45-156 131H92c15-231 213-342 460-345zM357-325c0 76 61 124 142 124 88 0 168-45 198-105v-186H589c-152 2-232 51-232 167" id="S"/><path d="M529-185c94 0 168-33 168-114 0-35-18-63-53-83s-91-39-168-55C219-491 90-600 90-765c0-208 203-337 432-337 246 0 451 124 453 349H686c-2-91-62-143-165-143-86 0-151 41-153 117 0 32 16 57 46 77 63 43 257 69 335 100 151 60 229 153 229 291C978-13 554 93 282-28 162-81 60-190 56-344h274c5 106 86 159 199 159" id="T"/><g id="a"><use transform="matrix(0.0087890625,0,0,0.0087890625,0,0)" xlink:href="#P"/><use transform="matrix(0.0087890625,0,0,0.0087890625,11.4873046875,0)" xlink:href="#Q"/><use transform="matrix(0.0087890625,0,0,0.0087890625,21.216796875,0)" xlink:href="#R"/><use transform="matrix(0.0087890625,0,0,0.0087890625,25.9892578125,0)" xlink:href="#Q"/><use transform="matrix(0.0087890625,0,0,0.0087890625,35.71875,0)" xlink:href="#S"/><use transform="matrix(0.0087890625,0,0,0.0087890625,45.369140625,0)" xlink:href="#T"/><use transform="matrix(0.0087890625,0,0,0.0087890625,54.6240234375,0)" xlink:href="#Q"/></g><path d="M1212-428C1211-131 1004 0 696 0H130v-1456h510c318-1 539 108 539 399 0 155-89 264-208 308 141 33 242 151 241 321zM687-241c132 2 225-65 225-190 0-133-69-203-207-203H430v393h257zm192-786c0-145-86-186-239-186H430v367h222c151-3 227-63 227-181" id="U"/><path d="M463 20c-241-1-359-147-359-393v-709h289v699c0 113 51 169 154 169 98 0 165-34 202-102v-766h290V0H767l-8-110C688-23 589 20 463 20" id="V"/><path d="M355-556c-2 203 30 338 206 343 102 3 181-63 182-161h271C1001-128 821 17 566 20 242 24 66-212 66-554c0-320 184-548 498-548 262 0 451 167 450 423H743c-1-108-75-193-184-189-162 6-202 123-204 312" id="W"/><path d="M504-434L400-330V0H111v-1536h289v851c106-137 222-264 333-397h347L689-631 1114 0H782" id="X"/><path d="M457-330c2 83 25 111 111 112 32 0 60-2 85-7V-6c-57 17-115 26-175 26-203 0-310-102-310-307v-583H10v-212h158v-266h289v266h185v212H457v540" id="Y"/><g id="b"><use transform="matrix(0.0087890625,0,0,0.0087890625,0,0)" xlink:href="#U"/><use transform="matrix(0.0087890625,0,0,0.0087890625,11.4873046875,0)" xlink:href="#V"/><use transform="matrix(0.0087890625,0,0,0.0087890625,21.5595703125,0)" xlink:href="#W"/><use transform="matrix(0.0087890625,0,0,0.0087890625,30.9462890625,0)" xlink:href="#X"/><use transform="matrix(0.0087890625,0,0,0.0087890625,40.3857421875,0)" xlink:href="#Q"/><use transform="matrix(0.0087890625,0,0,0.0087890625,50.115234375,0)" xlink:href="#Y"/></g><path d="M520 20C244 20 95-247 95-550c0-298 151-550 427-552 127 0 227 43 301 130v-564h185V0H838l-9-116C755-25 652 20 520 20zm48-965c-210 0-288 177-288 416 0 218 87 392 286 392 117 0 203-53 257-158v-497c-55-102-140-153-255-153" id="Z"/><path d="M341 0H156v-1536h185V0" id="aa"/><path d="M258 11c-71 0-114-43-114-108 0-67 42-112 114-112s116 45 116 112c-1 65-45 108-116 108" id="ab"/><path d="M442-501L326-380V0H141v-1536h185v929c135-169 291-317 436-475h225L566-630 1036 0H819" id="ac"/><path d="M575-1476c247 0 432 154 429 400-2 161-97 271-213 327 135 56 245 179 247 356 3 257-200 413-463 413-265 0-466-156-463-413 2-176 108-302 243-357-115-56-207-166-209-326-4-246 181-400 429-400zm0 1345c168 0 278-101 278-266 0-161-118-276-280-276-163 0-276 113-276 276 0 167 108 266 278 266zm244-942c0-143-104-251-244-251-146 0-244 102-244 251 0 145 98 248 244 248s244-103 244-248" id="ad"/><path d="M538-131c121 0 232-49 232-156 0-50-20-88-56-117-73-60-334-92-420-143-92-55-162-110-162-238 0-190 192-317 400-317 223 0 414 129 413 338H759c0-108-110-186-227-186-119 0-215 53-215 159 0 45 18 78 53 101 76 52 331 90 416 139 98 57 169 115 169 251C955-92 760 20 538 20c-176 0-314-68-386-174-38-55-57-115-57-179h185c6 129 116 202 258 202" id="ae"/><path d="M341 0H156v-1082h185V0zm-91-1264c-68 0-108-42-109-105 0-62 41-107 109-107s110 44 110 107-42 105-110 105" id="af"/><path d="M584 20C278 26 81-227 91-551c10-320 175-545 491-551 308-5 503 247 494 573-9 322-175 543-492 549zm-2-970c-208 0-305 185-305 421 0 216 106 398 307 398 211 0 307-186 307-420 0-214-109-399-309-399" id="ag"/><g id="c"><use transform="matrix(0.0087890625,0,0,0.0087890625,0,0)" xlink:href="#Z"/><use transform="matrix(0.0087890625,0,0,0.0087890625,10.1513671875,0)" xlink:href="#aa"/><use transform="matrix(0.0087890625,0,0,0.0087890625,14.51953125,0)" xlink:href="#ab"/><use transform="matrix(0.0087890625,0,0,0.0087890625,19.2568359375,0)" xlink:href="#ac"/><use transform="matrix(0.0087890625,0,0,0.0087890625,28.3798828125,0)" xlink:href="#ad"/><use transform="matrix(0.0087890625,0,0,0.0087890625,38.4873046875,0)" xlink:href="#ae"/><use transform="matrix(0.0087890625,0,0,0.0087890625,47.7685546875,0)" xlink:href="#ab"/><use transform="matrix(0.0087890625,0,0,0.0087890625,52.505859375,0)" xlink:href="#af"/><use transform="matrix(0.0087890625,0,0,0.0087890625,56.8740234375,0)" xlink:href="#ag"/></g><path d="M973-380H363L226 0H28l556-1456h168L1309 0h-197zM421-538h495l-248-681" id="ah"/><path d="M663-916c-163-27-288 18-338 148V0H140v-1082h180l3 125c61-97 147-145 258-145 36 0 63 5 82 14v172" id="ai"/><path d="M456 20C285 20 205-92 206-268v-671H9v-143h197v-262h185v262h202v143H391v671c-9 125 92 149 207 118V0c-49 13-96 20-142 20" id="aj"/><path d="M704-1390c-164-38-297 28-288 194v114h231v143H416V0H231v-939H60v-143h171v-111c-12-274 208-416 483-347" id="ak"/><path d="M561-1102c238-4 403 126 403 351v498c0 99 13 178 38 237V0H808c-11-21-19-59-26-114C696-25 593 20 474 20c-199 0-368-130-365-320 4-251 214-359 490-356h180v-85c-1-135-86-212-229-212-115 0-232 67-233 171H131c20-205 206-316 430-320zM294-326c0 117 90 185 207 185 122 0 239-75 278-162v-222H634c-227 0-340 66-340 199" id="al"/><path d="M277-555c0 244 77 420 297 424 127 2 249-93 255-210h175C980-127 805 20 574 20 258 20 81-222 92-562c11-319 164-533 481-540 237-5 426 165 431 392H829c-7-133-115-242-256-240-209 4-296 166-296 395" id="am"/><g id="d"><use transform="matrix(0.0087890625,0,0,0.0087890625,0,0)" xlink:href="#ah"/><use transform="matrix(0.0087890625,0,0,0.0087890625,11.7421875,0)" xlink:href="#ai"/><use transform="matrix(0.0087890625,0,0,0.0087890625,18.2724609375,0)" xlink:href="#aj"/><use transform="matrix(0.0087890625,0,0,0.0087890625,24.15234375,0)" xlink:href="#af"/><use transform="matrix(0.0087890625,0,0,0.0087890625,28.5205078125,0)" xlink:href="#ak"/><use transform="matrix(0.0087890625,0,0,0.0087890625,34.76953125,0)" xlink:href="#al"/><use transform="matrix(0.0087890625,0,0,0.0087890625,44.560546875,0)" xlink:href="#am"/><use transform="matrix(0.0087890625,0,0,0.0087890625,53.982421875,0)" xlink:href="#aj"/><use transform="matrix(0.0087890625,0,0,0.0087890625,59.8623046875,0)" xlink:href="#ae"/></g><path d="M586-584L430-416V0H130v-1456h300v660c161-226 335-440 503-660h369L785-809 1317 0H960" id="an"/><path d="M663-1102c295 0 423 246 423 571 0 313-131 551-421 551-117 0-211-45-281-135L371 0H111v-1536h289v551c67-78 154-117 263-117zm-71 889c164 0 209-139 205-339-3-189-44-315-207-315-92 0-155 38-190 113v427c35 76 99 114 192 114" id="ao"/><path d="M719-811c-143-24-279 1-319 103V0H111v-1082h273l8 129c74-124 180-175 331-136" id="ap"/><path d="M750-692c-1-124-48-174-173-175-81 0-142 35-183 104V0H105v-1082h272l9 125c77-97 181-145 311-145 244 0 342 151 342 403V0H750v-692" id="aq"/><g id="e"><use transform="matrix(0.008680555555555556,0,0,0.008680555555555556,0,0)" xlink:href="#an"/><use transform="matrix(0.008680555555555556,0,0,0.008680555555555556,11.085069444444445,0)" xlink:href="#V"/><use transform="matrix(0.008680555555555556,0,0,0.008680555555555556,21.032986111111114,0)" xlink:href="#ao"/><use transform="matrix(0.008680555555555556,0,0,0.008680555555555556,31.04166666666667,0)" xlink:href="#Q"/><use transform="matrix(0.008680555555555556,0,0,0.008680555555555556,40.65104166666667,0)" xlink:href="#ap"/><use transform="matrix(0.008680555555555556,0,0,0.008680555555555556,47.13541666666667,0)" xlink:href="#aq"/><use transform="matrix(0.008680555555555556,0,0,0.008680555555555556,57.09201388888889,0)" xlink:href="#Q"/><use transform="matrix(0.008680555555555556,0,0,0.008680555555555556,66.70138888888889,0)" xlink:href="#Y"/><use transform="matrix(0.008680555555555556,0,0,0.008680555555555556,72.70833333333331,0)" xlink:href="#Q"/><use transform="matrix(0.008680555555555556,0,0,0.008680555555555556,82.31770833333331,0)" xlink:href="#T"/></g><g id="f"><use transform="matrix(0.008680555555555556,0,0,0.008680555555555556,0,0)" xlink:href="#P"/><use transform="matrix(0.008680555555555556,0,0,0.008680555555555556,11.345486111111112,0)" xlink:href="#Q"/><use transform="matrix(0.008680555555555556,0,0,0.008680555555555556,20.954861111111114,0)" xlink:href="#R"/><use transform="matrix(0.008680555555555556,0,0,0.008680555555555556,25.668402777777782,0)" xlink:href="#Q"/><use transform="matrix(0.008680555555555556,0,0,0.008680555555555556,35.277777777777786,0)" xlink:href="#S"/><use transform="matrix(0.008680555555555556,0,0,0.008680555555555556,44.809027777777786,0)" xlink:href="#T"/><use transform="matrix(0.008680555555555556,0,0,0.008680555555555556,53.949652777777786,0)" xlink:href="#Q"/></g><path d="M1226-1213H780V0H480v-1213H40v-243h1186v243" id="ar"/><path d="M579 20C257 20 58-214 66-551c8-331 182-551 511-551 324 0 514 231 514 572 0 319-198 550-512 550zm-2-888c-169 0-222 141-222 338 0 181 61 317 224 317 170 0 223-137 223-338 0-178-64-317-225-317" id="as"/><path d="M523-759l182-323h309L706-552 1027 0H717L524-340 332 0H21l321-552-307-530h310" id="at"/><g id="g"><use transform="matrix(0.008680555555555556,0,0,0.008680555555555556,0,0)" xlink:href="#ar"/><use transform="matrix(0.008680555555555556,0,0,0.008680555555555556,9.192708333333334,0)" xlink:href="#as"/><use transform="matrix(0.008680555555555556,0,0,0.008680555555555556,19.244791666666668,0)" xlink:href="#as"/><use transform="matrix(0.008680555555555556,0,0,0.008680555555555556,29.296875,0)" xlink:href="#R"/><use transform="matrix(0.008680555555555556,0,0,0.008680555555555556,34.010416666666664,0)" xlink:href="#ao"/><use transform="matrix(0.008680555555555556,0,0,0.008680555555555556,44.01909722222222,0)" xlink:href="#as"/><use transform="matrix(0.008680555555555556,0,0,0.008680555555555556,53.88888888888889,0)" xlink:href="#at"/></g><path d="M914 0L548-499l-132 98V0H236v-1484h180v927l475-525h211L663-617 1125 0H914" id="au"/><path d="M839-1102c70 0 148 7 206 17v167c-112-18-268-36-363 15-129 69-208 203-208 395V0H294c-10-367 32-789-52-1082h171c21 75 41 161 48 250h5c67-152 152-270 373-270" id="av"/><path d="M617-1102c355 0 481 238 477 599H322c5 222 84 388 301 388 144 0 244-59 284-166l158 45C1002-72 854 20 623 20c-342 0-490-220-490-568 0-346 151-554 484-554zm291 461c-18-192-90-328-289-328-194 0-287 128-295 328h584" id="aw"/><path d="M736-142h380V0H134v-142h422v-1200H267v-142h469v1342" id="ax"/><g id="h"><use transform="matrix(0.0087890625,0,0,0.0087890625,0,0)" xlink:href="#au"/><use transform="matrix(0.0087890625,0,0,0.0087890625,10.8017578125,0)" xlink:href="#av"/><use transform="matrix(0.0087890625,0,0,0.0087890625,21.603515625,0)" xlink:href="#aw"/><use transform="matrix(0.0087890625,0,0,0.0087890625,32.4052734375,0)" xlink:href="#ax"/></g><path d="M1048-32c-2 300-135 456-433 456-222-1-358-88-400-267l184-25c22 99 100 157 222 156 184-2 248-125 248-315 0-64 3-133-2-194C807-100 706-13 524-12c-306 0-381-228-381-537 0-318 85-550 400-550 164 0 271 83 325 202h3c1-60 3-134 12-185h171c-13 339-4 702-6 1050zM585-145c210-8 284-178 284-406 0-192-52-331-177-392-33-16-69-22-104-22-223 2-259 184-259 414 0 229 31 415 256 406" id="ay"/><path d="M631 20c-350 0-501-215-501-562 0-355 162-560 502-560 250 0 399 118 446 323l-192 14c-23-124-109-196-262-196-242 0-305 171-305 415 1 245 61 427 304 427 151 0 248-77 267-215l190 12C1039-107 883 20 631 20" id="az"/><path d="M365-904c58-129 161-200 334-200 130 0 228 46 293 138s98 233 98 420c0 189-34 331-102 425S824 20 698 20c-170 0-275-64-336-184 0 55-3 116-9 164H179c5-68 6-147 6-223v-1261h180c-2 193 4 394-4 580h4zm283 791c221 0 256-197 256-427 0-229-34-425-254-425-236 0-285 195-285 441 0 237 53 411 283 411" id="aA"/><path d="M904-1102c199 0 220 177 220 381V0H956v-686c-3-114 0-215-60-264-70-33-125-4-158 71-26 56-39 140-39 252V0H531v-686c-3-114-1-215-61-264-78-41-136 24-157 84-24 69-39 159-39 259V0H105c-3-360 6-732-6-1082h149c6 50 3 123 8 175 36-100 83-195 216-195 135 0 166 79 196 196 42-105 93-196 236-196" id="aB"/><g id="i"><use transform="matrix(0.0087890625,0,0,0.0087890625,0,0)" xlink:href="#ay"/><use transform="matrix(0.0087890625,0,0,0.0087890625,10.8017578125,0)" xlink:href="#az"/><use transform="matrix(0.0087890625,0,0,0.0087890625,21.603515625,0)" xlink:href="#aA"/><use transform="matrix(0.0087890625,0,0,0.0087890625,32.4052734375,0)" xlink:href="#aB"/><use transform="matrix(0.0087890625,0,0,0.0087890625,43.20703125,0)" xlink:href="#ay"/><use transform="matrix(0.0087890625,0,0,0.0087890625,54.0087890625,0)" xlink:href="#av"/></g><path d="M648-963c-190 6-283 138-283 336V0H185v-1484h181c-2 197 6 404-9 587h3c62-120 159-205 339-205 242 0 351 135 350 381V0H868v-695c1-168-57-273-220-268" id="aC"/><path d="M1000-272c3 95 12 159 101 161 21 0 41-3 59-7V-6c-44 10-86 16-139 16-141 2-191-84-197-217h-6C748-76 648 20 446 20c-207 0-318-120-318-322 0-266 194-348 454-354l236-4c12-191-40-305-222-305-140 0-220 47-232 172l-188-17c33-204 181-292 423-292 255 0 401 118 401 364v466zm-683-27c0 109 63 184 175 182 166-3 259-96 306-217 24-65 20-120 20-200-232 7-501-28-501 235" id="aD"/><path d="M706-1102c241 0 344 136 343 381V0H868v-695c1-168-57-273-220-268-190 6-283 138-283 336V0H185c-3-360 6-732-6-1082h170c4 54 7 126 8 185h3c63-121 164-204 346-205" id="aE"/><path d="M615-1102c343 0 484 203 482 560-1 347-147 562-488 562-336 0-475-219-479-562-4-349 156-560 485-560zm-8 989c240 0 301-180 301-429 0-245-55-427-290-427-236 0-299 181-299 427 0 243 61 429 288 429" id="aF"/><g id="j"><use transform="matrix(0.0087890625,0,0,0.0087890625,0,0)" xlink:href="#az"/><use transform="matrix(0.0087890625,0,0,0.0087890625,10.8017578125,0)" xlink:href="#aC"/><use transform="matrix(0.0087890625,0,0,0.0087890625,21.603515625,0)" xlink:href="#aD"/><use transform="matrix(0.0087890625,0,0,0.0087890625,32.4052734375,0)" xlink:href="#aE"/><use transform="matrix(0.0087890625,0,0,0.0087890625,43.20703125,0)" xlink:href="#ay"/><use transform="matrix(0.0087890625,0,0,0.0087890625,54.0087890625,0)" xlink:href="#aw"/><use transform="matrix(0.0087890625,0,0,0.0087890625,64.810546875,0)" xlink:href="#ax"/><use transform="matrix(0.0087890625,0,0,0.0087890625,75.6123046875,0)" xlink:href="#aF"/><use transform="matrix(0.0087890625,0,0,0.0087890625,86.4140625,0)" xlink:href="#ay"/></g><path d="M658-217c127 0 227-49 227-165 0-57-21-98-60-130-79-64-370-142-463-196-162-95-248-210-248-361 0-280 246-403 537-407 213-3 383 84 467 216 45 69 68 147 68 234H886c0-139-96-211-240-211-129 0-232 55-232 169 0 47 24 87 72 119s117 62 210 90c171 51 295 115 373 191s117 171 117 284c-2 272-237 411-528 404C331 13 78-135 69-458h301c0 161 96 241 288 241" id="aG"/><path d="M449 0H149v-1456h300V0" id="aH"/><path d="M399-777c-11 316 60 556 342 556 113 0 193-24 241-72v-251H709v-221h573v581C1177-55 960 24 725 20 280 12 81-292 94-770c11-421 200-700 610-706 347-5 543 171 578 483H990c-25-157-105-241-277-241-102 0-180 38-233 115s-76 191-81 342" id="aI"/><g id="k"><use transform="matrix(0.0087890625,0,0,0.0087890625,0,0)" xlink:href="#aG"/><use transform="matrix(0.0087890625,0,0,0.0087890625,11.0654296875,0)" xlink:href="#aH"/><use transform="matrix(0.0087890625,0,0,0.0087890625,16.3125,0)" xlink:href="#aI"/></g><g id="l"><use transform="matrix(0.0087890625,0,0,0.0087890625,0,0)" xlink:href="#P"/><use transform="matrix(0.0087890625,0,0,0.0087890625,11.4873046875,0)" xlink:href="#Q"/><use transform="matrix(0.0087890625,0,0,0.0087890625,21.216796875,0)" xlink:href="#R"/><use transform="matrix(0.0087890625,0,0,0.0087890625,25.9892578125,0)" xlink:href="#Q"/><use transform="matrix(0.0087890625,0,0,0.0087890625,35.71875,0)" xlink:href="#S"/><use transform="matrix(0.0087890625,0,0,0.0087890625,45.369140625,0)" xlink:href="#T"/><use transform="matrix(0.0087890625,0,0,0.0087890625,54.6240234375,0)" xlink:href="#Q"/></g><path d="M369-598c0 393 97 738 310 900l-56 153c-200-92-361-334-433-572-84-277-87-628-5-911 71-244 234-495 438-588l56 156c-205 153-310 488-310 862" id="aJ"/><path d="M1006-631H430v390h676V0H130v-1456h974v243H430v347h576v235" id="aK"/><path d="M505 20C221 18 69-239 69-549c0-302 153-553 438-553 119 0 211 41 277 122l12-102h262V-36c-8 305-208 458-520 462-160 1-335-76-403-170L263 80c72 81 159 121 262 121 172 1 260-107 243-294C701-18 614 20 505 20zm76-887c-165 0-223 147-223 339 0 172 66 314 221 314 88 0 151-33 189-99v-455c-39-66-101-99-187-99" id="aL"/><path d="M416 0H126v-1082h290V0zM271-1212c-92 0-162-61-162-150s68-149 162-149c93 0 162 60 162 149s-70 150-162 150" id="aM"/><path d="M349-541c6-400-96-755-309-922l56-153c203 91 368 336 444 575 89 280 91 621 4 907-74 244-242 497-448 589L40 302c199-150 304-484 309-843" id="aN"/><g id="m"><use transform="matrix(0.0087890625,0,0,0.0087890625,0,0)" xlink:href="#aJ"/><use transform="matrix(0.0087890625,0,0,0.0087890625,6.3193359375,0)" xlink:href="#aK"/><use transform="matrix(0.0087890625,0,0,0.0087890625,16.4443359375,0)" xlink:href="#aq"/><use transform="matrix(0.0087890625,0,0,0.0087890625,26.525390625,0)" xlink:href="#aL"/><use transform="matrix(0.0087890625,0,0,0.0087890625,36.7998046875,0)" xlink:href="#aM"/><use transform="matrix(0.0087890625,0,0,0.0087890625,41.572265625,0)" xlink:href="#aq"/><use transform="matrix(0.0087890625,0,0,0.0087890625,51.6533203125,0)" xlink:href="#Q"/><use transform="matrix(0.0087890625,0,0,0.0087890625,61.3828125,0)" xlink:href="#Q"/><use transform="matrix(0.0087890625,0,0,0.0087890625,71.1123046875,0)" xlink:href="#ap"/><use transform="matrix(0.0087890625,0,0,0.0087890625,77.677734375,0)" xlink:href="#aM"/><use transform="matrix(0.0087890625,0,0,0.0087890625,82.4501953125,0)" xlink:href="#aq"/><use transform="matrix(0.0087890625,0,0,0.0087890625,92.53125,0)" xlink:href="#aL"/><use transform="matrix(0.0087890625,0,0,0.0087890625,102.8056640625,0)" xlink:href="#aN"/></g><path d="M1160-420C1159-145 963 0 674 0H169v-1456h476c294-1 476 112 476 388 0 153-99 253-216 302 146 38 255 167 255 346zM678-157c171 2 289-95 289-261 0-175-95-263-286-263H361v524h317zm250-912c-2-172-104-229-283-229H361v463h290c157 3 278-84 277-234" id="aO"/><path d="M589-945c-131 0-219 81-264 174V0H140v-1082h175l6 136c83-104 191-156 324-156 229 0 346 129 346 387V0H806v-716c-2-153-65-229-217-229" id="aP"/><path d="M589-945c-131 0-219 81-264 174V0H140v-1536h185v585c82-101 189-151 320-151 229 0 346 129 346 387V0H806v-716c-2-153-65-229-217-229" id="aQ"/><g id="n"><use transform="matrix(0.0087890625,0,0,0.0087890625,0,0)" xlink:href="#aO"/><use transform="matrix(0.0087890625,0,0,0.0087890625,11.2060546875,0)" xlink:href="#ai"/><use transform="matrix(0.0087890625,0,0,0.0087890625,16.9453125,0)" xlink:href="#al"/><use transform="matrix(0.0087890625,0,0,0.0087890625,26.736328125,0)" xlink:href="#aP"/><use transform="matrix(0.0087890625,0,0,0.0087890625,36.66796875,0)" xlink:href="#am"/><use transform="matrix(0.0087890625,0,0,0.0087890625,46.08984375,0)" xlink:href="#aQ"/></g><path d="M417-1456L893-268l476-1188h249V0h-192c-4-403 4-794 18-1179L966 0H819L342-1176c15 384 23 773 19 1176H169v-1456h248" id="aR"/><path d="M521 20C240 20 96-239 96-550c0-303 147-552 427-552 132 0 235 47 309 140l9-120h169V-26c4 277-183 454-459 452-165-1-334-81-400-187l96-111c79 98 176 147 291 147 180 1 288-109 286-290v-93C750-23 649 20 521 20zm48-965c-209 0-287 178-287 416 0 217 86 392 285 392 117 0 202-53 257-159v-494c-57-103-142-155-255-155" id="aS"/><path d="M599-131c141 0 220-65 285-146l113 88C906-50 770 20 589 20 281 21 93-214 93-545c0-223 93-397 233-485 74-48 154-72 240-72 300 2 449 218 445 537v77H278c0 197 129 357 321 357zm227-509c-3-180-88-310-260-310-170 0-264 140-282 310h542" id="aT"/><path d="M1240-945c-141 0-250 95-250 227V0H804v-709c0-157-77-236-231-236-121 0-204 52-249 155V0H139v-1082h175l5 120c79-93 186-140 321-140 151 0 254 58 309 174 69-98 181-174 345-174 237 0 362 126 362 377V0h-185v-714c-2-159-67-231-231-231" id="aU"/><g id="o"><use transform="matrix(0.0087890625,0,0,0.0087890625,0,0)" xlink:href="#aR"/><use transform="matrix(0.0087890625,0,0,0.0087890625,15.71484375,0)" xlink:href="#al"/><use transform="matrix(0.0087890625,0,0,0.0087890625,25.505859375,0)" xlink:href="#aP"/><use transform="matrix(0.0087890625,0,0,0.0087890625,35.4375,0)" xlink:href="#al"/><use transform="matrix(0.0087890625,0,0,0.0087890625,45.228515625,0)" xlink:href="#aS"/><use transform="matrix(0.0087890625,0,0,0.0087890625,55.3271484375,0)" xlink:href="#aT"/><use transform="matrix(0.0087890625,0,0,0.0087890625,64.86328125,0)" xlink:href="#aU"/><use transform="matrix(0.0087890625,0,0,0.0087890625,80.6396484375,0)" xlink:href="#aT"/><use transform="matrix(0.0087890625,0,0,0.0087890625,90.17578125,0)" xlink:href="#aP"/><use transform="matrix(0.0087890625,0,0,0.0087890625,100.107421875,0)" xlink:href="#aj"/></g><g id="p"><use transform="matrix(0.0087890625,0,0,0.0087890625,0,0)" xlink:href="#al"/><use transform="matrix(0.0087890625,0,0,0.0087890625,9.791015625,0)" xlink:href="#aP"/><use transform="matrix(0.0087890625,0,0,0.0087890625,19.72265625,0)" xlink:href="#al"/><use transform="matrix(0.0087890625,0,0,0.0087890625,29.513671875,0)" xlink:href="#aS"/><use transform="matrix(0.0087890625,0,0,0.0087890625,39.6123046875,0)" xlink:href="#ag"/></g><path d="M1245-974c0 302-233 466-552 461H430V0H130v-1456h568c323 5 547 167 547 482zm-303 2c1-143-93-241-237-241H430v457h268c151 1 244-71 244-216" id="aV"/><path d="M663-1102c295 0 422 250 422 571 0 300-141 549-420 551-109 0-198-38-265-114v510H111v-1498h268l10 106c70-84 161-126 274-126zm133 550c0-175-53-315-209-315-91 0-153 35-187 104v443c35 71 98 107 189 107 138 0 207-113 207-339" id="aW"/><g id="q"><use transform="matrix(0.010850694444444444,0,0,0.010850694444444444,0,0)" xlink:href="#aV"/><use transform="matrix(0.010850694444444444,0,0,0.010850694444444444,14.214409722222221,0)" xlink:href="#S"/><use transform="matrix(0.010850694444444444,0,0,0.010850694444444444,26.12847222222222,0)" xlink:href="#ap"/><use transform="matrix(0.010850694444444444,0,0,0.010850694444444444,34.77647569444444,0)" xlink:href="#Y"/><use transform="matrix(0.010850694444444444,0,0,0.010850694444444444,42.28515625,0)" xlink:href="#aM"/><use transform="matrix(0.010850694444444444,0,0,0.010850694444444444,48.17708333333333,0)" xlink:href="#W"/><use transform="matrix(0.010850694444444444,0,0,0.010850694444444444,59.765625,0)" xlink:href="#aM"/><use transform="matrix(0.010850694444444444,0,0,0.010850694444444444,65.65755208333333,0)" xlink:href="#aW"/><use transform="matrix(0.010850694444444444,0,0,0.010850694444444444,78.16840277777777,0)" xlink:href="#S"/><use transform="matrix(0.010850694444444444,0,0,0.010850694444444444,90.08246527777777,0)" xlink:href="#aq"/><use transform="matrix(0.010850694444444444,0,0,0.010850694444444444,102.52821180555556,0)" xlink:href="#Y"/><use transform="matrix(0.010850694444444444,0,0,0.010850694444444444,110.03689236111111,0)" xlink:href="#T"/></g><g id="r"><use transform="matrix(0.010850694444444444,0,0,0.010850694444444444,0,0)" xlink:href="#ar"/><use transform="matrix(0.010850694444444444,0,0,0.010850694444444444,11.490885416666666,0)" xlink:href="#as"/><use transform="matrix(0.010850694444444444,0,0,0.010850694444444444,24.055989583333332,0)" xlink:href="#as"/><use transform="matrix(0.010850694444444444,0,0,0.010850694444444444,36.62109375,0)" xlink:href="#R"/><use transform="matrix(0.010850694444444444,0,0,0.010850694444444444,42.513020833333336,0)" xlink:href="#T"/></g><path d="M130 0v-1456h448c435 14 673 299 665 762-5 285-130 500-319 606C822-31 708 0 581 0H130zm809-685c9-311-79-526-361-528H430v972h145c252-2 356-181 364-444" id="aX"/><g id="s"><use transform="matrix(0.010850694444444444,0,0,0.010850694444444444,0,0)" xlink:href="#aX"/><use transform="matrix(0.010850694444444444,0,0,0.010850694444444444,14.442274305555555,0)" xlink:href="#S"/><use transform="matrix(0.010850694444444444,0,0,0.010850694444444444,26.35633680555556,0)" xlink:href="#Y"/><use transform="matrix(0.010850694444444444,0,0,0.010850694444444444,33.865017361111114,0)" xlink:href="#S"/></g><path d="M687-225c189-1 272-84 286-260h300c-19 311-251 505-586 505C296 20 86-277 86-686c0-466 174-782 605-790 340-6 557 198 584 514H975c-15-183-92-268-284-268-100 0-173 38-225 108-63 84-76 264-76 443 0 157 24 272 72 345s122 109 225 109" id="aY"/><path d="M741-689c-2-124-40-177-163-178-82 0-141 34-178 102V0H111v-1082h271l9 121c77-94 180-141 311-141 139 0 235 55 287 165 76-110 184-165 325-165 249 0 348 151 348 411V0h-290v-690c-2-123-39-176-163-177-87 0-147 41-180 124l1 743H741v-689" id="aZ"/><g id="t"><use transform="matrix(0.010850694444444444,0,0,0.010850694444444444,0,0)" xlink:href="#aY"/><use transform="matrix(0.010850694444444444,0,0,0.010850694444444444,14.539930555555555,0)" xlink:href="#as"/><use transform="matrix(0.010850694444444444,0,0,0.010850694444444444,27.10503472222222,0)" xlink:href="#aq"/><use transform="matrix(0.010850694444444444,0,0,0.010850694444444444,39.55078125,0)" xlink:href="#T"/><use transform="matrix(0.010850694444444444,0,0,0.010850694444444444,50.9765625,0)" xlink:href="#V"/><use transform="matrix(0.010850694444444444,0,0,0.010850694444444444,63.41145833333333,0)" xlink:href="#aZ"/><use transform="matrix(0.010850694444444444,0,0,0.010850694444444444,82.64973958333333,0)" xlink:href="#Q"/><use transform="matrix(0.010850694444444444,0,0,0.010850694444444444,94.66145833333333,0)" xlink:href="#ap"/><use transform="matrix(0.010850694444444444,0,0,0.010850694444444444,102.76692708333333,0)" xlink:href="#T"/></g><path d="M497-251l268-831h189L566 0H425L33-1082h189" id="ba"/><path d="M729 0H543v-1233l-373 137v-168l530-199h29V0" id="bb"/><path d="M503-687l240-395h216L605-547 970 0H756L506-405 256 0H41l365-547-354-535h214" id="bc"/><path d="M574-1476c351 0 454 237 460 615v240c0 217-37 378-111 483S733 20 576 20c-346 0-454-246-461-616v-247c0-214 37-373 111-477s190-156 348-156zm275 905c0-337 59-752-275-753-95 0-160 38-207 107-80 118-66 409-67 625 0 157 22 273 68 348s115 113 208 113c91 0 160-35 204-106s69-182 69-334" id="bd"/><g id="v"><use transform="matrix(0.0087890625,0,0,0.0087890625,0,0)" xlink:href="#ba"/><use transform="matrix(0.0087890625,0,0,0.0087890625,8.71875,0)" xlink:href="#bb"/><use transform="matrix(0.0087890625,0,0,0.0087890625,18.826171875,0)" xlink:href="#ab"/><use transform="matrix(0.0087890625,0,0,0.0087890625,23.5634765625,0)" xlink:href="#bc"/><use transform="matrix(0.0087890625,0,0,0.0087890625,32.484375,0)" xlink:href="#ab"/><use transform="matrix(0.0087890625,0,0,0.0087890625,37.2216796875,0)" xlink:href="#bd"/></g><g id="w"><use transform="matrix(0.0087890625,0,0,0.0087890625,0,0)" xlink:href="#ak"/><use transform="matrix(0.0087890625,0,0,0.0087890625,6.2490234375,0)" xlink:href="#af"/><use transform="matrix(0.0087890625,0,0,0.0087890625,10.6171875,0)" xlink:href="#aP"/><use transform="matrix(0.0087890625,0,0,0.0087890625,20.548828125,0)" xlink:href="#al"/><use transform="matrix(0.0087890625,0,0,0.0087890625,30.33984375,0)" xlink:href="#aa"/></g><g id="x"><use transform="matrix(0.0087890625,0,0,0.0087890625,0,0)" xlink:href="#ai"/><use transform="matrix(0.0087890625,0,0,0.0087890625,5.923828125,0)" xlink:href="#aT"/><use transform="matrix(0.0087890625,0,0,0.0087890625,15.4599609375,0)" xlink:href="#aa"/><use transform="matrix(0.0087890625,0,0,0.0087890625,19.828125,0)" xlink:href="#aT"/><use transform="matrix(0.0087890625,0,0,0.0087890625,29.3642578125,0)" xlink:href="#al"/><use transform="matrix(0.0087890625,0,0,0.0087890625,39.1552734375,0)" xlink:href="#ae"/><use transform="matrix(0.0087890625,0,0,0.0087890625,48.4365234375,0)" xlink:href="#aT"/></g><path d="M525-543H37v-151h488v151" id="be"/><path d="M494-271l252-811h198L509 167C425 381 299 474 84 421V271c167 16 242-37 283-173l41-110L22-1082h202" id="bf"/><g id="y"><use transform="matrix(0.0087890625,0,0,0.0087890625,0,0)" xlink:href="#ba"/><use transform="matrix(0.0087890625,0,0,0.0087890625,8.71875,0)" xlink:href="#bb"/><use transform="matrix(0.0087890625,0,0,0.0087890625,18.826171875,0)" xlink:href="#ab"/><use transform="matrix(0.0087890625,0,0,0.0087890625,23.5634765625,0)" xlink:href="#bc"/><use transform="matrix(0.0087890625,0,0,0.0087890625,32.484375,0)" xlink:href="#ab"/><use transform="matrix(0.0087890625,0,0,0.0087890625,37.2216796875,0)" xlink:href="#bd"/><use transform="matrix(0.0087890625,0,0,0.0087890625,47.3291015625,0)" xlink:href="#be"/><use transform="matrix(0.0087890625,0,0,0.0087890625,52.294921875,0)" xlink:href="#ai"/><use transform="matrix(0.0087890625,0,0,0.0087890625,58.21875,0)" xlink:href="#am"/><use transform="matrix(0.0087890625,0,0,0.0087890625,67.640625,0)" xlink:href="#ab"/><use transform="matrix(0.0087890625,0,0,0.0087890625,72.3779296875,0)" xlink:href="#bf"/></g><g id="z"><use transform="matrix(0.0087890625,0,0,0.0087890625,0,0)" xlink:href="#ai"/><use transform="matrix(0.0087890625,0,0,0.0087890625,5.923828125,0)" xlink:href="#aT"/><use transform="matrix(0.0087890625,0,0,0.0087890625,15.4599609375,0)" xlink:href="#aa"/><use transform="matrix(0.0087890625,0,0,0.0087890625,19.828125,0)" xlink:href="#aT"/><use transform="matrix(0.0087890625,0,0,0.0087890625,29.3642578125,0)" xlink:href="#al"/><use transform="matrix(0.0087890625,0,0,0.0087890625,39.1552734375,0)" xlink:href="#ae"/><use transform="matrix(0.0087890625,0,0,0.0087890625,48.4365234375,0)" xlink:href="#aT"/></g><g id="A"><use transform="matrix(0.0087890625,0,0,0.0087890625,0,0)" xlink:href="#am"/><use transform="matrix(0.0087890625,0,0,0.0087890625,9.421875,0)" xlink:href="#al"/><use transform="matrix(0.0087890625,0,0,0.0087890625,19.212890625,0)" xlink:href="#aP"/><use transform="matrix(0.0087890625,0,0,0.0087890625,29.14453125,0)" xlink:href="#Z"/><use transform="matrix(0.0087890625,0,0,0.0087890625,39.2958984375,0)" xlink:href="#af"/><use transform="matrix(0.0087890625,0,0,0.0087890625,43.6640625,0)" xlink:href="#Z"/><use transform="matrix(0.0087890625,0,0,0.0087890625,53.8154296875,0)" xlink:href="#al"/><use transform="matrix(0.0087890625,0,0,0.0087890625,63.6064453125,0)" xlink:href="#aj"/><use transform="matrix(0.0087890625,0,0,0.0087890625,69.486328125,0)" xlink:href="#aT"/></g><path d="M632-1102c291 0 422 251 422 573 0 297-141 548-419 549-131 0-235-42-310-125v521H140v-1498h169l9 120c75-93 180-140 314-140zm-53 971c207 0 290-180 290-419 0-218-92-395-292-395-112 0-196 50-252 149v517c55 99 140 148 254 148" id="bg"/><path d="M177 125H18l608-1581h158" id="bh"/><path d="M634-1102c292 0 422 254 422 573 0 298-143 547-420 549-137 0-242-48-317-145L310 0H140v-1536h185v573c75-93 178-139 309-139zm-44 965c207 0 281-175 281-413 0-224-79-395-283-395-122 0-210 57-263 170v468c57 113 145 170 265 170" id="bi"/><g id="B"><use transform="matrix(0.0087890625,0,0,0.0087890625,0,0)" xlink:href="#ba"/><use transform="matrix(0.0087890625,0,0,0.0087890625,8.71875,0)" xlink:href="#bb"/><use transform="matrix(0.0087890625,0,0,0.0087890625,18.826171875,0)" xlink:href="#ab"/><use transform="matrix(0.0087890625,0,0,0.0087890625,23.5634765625,0)" xlink:href="#bc"/><use transform="matrix(0.0087890625,0,0,0.0087890625,32.484375,0)" xlink:href="#ab"/><use transform="matrix(0.0087890625,0,0,0.0087890625,37.2216796875,0)" xlink:href="#bd"/><use transform="matrix(0.0087890625,0,0,0.0087890625,47.3291015625,0)" xlink:href="#be"/><use transform="matrix(0.0087890625,0,0,0.0087890625,52.294921875,0)" xlink:href="#al"/><use transform="matrix(0.0087890625,0,0,0.0087890625,62.0859375,0)" xlink:href="#aa"/><use transform="matrix(0.0087890625,0,0,0.0087890625,66.4541015625,0)" xlink:href="#bg"/><use transform="matrix(0.0087890625,0,0,0.0087890625,76.552734375,0)" xlink:href="#aQ"/><use transform="matrix(0.0087890625,0,0,0.0087890625,86.466796875,0)" xlink:href="#al"/><use transform="matrix(0.0087890625,0,0,0.0087890625,96.2578125,0)" xlink:href="#bh"/><use transform="matrix(0.0087890625,0,0,0.0087890625,103.67578125,0)" xlink:href="#bi"/><use transform="matrix(0.0087890625,0,0,0.0087890625,113.7744140625,0)" xlink:href="#aT"/><use transform="matrix(0.0087890625,0,0,0.0087890625,123.310546875,0)" xlink:href="#aj"/><use transform="matrix(0.0087890625,0,0,0.0087890625,129.1904296875,0)" xlink:href="#al"/><use transform="matrix(0.0087890625,0,0,0.0087890625,138.9814453125,0)" xlink:href="#ab"/><use transform="matrix(0.0087890625,0,0,0.0087890625,143.71875,0)" xlink:href="#bf"/></g><g id="C"><use transform="matrix(0.0087890625,0,0,0.0087890625,0,0)" xlink:href="#bg"/><use transform="matrix(0.0087890625,0,0,0.0087890625,10.0986328125,0)" xlink:href="#ai"/><use transform="matrix(0.0087890625,0,0,0.0087890625,16.0224609375,0)" xlink:href="#aT"/><use transform="matrix(0.0087890625,0,0,0.0087890625,25.55859375,0)" xlink:href="#be"/><use transform="matrix(0.0087890625,0,0,0.0087890625,30.5244140625,0)" xlink:href="#ai"/><use transform="matrix(0.0087890625,0,0,0.0087890625,36.4482421875,0)" xlink:href="#aT"/><use transform="matrix(0.0087890625,0,0,0.0087890625,45.984375,0)" xlink:href="#aa"/><use transform="matrix(0.0087890625,0,0,0.0087890625,50.3525390625,0)" xlink:href="#aT"/><use transform="matrix(0.0087890625,0,0,0.0087890625,59.888671875,0)" xlink:href="#al"/><use transform="matrix(0.0087890625,0,0,0.0087890625,69.6796875,0)" xlink:href="#ae"/><use transform="matrix(0.0087890625,0,0,0.0087890625,78.9609375,0)" xlink:href="#aT"/></g><g id="D"><use transform="matrix(0.010850694444444444,0,0,0.010850694444444444,0,0)" xlink:href="#P"/><use transform="matrix(0.010850694444444444,0,0,0.010850694444444444,14.181857638888888,0)" xlink:href="#Q"/><use transform="matrix(0.010850694444444444,0,0,0.010850694444444444,26.19357638888889,0)" xlink:href="#R"/><use transform="matrix(0.010850694444444444,0,0,0.010850694444444444,32.08550347222222,0)" xlink:href="#Q"/><use transform="matrix(0.010850694444444444,0,0,0.010850694444444444,44.09722222222222,0)" xlink:href="#S"/><use transform="matrix(0.010850694444444444,0,0,0.010850694444444444,56.01128472222222,0)" xlink:href="#T"/><use transform="matrix(0.010850694444444444,0,0,0.010850694444444444,67.43706597222223,0)" xlink:href="#Q"/></g><path d="M515-409l200-673h310L590 168c-66 202-236 321-472 250V199c127 7 198-15 230-107l34-89L3-1082h311" id="bj"/><g id="E"><use transform="matrix(0.010850694444444444,0,0,0.010850694444444444,0,0)" xlink:href="#aY"/><use transform="matrix(0.010850694444444444,0,0,0.010850694444444444,14.539930555555555,0)" xlink:href="#bj"/><use transform="matrix(0.010850694444444444,0,0,0.010850694444444444,25.553385416666664,0)" xlink:href="#W"/><use transform="matrix(0.010850694444444444,0,0,0.010850694444444444,37.14192708333333,0)" xlink:href="#R"/><use transform="matrix(0.010850694444444444,0,0,0.010850694444444444,43.033854166666664,0)" xlink:href="#Q"/></g><path d="M314-151h633V0H88v-136l597-793H97v-153h820v131" id="bk"/><g id="F"><use transform="matrix(0.0087890625,0,0,0.0087890625,0,0)" xlink:href="#ba"/><use transform="matrix(0.0087890625,0,0,0.0087890625,8.71875,0)" xlink:href="#bb"/><use transform="matrix(0.0087890625,0,0,0.0087890625,18.826171875,0)" xlink:href="#ab"/><use transform="matrix(0.0087890625,0,0,0.0087890625,23.5634765625,0)" xlink:href="#bk"/><use transform="matrix(0.0087890625,0,0,0.0087890625,32.484375,0)" xlink:href="#ab"/><use transform="matrix(0.0087890625,0,0,0.0087890625,37.2216796875,0)" xlink:href="#bf"/></g><g id="G"><use transform="matrix(0.0087890625,0,0,0.0087890625,0,0)" xlink:href="#al"/><use transform="matrix(0.0087890625,0,0,0.0087890625,9.791015625,0)" xlink:href="#aP"/><use transform="matrix(0.0087890625,0,0,0.0087890625,19.72265625,0)" xlink:href="#bf"/></g><g id="H"><use transform="matrix(0.0087890625,0,0,0.0087890625,0,0)" xlink:href="#bg"/><use transform="matrix(0.0087890625,0,0,0.0087890625,10.0986328125,0)" xlink:href="#al"/><use transform="matrix(0.0087890625,0,0,0.0087890625,19.8896484375,0)" xlink:href="#aj"/><use transform="matrix(0.0087890625,0,0,0.0087890625,25.76953125,0)" xlink:href="#am"/><use transform="matrix(0.0087890625,0,0,0.0087890625,35.19140625,0)" xlink:href="#aQ"/></g><g id="I"><use transform="matrix(0.0087890625,0,0,0.0087890625,0,0)" xlink:href="#P"/><use transform="matrix(0.0087890625,0,0,0.0087890625,11.4873046875,0)" xlink:href="#Q"/><use transform="matrix(0.0087890625,0,0,0.0087890625,21.216796875,0)" xlink:href="#aW"/><use transform="matrix(0.0087890625,0,0,0.0087890625,31.3505859375,0)" xlink:href="#as"/><use transform="matrix(0.0087890625,0,0,0.0087890625,41.5283203125,0)" xlink:href="#T"/><use transform="matrix(0.0087890625,0,0,0.0087890625,50.783203125,0)" xlink:href="#aM"/><use transform="matrix(0.0087890625,0,0,0.0087890625,55.5556640625,0)" xlink:href="#Y"/><use transform="matrix(0.0087890625,0,0,0.0087890625,61.3740234375,0)" xlink:href="#as"/><use transform="matrix(0.0087890625,0,0,0.0087890625,71.5517578125,0)" xlink:href="#ap"/><use transform="matrix(0.0087890625,0,0,0.0087890625,78.275390625,0)" xlink:href="#bj"/></g><path d="M491 20c-241-1-355-148-355-398v-704h185v699c0 164 67 246 200 246 141 0 235-53 282-158v-787h185V0H812l-4-107C736-22 630 20 491 20" id="bl"/><g id="J"><use transform="matrix(0.0087890625,0,0,0.0087890625,0,0)" xlink:href="#aS"/><use transform="matrix(0.0087890625,0,0,0.0087890625,10.0986328125,0)" xlink:href="#af"/><use transform="matrix(0.0087890625,0,0,0.0087890625,14.466796875,0)" xlink:href="#aj"/><use transform="matrix(0.0087890625,0,0,0.0087890625,20.3466796875,0)" xlink:href="#ab"/><use transform="matrix(0.0087890625,0,0,0.0087890625,25.083984375,0)" xlink:href="#ac"/><use transform="matrix(0.0087890625,0,0,0.0087890625,34.20703125,0)" xlink:href="#ad"/><use transform="matrix(0.0087890625,0,0,0.0087890625,44.314453125,0)" xlink:href="#ae"/><use transform="matrix(0.0087890625,0,0,0.0087890625,53.595703125,0)" xlink:href="#ab"/><use transform="matrix(0.0087890625,0,0,0.0087890625,58.3330078125,0)" xlink:href="#af"/><use transform="matrix(0.0087890625,0,0,0.0087890625,62.701171875,0)" xlink:href="#ag"/><use transform="matrix(0.0087890625,0,0,0.0087890625,72.966796875,0)" xlink:href="#bh"/><use transform="matrix(0.0087890625,0,0,0.0087890625,80.384765625,0)" xlink:href="#ac"/><use transform="matrix(0.0087890625,0,0,0.0087890625,89.5078125,0)" xlink:href="#bl"/><use transform="matrix(0.0087890625,0,0,0.0087890625,99.4306640625,0)" xlink:href="#bi"/><use transform="matrix(0.0087890625,0,0,0.0087890625,109.529296875,0)" xlink:href="#aT"/><use transform="matrix(0.0087890625,0,0,0.0087890625,119.0654296875,0)" xlink:href="#ai"/><use transform="matrix(0.0087890625,0,0,0.0087890625,125.15625,0)" xlink:href="#aP"/><use transform="matrix(0.0087890625,0,0,0.0087890625,135.087890625,0)" xlink:href="#aT"/><use transform="matrix(0.0087890625,0,0,0.0087890625,144.6240234375,0)" xlink:href="#aj"/><use transform="matrix(0.0087890625,0,0,0.0087890625,150.50390625,0)" xlink:href="#aT"/><use transform="matrix(0.0087890625,0,0,0.0087890625,160.0400390625,0)" xlink:href="#ae"/></g><path d="M1098-255l208-827h185L1176 0h-150L763-820 507 0H357L43-1082h184l213 810 252-810h149" id="bm"/><g id="K"><use transform="matrix(0.0087890625,0,0,0.0087890625,0,0)" xlink:href="#aR"/><use transform="matrix(0.0087890625,0,0,0.0087890625,15.71484375,0)" xlink:href="#al"/><use transform="matrix(0.0087890625,0,0,0.0087890625,25.505859375,0)" xlink:href="#ai"/><use transform="matrix(0.0087890625,0,0,0.0087890625,31.5966796875,0)" xlink:href="#ac"/><use transform="matrix(0.0087890625,0,0,0.0087890625,40.5439453125,0)" xlink:href="#Z"/><use transform="matrix(0.0087890625,0,0,0.0087890625,50.6953125,0)" xlink:href="#ag"/><use transform="matrix(0.0087890625,0,0,0.0087890625,60.9609375,0)" xlink:href="#bm"/><use transform="matrix(0.0087890625,0,0,0.0087890625,74.4873046875,0)" xlink:href="#aP"/></g><path d="M1216-1011c-1 297-202 441-512 441H361V0H169v-1456h537c297-6 510 164 510 445zm-192 2c1-178-126-288-307-289H361v571h345c196 1 318-92 318-282" id="bn"/><g id="L"><use transform="matrix(0.0087890625,0,0,0.0087890625,0,0)" xlink:href="#bn"/><use transform="matrix(0.0087890625,0,0,0.0087890625,11.2587890625,0)" xlink:href="#al"/><use transform="matrix(0.0087890625,0,0,0.0087890625,21.0498046875,0)" xlink:href="#aj"/><use transform="matrix(0.0087890625,0,0,0.0087890625,26.9296875,0)" xlink:href="#am"/><use transform="matrix(0.0087890625,0,0,0.0087890625,36.3515625,0)" xlink:href="#aQ"/></g><path d="M1161-1018c0 201-122 330-278 388l342 618V0h-206L703-589H361V0H168v-1456h482c310-2 511 139 511 438zm-193 0c0-187-120-280-313-280H361v552h295c179 3 313-101 312-272" id="bo"/><g id="M"><use transform="matrix(0.0087890625,0,0,0.0087890625,0,0)" xlink:href="#bo"/><use transform="matrix(0.0087890625,0,0,0.0087890625,11.0830078125,0)" xlink:href="#aT"/><use transform="matrix(0.0087890625,0,0,0.0087890625,20.619140625,0)" xlink:href="#aa"/><use transform="matrix(0.0087890625,0,0,0.0087890625,24.9873046875,0)" xlink:href="#aT"/><use transform="matrix(0.0087890625,0,0,0.0087890625,34.5234375,0)" xlink:href="#al"/><use transform="matrix(0.0087890625,0,0,0.0087890625,44.314453125,0)" xlink:href="#ae"/><use transform="matrix(0.0087890625,0,0,0.0087890625,53.595703125,0)" xlink:href="#aT"/></g><path d="M1175-1298H707V0H516v-1298H49v-158h1126v158" id="bp"/><g id="N"><use transform="matrix(0.0087890625,0,0,0.0087890625,0,0)" xlink:href="#bp"/><use transform="matrix(0.0087890625,0,0,0.0087890625,9.8701171875,0)" xlink:href="#aT"/><use transform="matrix(0.0087890625,0,0,0.0087890625,19.40625,0)" xlink:href="#al"/><use transform="matrix(0.0087890625,0,0,0.0087890625,29.197265625,0)" xlink:href="#aU"/></g><g id="O"><use transform="matrix(0.0087890625,0,0,0.0087890625,0,0)" xlink:href="#aO"/><use transform="matrix(0.0087890625,0,0,0.0087890625,11.2060546875,0)" xlink:href="#ai"/><use transform="matrix(0.0087890625,0,0,0.0087890625,16.9453125,0)" xlink:href="#al"/><use transform="matrix(0.0087890625,0,0,0.0087890625,26.736328125,0)" xlink:href="#aP"/><use transform="matrix(0.0087890625,0,0,0.0087890625,36.66796875,0)" xlink:href="#am"/><use transform="matrix(0.0087890625,0,0,0.0087890625,46.08984375,0)" xlink:href="#aQ"/></g></defs></g></svg>