<?xml version="1.0" encoding="utf-8"?>
<svg width="100%" height="100%" viewBox="0 0 915 154" version="1.1" style="fill-rule:evenodd;clip-rule:evenodd;stroke-linejoin:round;stroke-miterlimit:2;" xmlns="http://www.w3.org/2000/svg">
  <g id="layer3" transform="matrix(1,0,0,1,-28.4387,-187.296)">
    <g id="Shadows">
      <g id="shadowN" transform="matrix(1,0,0,1,28.4387,187.296)">
        <path d="M122.868,108.924C122.868,113.13 126.278,116.541 130.485,116.541L219.251,116.541C223.458,116.541 226.868,113.13 226.868,108.924L226.868,121.75C226.868,125.957 223.458,129.367 219.251,129.367L130.485,129.367C126.278,129.367 122.868,125.957 122.868,121.75L122.868,108.924Z" style="fill:rgb(204,0,0);fill-opacity:0.6;"/>
      </g>
      <g id="shadow2" transform="matrix(1,0,0,1,28.4387,187.296)">
        <path d="M122.868,121.75C122.868,125.957 126.278,129.367 130.485,129.367L219.251,129.367C223.458,129.367 226.868,125.957 226.868,121.75L226.868,135.845C226.868,140.052 223.458,143.462 219.251,143.462L130.485,143.462C126.278,143.462 122.868,140.052 122.868,135.845L122.868,121.75Z" style="fill:rgb(204,0,0);fill-opacity:0.4;"/>
      </g>
      <path id="shadow1" d="M151.307,265.753C151.307,261.546 154.717,258.136 158.924,258.136L247.69,258.136C249.71,258.136 251.647,258.939 253.076,260.367C254.504,261.796 255.307,263.733 255.307,265.753L255.307,296.22C255.307,300.427 251.896,303.837 247.69,303.837L158.924,303.837C154.717,303.837 151.307,300.427 151.307,296.22L151.307,265.753Z" style="fill:rgb(204,0,0);fill-opacity:0.8;"/>
    </g>
    <g id="Shadows1" transform="matrix(1,0,0,1,112.87,0)">
      <g id="shadowN1" transform="matrix(1,0,0,1,28.4387,187.296)">
        <path d="M122.868,108.924C122.868,113.13 126.278,116.541 130.485,116.541L219.251,116.541C223.458,116.541 226.868,113.13 226.868,108.924L226.868,121.75C226.868,125.957 223.458,129.367 219.251,129.367L130.485,129.367C126.278,129.367 122.868,125.957 122.868,121.75L122.868,108.924Z" style="fill:rgb(61,133,198);fill-opacity:0.6;"/>
      </g>
      <g id="shadow21" transform="matrix(1,0,0,1,28.4387,187.296)">
        <path d="M122.868,121.75C122.868,125.957 126.278,129.367 130.485,129.367L219.251,129.367C223.458,129.367 226.868,125.957 226.868,121.75L226.868,135.845C226.868,140.052 223.458,143.462 219.251,143.462L130.485,143.462C126.278,143.462 122.868,140.052 122.868,135.845L122.868,121.75Z" style="fill:rgb(61,133,198);fill-opacity:0.4;"/>
      </g>
      <path id="shadow11" d="M151.307,265.753C151.307,261.546 154.717,258.136 158.924,258.136L247.69,258.136C249.71,258.136 251.647,258.939 253.076,260.367C254.504,261.796 255.307,263.733 255.307,265.753L255.307,296.22C255.307,300.427 251.896,303.837 247.69,303.837L158.924,303.837C154.717,303.837 151.307,300.427 151.307,296.22L151.307,265.753Z" style="fill:rgb(61,133,198);fill-opacity:0.8;"/>
    </g>
    <g id="Shadows2" transform="matrix(1,0,0,1,225.74,0)">
      <g id="shadowN2" transform="matrix(1,0,0,1,28.4387,187.296)">
        <path d="M122.868,108.924C122.868,113.13 126.278,116.541 130.485,116.541L219.251,116.541C223.458,116.541 226.868,113.13 226.868,108.924L226.868,121.75C226.868,125.957 223.458,129.367 219.251,129.367L130.485,129.367C126.278,129.367 122.868,125.957 122.868,121.75L122.868,108.924Z" style="fill:rgb(61,133,198);fill-opacity:0.6;"/>
      </g>
      <g id="shadow22" transform="matrix(1,0,0,1,28.4387,187.296)">
        <path d="M122.868,121.75C122.868,125.957 126.278,129.367 130.485,129.367L219.251,129.367C223.458,129.367 226.868,125.957 226.868,121.75L226.868,135.845C226.868,140.052 223.458,143.462 219.251,143.462L130.485,143.462C126.278,143.462 122.868,140.052 122.868,135.845L122.868,121.75Z" style="fill:rgb(61,133,198);fill-opacity:0.4;"/>
      </g>
      <path id="shadow12" d="M151.307,265.753C151.307,261.546 154.717,258.136 158.924,258.136L247.69,258.136C249.71,258.136 251.647,258.939 253.076,260.367C254.504,261.796 255.307,263.733 255.307,265.753L255.307,296.22C255.307,300.427 251.896,303.837 247.69,303.837L158.924,303.837C154.717,303.837 151.307,300.427 151.307,296.22L151.307,265.753Z" style="fill:rgb(61,133,198);fill-opacity:0.8;"/>
    </g>
    <g id="Shadows3" transform="matrix(1,0,0,1,338.609,0)">
      <g id="shadowN3" transform="matrix(1,0,0,1,28.4387,187.296)">
        <path d="M122.868,108.924C122.868,113.13 126.278,116.541 130.485,116.541L219.251,116.541C223.458,116.541 226.868,113.13 226.868,108.924L226.868,121.75C226.868,125.957 223.458,129.367 219.251,129.367L130.485,129.367C126.278,129.367 122.868,125.957 122.868,121.75L122.868,108.924Z" style="fill:rgb(61,133,198);fill-opacity:0.6;"/>
      </g>
      <g id="shadow23" transform="matrix(1,0,0,1,28.4387,187.296)">
        <path d="M122.868,121.75C122.868,125.957 126.278,129.367 130.485,129.367L219.251,129.367C223.458,129.367 226.868,125.957 226.868,121.75L226.868,135.845C226.868,140.052 223.458,143.462 219.251,143.462L130.485,143.462C126.278,143.462 122.868,140.052 122.868,135.845L122.868,121.75Z" style="fill:rgb(61,133,198);fill-opacity:0.4;"/>
      </g>
      <path id="shadow13" d="M151.307,265.753C151.307,261.546 154.717,258.136 158.924,258.136L247.69,258.136C249.71,258.136 251.647,258.939 253.076,260.367C254.504,261.796 255.307,263.733 255.307,265.753L255.307,296.22C255.307,300.427 251.896,303.837 247.69,303.837L158.924,303.837C154.717,303.837 151.307,300.427 151.307,296.22L151.307,265.753Z" style="fill:rgb(61,133,198);fill-opacity:0.8;"/>
    </g>
    <g id="Shadows4" transform="matrix(1,0,0,1,451.478,0)">
      <g id="shadowN4" transform="matrix(1,0,0,1,28.4387,187.296)">
        <path d="M122.868,108.924C122.868,113.13 126.278,116.541 130.485,116.541L219.251,116.541C223.458,116.541 226.868,113.13 226.868,108.924L226.868,121.75C226.868,125.957 223.458,129.367 219.251,129.367L130.485,129.367C126.278,129.367 122.868,125.957 122.868,121.75L122.868,108.924Z" style="fill:rgb(61,133,198);fill-opacity:0.6;"/>
      </g>
      <g id="shadow24" transform="matrix(1,0,0,1,28.4387,187.296)">
        <path d="M122.868,121.75C122.868,125.957 126.278,129.367 130.485,129.367L219.251,129.367C223.458,129.367 226.868,125.957 226.868,121.75L226.868,135.845C226.868,140.052 223.458,143.462 219.251,143.462L130.485,143.462C126.278,143.462 122.868,140.052 122.868,135.845L122.868,121.75Z" style="fill:rgb(61,133,198);fill-opacity:0.4;"/>
      </g>
      <path id="shadow14" d="M151.307,265.753C151.307,261.546 154.717,258.136 158.924,258.136L247.69,258.136C249.71,258.136 251.647,258.939 253.076,260.367C254.504,261.796 255.307,263.733 255.307,265.753L255.307,296.22C255.307,300.427 251.896,303.837 247.69,303.837L158.924,303.837C154.717,303.837 151.307,300.427 151.307,296.22L151.307,265.753Z" style="fill:rgb(61,133,198);fill-opacity:0.8;"/>
    </g>
    <path id="path71" d="M264.177,204.913C264.177,200.706 267.587,197.296 271.794,197.296L360.56,197.296C362.58,197.296 364.518,198.099 365.946,199.527C367.374,200.956 368.177,202.893 368.177,204.913L368.177,235.38C368.177,239.587 364.767,242.997 360.56,242.997L271.794,242.997C267.587,242.997 264.177,239.587 264.177,235.38L264.177,204.913Z" style="fill:rgb(61,133,198);"/>
    <path id="path79" d="M151.307,204.913C151.307,200.706 154.717,197.296 158.924,197.296L247.69,197.296C249.71,197.296 251.647,198.099 253.076,199.527C254.504,200.956 255.307,202.893 255.307,204.913L255.307,235.38C255.307,239.587 251.896,242.997 247.69,242.997L158.924,242.997C154.717,242.997 151.307,239.587 151.307,235.38L151.307,204.913Z" style="fill:rgb(204,0,0);"/>
    <g id="path93" transform="matrix(1,0,0,1,-5e-06,0)">
      <path d="M377.047,204.913C377.047,200.706 380.457,197.296 384.664,197.296L473.43,197.296C475.45,197.296 477.387,198.099 478.816,199.527C480.244,200.956 481.047,202.893 481.047,204.913L481.047,235.38C481.047,239.587 477.636,242.997 473.43,242.997L384.664,242.997C380.457,242.997 377.047,239.587 377.047,235.38L377.047,204.913Z" style="fill:rgb(61,133,198);"/>
    </g>
    <g id="path99" transform="matrix(1,0,0,1,5e-06,0)">
      <path d="M489.916,204.913C489.916,200.706 493.326,197.296 497.533,197.296L586.299,197.296C588.319,197.296 590.256,198.099 591.685,199.527C593.113,200.956 593.916,202.893 593.916,204.913L593.916,235.38C593.916,239.587 590.505,242.997 586.299,242.997L497.533,242.997C493.326,242.997 489.916,239.587 489.916,235.38L489.916,204.913Z" style="fill:rgb(61,133,198);"/>
    </g>
    <path id="path107" d="M602.785,204.913C602.785,200.706 606.195,197.296 610.402,197.296L699.168,197.296C701.188,197.296 703.125,198.099 704.554,199.527C705.982,200.956 706.785,202.893 706.785,204.913L706.785,235.38C706.785,239.587 703.375,242.997 699.168,242.997L610.402,242.997C606.195,242.997 602.785,239.587 602.785,235.38L602.785,204.913Z" style="fill:rgb(61,133,198);"/>
    <path id="path173" d="M38.439,204.913C38.439,200.706 41.849,197.296 46.056,197.296L134.822,197.296C136.842,197.296 138.779,198.099 140.208,199.527C141.636,200.956 142.439,202.893 142.439,204.913L142.439,235.38C142.439,239.587 139.028,242.997 134.822,242.997L46.056,242.997C41.849,242.997 38.439,239.587 38.439,235.38L38.439,204.913Z" style="fill:rgb(106,168,79);"/>
    <g>
      <g id="text205" transform="matrix(1,0,0,1,4.13823,-6.12879)">
        <g transform="matrix(1,0,0,1,86.0032,220.635)">
          <text x="-33.932px" y="0px" style="font-family: ArialMT, Arial, sans-serif; font-size: 14.667px; white-space: pre;">Subproject</text>
        </g>
        <g transform="matrix(1,0,0,1,86.0032,238.969)">
          <text x="-20.453px" y="0px" style="font-family: ArialMT, Arial, sans-serif; font-size: 14.667px; white-space: pre;">Owner</text>
        </g>
      </g>
      <g transform="matrix(1,0,0,1,203.26,214.506)">
        <g id="text205-2">
          <text x="-45.257px" y="0px" style="font-family: ArialMT, Arial, sans-serif; font-size: 14.667px; white-space: pre;">Release Lead</text>
        </g>
      </g>
      <g id="text205-2-1" transform="matrix(1,0,0,1,88.4678,54.9094)">
        <g transform="matrix(1,0,0,1,114.792,220.635)">
          <text x="-45.257px" y="0px" style="font-family: ArialMT, Arial, sans-serif; font-size: 14.667px; white-space: pre;">Release Lead</text>
        </g>
        <g transform="matrix(1,0,0,1,114.792,238.969)">
          <text x="-30.168px" y="0px" style="font-family: ArialMT, Arial, sans-serif; font-size: 14.667px; white-space: pre;">Shadows</text>
        </g>
      </g>
      <g id="text205-2-5" transform="matrix(1,0,0,1,201.088,-6.12879)">
        <g transform="matrix(1,0,0,1,114.792,220.635)">
          <text x="-48.92px" y="0px" style="font-family: ArialMT, Arial, sans-serif; font-size: 14.667px; white-space: pre;">Enhancements</text>
        </g>
        <g transform="matrix(1,0,0,1,114.792,238.969)">
          <text x="-16.314px" y="0px" style="font-family: ArialMT, Arial, sans-serif; font-size: 14.667px; white-space: pre;">Lead</text>
        </g>
      </g>
      <g id="text205-2-5-4" transform="matrix(1,0,0,1,201.088,54.9094)">
        <g transform="matrix(1,0,0,1,114.792,220.635)">
          <text x="-48.92px" y="0px" style="font-family: ArialMT, Arial, sans-serif; font-size: 14.667px; white-space: pre;">Enhancements</text>
        </g>
        <g transform="matrix(1,0,0,1,114.792,238.969)">
          <text x="-30.168px" y="0px" style="font-family: ArialMT, Arial, sans-serif; font-size: 14.667px; white-space: pre;">Shadows</text>
        </g>
      </g>
      <g transform="matrix(1,0,0,1,381.104,214.685)">
        <g id="text205-2-5-8">
          <text x="4px" y="0px" style="font-family: ArialMT, Arial, sans-serif; font-size: 14.667px; white-space: pre;">Comms Lead</text>
        </g>
      </g>
      <g id="text205-2-5-8-3" transform="matrix(1,0,0,1,284.04,55.0885)">
        <g transform="matrix(1,0,0,1,114.792,220.635)">
          <text x="4px" y="0px" style="font-family: ArialMT, Arial, sans-serif; font-size: 14.667px; white-space: pre;">Comms</text>
        </g>
        <g transform="matrix(1,0,0,1,114.792,238.969)">
          <text x="0px" y="0px" style="font-family: ArialMT, Arial, sans-serif; font-size: 14.667px; white-space: pre;">Shadows</text>
        </g>
      </g>
      <g id="text205-2-5-8-2" transform="matrix(1,0,0,1,391.921,-6.12879)">
        <g transform="matrix(1,0,0,1,149.762,220.635)">
          <text x="-49.467px" y="0px" style="font-family: ArialMT, Arial, sans-serif; font-size: 14.667px; white-space: pre;">Release Signal</text>
        </g>
        <g transform="matrix(1,0,0,1,149.762,238.969)">
          <text x="-16.314px" y="0px" style="font-family: ArialMT, Arial, sans-serif; font-size: 14.667px; white-space: pre;">Lead</text>
        </g>
      </g>
      <g id="text205-2-5-8-2-3" transform="matrix(1,0,0,1,391.921,54.9094)">
        <g transform="matrix(1,0,0,1,149.762,220.635)">
          <text x="-49.467px" y="0px" style="font-family: ArialMT, Arial, sans-serif; font-size: 14.667px; white-space: pre;">Release Signal</text>
        </g>
        <g transform="matrix(1,0,0,1,149.762,238.969)">
          <text x="-30.168px" y="0px" style="font-family: ArialMT, Arial, sans-serif; font-size: 14.667px; white-space: pre;">Shadows</text>
        </g>
      </g>
      <g transform="matrix(1,0,0,1,654.749,214.506)">
        <g id="text205-2-5-8-2-2">
          <text x="-35.059px" y="0px" style="font-family: ArialMT, Arial, sans-serif; font-size: 14.667px; white-space: pre;">Docs Lead</text>
        </g>
      </g>
      <g id="text205-2-5-8-2-2-5" transform="matrix(1,0,0,1,504.976,54.9094)">
        <g transform="matrix(1,0,0,1,149.762,220.635)">
          <text x="-16.708px" y="0px" style="font-family: ArialMT, Arial, sans-serif; font-size: 14.667px; white-space: pre;">Docs</text>
        </g>
        <g transform="matrix(1,0,0,1,149.762,238.969)">
          <text x="-30.168px" y="0px" style="font-family: ArialMT, Arial, sans-serif; font-size: 14.667px; white-space: pre;">Shadows</text>
        </g>
      </g>
      <g id="text205-2-5-8-2-2-9-9-4" transform="matrix(1,0,0,1,683.127,55.0885)"/>
    </g>
  </g>
</svg>
