<svg xmlns="http://www.w3.org/2000/svg" xmlns:xlink="http://www.w3.org/1999/xlink" xmlns:lucid="lucid" width="1066" height="392"><g transform="translate(-79 -336)" lucid:page-tab-id="0_0"><path d="M0 336h1200v400H0z" fill="#fff"/><path d="M859.38 557.1H321.5" stroke="#000" stroke-width="3" fill="none"/><path d="M875.15 557.1l-14.27 4.64v-9.27z" stroke="#000" stroke-width="3"/><path d="M321.54 557.1H320" stroke="#000" stroke-width="3" fill="none"/><use xlink:href="#a" transform="matrix(1,0,0,1,844.8648003472222,561.1071675209531) translate(0 20.822482638888886)"/><use xlink:href="#b" transform="matrix(1,0,0,1,257.31336805555554,561.1071675209531) translate(0 20.822482638888886)"/><use xlink:href="#c" transform="matrix(1,0,0,1,257.31336805555554,561.1071675209531) translate(57.74403211805554 20.822482638888886)"/><use xlink:href="#d" transform="matrix(1,0,0,1,846.4973034123811,527.0655008542865) translate(0 20.616319444444443)"/><use xlink:href="#e" transform="matrix(1,0,0,1,488.35217537418646,561.1071675209531) translate(0 20.822482638888886)"/><use xlink:href="#c" transform="matrix(1,0,0,1,488.35217537418646,561.1071675209531) translate(49.75477430555554 20.822482638888886)"/><path d="M859.38 380h-314c-2.76 0-5 2.24-5 5v170.6" stroke="#000" stroke-width="3" fill="none"/><path d="M875.15 380l-14.27 4.64v-9.28z" stroke="#000" stroke-width="3"/><path d="M540.38 555.57v1.54" stroke="#000" stroke-width="3" fill="none"/><use xlink:href="#f" transform="matrix(1,0,0,1,826.4789496527778,349.9583333333333) translate(0 20.616319444444443)"/><use xlink:href="#g" transform="matrix(1,0,0,1,666.2379718151589,349.9583333333333) translate(0 20.616319444444443)"/><path d="M437.7 575.6V660H321" stroke="#000" stroke-width="2" fill="none"/><path d="M437.7 560.34l4.65 14.27h-9.27z" stroke="#000" stroke-width="2"/><path d="M321.03 660H320" stroke="#000" stroke-width="2" fill="none"/><use xlink:href="#h" transform="matrix(1,0,0,1,286.4701438396718,663.9999999999999) translate(0.0049999999999954525 20.822482638888886)"/><use xlink:href="#i" transform="matrix(1,0,0,1,286.4701438396718,663.9999999999999) translate(45.11307291666665 20.822482638888886)"/><use xlink:href="#j" transform="matrix(1,0,0,1,286.4701438396718,663.9999999999999) translate(92.67600694444442 20.822482638888886)"/><use xlink:href="#k" transform="matrix(1,0,0,1,286.4701438396718,663.9999999999999) translate(187.50597656249994 20.822482638888886)"/><use xlink:href="#l" transform="matrix(1,0,0,1,286.4701438396718,663.9999999999999) translate(41.52941406249998 47.124565972222214)"/><use xlink:href="#m" transform="matrix(1,0,0,1,286.4701438396718,663.9999999999999) translate(64.91634982638887 47.124565972222214)"/><use xlink:href="#n" transform="matrix(1,0,0,1,286.4701438396718,663.9999999999999) translate(102.0570833333333 47.124565972222214)"/><path d="M641 660h81v-84.4M641.03 660H640" stroke="#000" stroke-width="2" fill="none"/><path d="M722 560.34l4.63 14.27h-9.27z" stroke="#000" stroke-width="2"/><use xlink:href="#o" transform="matrix(1,0,0,1,640.2792060745348,664) translate(0 20.822482638888886)"/><use xlink:href="#p" transform="matrix(1,0,0,1,640.2792060745348,664) translate(33.53515624999999 20.822482638888886)"/><path d="M720.66 556.1V398.5M720.66 556.08v1.03" stroke="#000" stroke-width="2" fill="none"/><path d="M720.66 383.24l4.64 14.26h-9.27z" stroke="#000" stroke-width="2"/><path d="M740.66 556.1V398.5M740.66 556.08v1.03" stroke="#000" stroke-width="2" fill="none"/><path d="M740.66 383.24l4.64 14.26h-9.27z" stroke="#000" stroke-width="2"/><path d="M700 556.1V398.5M700 556.08v1.03" stroke="#000" stroke-width="2" fill="none"/><path d="M700 383.24l4.64 14.26h-9.28z" stroke="#000" stroke-width="2"/><defs><path d="M1240-945c-141 0-250 95-250 227V0H804v-709c0-157-77-236-231-236-121 0-204 52-249 155V0H139v-1082h175l5 120c79-93 186-140 321-140 151 0 254 58 309 174 69-98 181-174 345-174 237 0 362 126 362 377V0h-185v-714c-2-159-67-231-231-231" id="q"/><path d="M561-1102c238-4 403 126 403 351v498c0 99 13 178 38 237V0H808c-11-21-19-59-26-114C696-25 593 20 474 20c-199 0-368-130-365-320 4-251 214-359 490-356h180v-85c-1-135-86-212-229-212-115 0-232 67-233 171H131c20-205 206-316 430-320zM294-326c0 117 90 185 207 185 122 0 239-75 278-162v-222H634c-227 0-340 66-340 199" id="r"/><path d="M538-131c121 0 232-49 232-156 0-50-20-88-56-117-73-60-334-92-420-143-92-55-162-110-162-238 0-190 192-317 400-317 223 0 414 129 413 338H759c0-108-110-186-227-186-119 0-215 53-215 159 0 45 18 78 53 101 76 52 331 90 416 139 98 57 169 115 169 251C955-92 760 20 538 20c-176 0-314-68-386-174-38-55-57-115-57-179h185c6 129 116 202 258 202" id="s"/><path d="M456 20C285 20 205-92 206-268v-671H9v-143h197v-262h185v262h202v143H391v671c-9 125 92 149 207 118V0c-49 13-96 20-142 20" id="t"/><path d="M599-131c141 0 220-65 285-146l113 88C906-50 770 20 589 20 281 21 93-214 93-545c0-223 93-397 233-485 74-48 154-72 240-72 300 2 449 218 445 537v77H278c0 197 129 357 321 357zm227-509c-3-180-88-310-260-310-170 0-264 140-282 310h542" id="u"/><path d="M663-916c-163-27-288 18-338 148V0H140v-1082h180l3 125c61-97 147-145 258-145 36 0 63 5 82 14v172" id="v"/><g id="a"><use transform="matrix(0.010959201388888886,0,0,0.010959201388888886,0,0)" xlink:href="#q"/><use transform="matrix(0.010959201388888886,0,0,0.010959201388888886,19.67176649305555,0)" xlink:href="#r"/><use transform="matrix(0.010959201388888886,0,0,0.010959201388888886,31.88031684027777,0)" xlink:href="#s"/><use transform="matrix(0.010959201388888886,0,0,0.010959201388888886,43.453233506944436,0)" xlink:href="#t"/><use transform="matrix(0.010959201388888886,0,0,0.010959201388888886,50.7849392361111,0)" xlink:href="#u"/><use transform="matrix(0.010959201388888886,0,0,0.010959201388888886,62.67567274305554,0)" xlink:href="#v"/></g><path d="M687-225c189-1 272-84 286-260h300c-19 311-251 505-586 505C296 20 86-277 86-686c0-466 174-782 605-790 340-6 557 198 584 514H975c-15-183-92-268-284-268-100 0-173 38-225 108-63 84-76 264-76 443 0 157 24 272 72 345s122 109 225 109" id="w"/><path d="M579 20C257 20 58-214 66-551c8-331 182-551 511-551 324 0 514 231 514 572 0 319-198 550-512 550zm-2-888c-169 0-222 141-222 338 0 181 61 317 224 317 170 0 223-137 223-338 0-178-64-317-225-317" id="x"/><path d="M488 20C204 20 66-234 66-549c0-305 140-551 424-553 105 0 192 39 261 118v-552h290V0H780l-14-115C694-25 601 20 488 20zM355-528c0 176 51 314 207 314 89 0 152-38 189-113v-427c-36-75-98-113-187-113-139 0-209 113-209 339" id="y"/><path d="M1031-175C952-60 797 20 609 20 287 20 60-206 72-543c12-330 180-559 505-559 309 0 482 214 477 537v118H365c15 134 115 234 263 234 111 0 198-40 261-121zM770-644c5-139-62-226-194-224-130 1-191 97-208 224h402" id="z"/><g id="b"><use transform="matrix(0.010959201388888886,0,0,0.010959201388888886,0,0)" xlink:href="#w"/><use transform="matrix(0.010959201388888886,0,0,0.010959201388888886,14.685329861111107,0)" xlink:href="#x"/><use transform="matrix(0.010959201388888886,0,0,0.010959201388888886,27.37608506944444,0)" xlink:href="#y"/><use transform="matrix(0.010959201388888886,0,0,0.010959201388888886,40.023003472222214,0)" xlink:href="#z"/></g><path d="M1006-595H430V0H130v-1456h948v243H430v376h576v242" id="A"/><path d="M719-811c-143-24-279 1-319 103V0H111v-1082h273l8 129c74-124 180-175 331-136" id="B"/><path d="M443-233h529V0H74v-176l509-672H89v-234h867v171" id="C"/><g id="c"><use transform="matrix(0.010959201388888886,0,0,0.010959201388888886,0,0)" xlink:href="#A"/><use transform="matrix(0.010959201388888886,0,0,0.010959201388888886,12.01128472222222,0)" xlink:href="#B"/><use transform="matrix(0.010959201388888886,0,0,0.010959201388888886,19.98958333333333,0)" xlink:href="#z"/><use transform="matrix(0.010959201388888886,0,0,0.010959201388888886,32.12141927083333,0)" xlink:href="#z"/><use transform="matrix(0.010959201388888886,0,0,0.010959201388888886,44.25325520833333,0)" xlink:href="#C"/><use transform="matrix(0.010959201388888886,0,0,0.010959201388888886,55.49739583333333,0)" xlink:href="#z"/></g><path d="M1226-1213H780V0H480v-1213H40v-243h1186v243" id="D"/><path d="M750-685c-1-124-48-182-173-182-85 0-146 33-184 98V0H104v-1536h289v572c77-92 173-138 289-138 235 0 357 136 357 409V0H750v-685" id="E"/><path d="M552-1102c254-4 435 134 435 383v469c1 103 15 180 43 233V0H738c-13-26-23-58-29-97C639-19 548 20 436 20 238 20 64-113 68-304c5-258 212-357 496-357h133c11-137-29-227-160-227-90 0-156 45-156 131H92c15-231 213-342 460-345zM357-325c0 76 61 124 142 124 88 0 168-45 198-105v-186H589c-152 2-232 51-232 167" id="F"/><path d="M1052-393l142-689h279L1197 0H955L750-681 545 0H304L28-1082h279l141 688 198-688h209" id="G"/><g id="d"><use transform="matrix(0.010850694444444444,0,0,0.010850694444444444,0,0)" xlink:href="#D"/><use transform="matrix(0.010850694444444444,0,0,0.010850694444444444,13.74782986111111,0)" xlink:href="#E"/><use transform="matrix(0.010850694444444444,0,0,0.010850694444444444,26.182725694444443,0)" xlink:href="#F"/><use transform="matrix(0.010850694444444444,0,0,0.010850694444444444,38.09678819444444,0)" xlink:href="#G"/></g><path d="M529-185c94 0 168-33 168-114 0-35-18-63-53-83s-91-39-168-55C219-491 90-600 90-765c0-208 203-337 432-337 246 0 451 124 453 349H686c-2-91-62-143-165-143-86 0-151 41-153 117 0 32 16 57 46 77 63 43 257 69 335 100 151 60 229 153 229 291C978-13 554 93 282-28 162-81 60-190 56-344h274c5 106 86 159 199 159" id="H"/><path d="M457-330c2 83 25 111 111 112 32 0 60-2 85-7V-6c-57 17-115 26-175 26-203 0-310-102-310-307v-583H10v-212h158v-266h289v266h185v212H457v540" id="I"/><g id="e"><use transform="matrix(0.010959201388888886,0,0,0.010959201388888886,0,0)" xlink:href="#D"/><use transform="matrix(0.010959201388888886,0,0,0.010959201388888886,12.909939236111109,0)" xlink:href="#z"/><use transform="matrix(0.010959201388888886,0,0,0.010959201388888886,25.041775173611104,0)" xlink:href="#H"/><use transform="matrix(0.010959201388888886,0,0,0.010959201388888886,36.58181423611111,0)" xlink:href="#I"/></g><path d="M341 0H156v-1536h185V0" id="J"/><path d="M525-543H37v-151h488v151" id="K"/><path d="M729 0H543v-1233l-373 137v-168l530-199h29V0" id="L"/><path d="M258 11c-71 0-114-43-114-108 0-67 42-112 114-112s116 45 116 112c-1 65-45 108-116 108" id="M"/><path d="M503-687l240-395h216L605-547 970 0H756L506-405 256 0H41l365-547-354-535h214" id="N"/><g id="f"><use transform="matrix(0.010850694444444444,0,0,0.010850694444444444,0,0)" xlink:href="#v"/><use transform="matrix(0.010850694444444444,0,0,0.010850694444444444,7.313368055555555,0)" xlink:href="#u"/><use transform="matrix(0.010850694444444444,0,0,0.010850694444444444,19.08637152777778,0)" xlink:href="#J"/><use transform="matrix(0.010850694444444444,0,0,0.010850694444444444,24.479166666666664,0)" xlink:href="#u"/><use transform="matrix(0.010850694444444444,0,0,0.010850694444444444,36.252170138888886,0)" xlink:href="#r"/><use transform="matrix(0.010850694444444444,0,0,0.010850694444444444,48.33984375,0)" xlink:href="#s"/><use transform="matrix(0.010850694444444444,0,0,0.010850694444444444,59.79817708333333,0)" xlink:href="#u"/><use transform="matrix(0.010850694444444444,0,0,0.010850694444444444,71.57118055555554,0)" xlink:href="#K"/><use transform="matrix(0.010850694444444444,0,0,0.010850694444444444,77.70182291666666,0)" xlink:href="#L"/><use transform="matrix(0.010850694444444444,0,0,0.010850694444444444,90.18012152777777,0)" xlink:href="#M"/><use transform="matrix(0.010850694444444444,0,0,0.010850694444444444,96.02864583333333,0)" xlink:href="#N"/></g><path d="M277-555c0 244 77 420 297 424 127 2 249-93 255-210h175C980-127 805 20 574 20 258 20 81-222 92-562c11-319 164-533 481-540 237-5 426 165 431 392H829c-7-133-115-242-256-240-209 4-296 166-296 395" id="O"/><path d="M589-945c-131 0-219 81-264 174V0H140v-1536h185v585c82-101 189-151 320-151 229 0 346 129 346 387V0H806v-716c-2-153-65-229-217-229" id="P"/><path d="M494-271l252-811h198L509 167C425 381 299 474 84 421V271c167 16 242-37 283-173l41-110L22-1082h202" id="Q"/><path d="M632-1102c291 0 422 251 422 573 0 297-141 548-419 549-131 0-235-42-310-125v521H140v-1498h169l9 120c75-93 180-140 314-140zm-53 971c207 0 290-180 290-419 0-218-92-395-292-395-112 0-196 50-252 149v517c55 99 140 148 254 148" id="R"/><path d="M341 0H156v-1082h185V0zm-91-1264c-68 0-108-42-109-105 0-62 41-107 109-107s110 44 110 107-42 105-110 105" id="S"/><path d="M442-501L326-380V0H141v-1536h185v929c135-169 291-317 436-475h225L566-630 1036 0H819" id="T"/><g id="g"><use transform="matrix(0.010850694444444444,0,0,0.010850694444444444,0,0)" xlink:href="#O"/><use transform="matrix(0.010850694444444444,0,0,0.010850694444444444,11.631944444444445,0)" xlink:href="#P"/><use transform="matrix(0.010850694444444444,0,0,0.010850694444444444,23.87152777777778,0)" xlink:href="#u"/><use transform="matrix(0.010850694444444444,0,0,0.010850694444444444,35.64453125,0)" xlink:href="#v"/><use transform="matrix(0.010850694444444444,0,0,0.010850694444444444,43.1640625,0)" xlink:href="#v"/><use transform="matrix(0.010850694444444444,0,0,0.010850694444444444,50.87890625,0)" xlink:href="#Q"/><use transform="matrix(0.010850694444444444,0,0,0.010850694444444444,61.393229166666664,0)" xlink:href="#K"/><use transform="matrix(0.010850694444444444,0,0,0.010850694444444444,67.52387152777777,0)" xlink:href="#R"/><use transform="matrix(0.010850694444444444,0,0,0.010850694444444444,79.99131944444444,0)" xlink:href="#S"/><use transform="matrix(0.010850694444444444,0,0,0.010850694444444444,85.38411458333333,0)" xlink:href="#O"/><use transform="matrix(0.010850694444444444,0,0,0.010850694444444444,97.01605902777777,0)" xlink:href="#T"/></g><path d="M1216-1011c-1 297-202 441-512 441H361V0H169v-1456h537c297-6 510 164 510 445zm-192 2c1-178-126-288-307-289H361v571h345c196 1 318-92 318-282" id="U"/><path d="M1161-1018c0 201-122 330-278 388l342 618V0h-206L703-589H361V0H168v-1456h482c310-2 511 139 511 438zm-193 0c0-187-120-280-313-280H361v552h295c179 3 313-101 312-272" id="V"/><g id="h"><use transform="matrix(0.010959201388888886,0,0,0.010959201388888886,0,0)" xlink:href="#U"/><use transform="matrix(0.010959201388888886,0,0,0.010959201388888886,14.159288194444441,0)" xlink:href="#V"/><use transform="matrix(0.010959201388888886,0,0,0.010959201388888886,27.97884114583333,0)" xlink:href="#s"/></g><path d="M1098-255l208-827h185L1176 0h-150L763-820 507 0H357L43-1082h184l213 810 252-810h149" id="W"/><g id="i"><use transform="matrix(0.010959201388888886,0,0,0.010959201388888886,0,0)" xlink:href="#W"/><use transform="matrix(0.010959201388888886,0,0,0.010959201388888886,16.866210937499996,0)" xlink:href="#S"/><use transform="matrix(0.010959201388888886,0,0,0.010959201388888886,22.31293402777777,0)" xlink:href="#t"/><use transform="matrix(0.010959201388888886,0,0,0.010959201388888886,29.64463975694444,0)" xlink:href="#P"/></g><path d="M177 125H18l608-1581h158" id="X"/><path d="M584 20C278 26 81-227 91-551c10-320 175-545 491-551 308-5 503 247 494 573-9 322-175 543-492 549zm-2-970c-208 0-305 185-305 421 0 216 106 398 307 398 211 0 307-186 307-420 0-214-109-399-309-399" id="Y"/><path d="M497-251l268-831h189L566 0H425L33-1082h189" id="Z"/><g id="j"><use transform="matrix(0.010959201388888886,0,0,0.010959201388888886,0,0)" xlink:href="#X"/><use transform="matrix(0.010959201388888886,0,0,0.010959201388888886,9.24956597222222,0)" xlink:href="#r"/><use transform="matrix(0.010959201388888886,0,0,0.010959201388888886,21.45811631944444,0)" xlink:href="#R"/><use transform="matrix(0.010959201388888886,0,0,0.010959201388888886,34.05023871527777,0)" xlink:href="#R"/><use transform="matrix(0.010959201388888886,0,0,0.010959201388888886,46.6423611111111,0)" xlink:href="#v"/><use transform="matrix(0.010959201388888886,0,0,0.010959201388888886,54.01790364583332,0)" xlink:href="#Y"/><use transform="matrix(0.010959201388888886,0,0,0.010959201388888886,66.6538628472222,0)" xlink:href="#Z"/><use transform="matrix(0.010959201388888886,0,0,0.010959201388888886,77.38292100694441,0)" xlink:href="#u"/></g><path d="M521 20C240 20 96-239 96-550c0-303 147-552 427-552 132 0 235 47 309 140l9-120h169V-26c4 277-183 454-459 452-165-1-334-81-400-187l96-111c79 98 176 147 291 147 180 1 288-109 286-290v-93C750-23 649 20 521 20zm48-965c-209 0-287 178-287 416 0 217 86 392 285 392 117 0 202-53 257-159v-494c-57-103-142-155-255-155" id="aa"/><g id="k"><use transform="matrix(0.010959201388888886,0,0,0.010959201388888886,0,0)" xlink:href="#X"/><use transform="matrix(0.010959201388888886,0,0,0.010959201388888886,9.24956597222222,0)" xlink:href="#J"/><use transform="matrix(0.010959201388888886,0,0,0.010959201388888886,14.696289062499996,0)" xlink:href="#aa"/><use transform="matrix(0.010959201388888886,0,0,0.010959201388888886,27.28841145833333,0)" xlink:href="#t"/><use transform="matrix(0.010959201388888886,0,0,0.010959201388888886,34.62011718749999,0)" xlink:href="#q"/></g><path d="M589-945c-131 0-219 81-264 174V0H140v-1082h175l6 136c83-104 191-156 324-156 229 0 346 129 346 387V0H806v-716c-2-153-65-229-217-229" id="ab"/><g id="l"><use transform="matrix(0.010959201388888886,0,0,0.010959201388888886,0,0)" xlink:href="#S"/><use transform="matrix(0.010959201388888886,0,0,0.010959201388888886,5.446723090277777,0)" xlink:href="#ab"/></g><g id="m"><use transform="matrix(0.010959201388888886,0,0,0.010959201388888886,0,0)" xlink:href="#t"/><use transform="matrix(0.010959201388888886,0,0,0.010959201388888886,7.331705729166665,0)" xlink:href="#P"/><use transform="matrix(0.010959201388888886,0,0,0.010959201388888886,19.69368489583333,0)" xlink:href="#u"/></g><g id="n"><use transform="matrix(0.010959201388888886,0,0,0.010959201388888886,0,0)" xlink:href="#q"/><use transform="matrix(0.010959201388888886,0,0,0.010959201388888886,19.67176649305555,0)" xlink:href="#S"/><use transform="matrix(0.010959201388888886,0,0,0.010959201388888886,25.11848958333333,0)" xlink:href="#J"/><use transform="matrix(0.010959201388888886,0,0,0.010959201388888886,30.56521267361111,0)" xlink:href="#u"/><use transform="matrix(0.010959201388888886,0,0,0.010959201388888886,42.45594618055555,0)" xlink:href="#s"/><use transform="matrix(0.010959201388888886,0,0,0.010959201388888886,54.02886284722221,0)" xlink:href="#t"/><use transform="matrix(0.010959201388888886,0,0,0.010959201388888886,61.1413845486111,0)" xlink:href="#Y"/><use transform="matrix(0.010959201388888886,0,0,0.010959201388888886,73.94173177083331,0)" xlink:href="#ab"/><use transform="matrix(0.010959201388888886,0,0,0.010959201388888886,86.32562934027776,0)" xlink:href="#u"/></g><g id="o"><use transform="matrix(0.010959201388888886,0,0,0.010959201388888886,0,0)" xlink:href="#U"/><use transform="matrix(0.010959201388888886,0,0,0.010959201388888886,14.159288194444441,0)" xlink:href="#V"/></g><g id="p"><use transform="matrix(0.010959201388888886,0,0,0.010959201388888886,0,0)" xlink:href="#u"/><use transform="matrix(0.010959201388888886,0,0,0.010959201388888886,11.890733506944441,0)" xlink:href="#N"/><use transform="matrix(0.010959201388888886,0,0,0.010959201388888886,22.795138888888882,0)" xlink:href="#O"/><use transform="matrix(0.010959201388888886,0,0,0.010959201388888886,34.54340277777777,0)" xlink:href="#u"/><use transform="matrix(0.010959201388888886,0,0,0.010959201388888886,46.434136284722214,0)" xlink:href="#R"/><use transform="matrix(0.010959201388888886,0,0,0.010959201388888886,59.02625868055554,0)" xlink:href="#t"/><use transform="matrix(0.010959201388888886,0,0,0.010959201388888886,66.35796440972221,0)" xlink:href="#S"/><use transform="matrix(0.010959201388888886,0,0,0.010959201388888886,71.80468749999999,0)" xlink:href="#Y"/><use transform="matrix(0.010959201388888886,0,0,0.010959201388888886,84.6050347222222,0)" xlink:href="#ab"/><use transform="matrix(0.010959201388888886,0,0,0.010959201388888886,96.98893229166664,0)" xlink:href="#s"/></g></defs></g></svg>